<?xml version="1.0" encoding="UTF-8" standalone="no"?>
<svg width="274px" height="160px" viewBox="0 0 274 160" version="1.1" xmlns="http://www.w3.org/2000/svg" xmlns:xlink="http://www.w3.org/1999/xlink">
    <!-- Generator: Sketch 42 (36781) - http://www.bohemiancoding.com/sketch -->
    <title>Delicious, nutritiou</title>
    <desc>Created with Sketch.</desc>
    <defs></defs>
    <g id="Page-1" stroke="none" stroke-width="1" fill="none" fill-rule="evenodd">
        <path d="M13.36,41 C28.9,41 34.66,32.36 34.66,22.34 C34.66,13.22 29.14,5.36 12.82,5.36 L11.62,5.36 L11.62,8.24 L12.76,8.24 C25.48,8.24 30.76,14 30.76,22.4 C30.76,33.26 23.62,38.12 13.42,38.12 L11.62,38.12 L11.62,41 L13.36,41 Z M1,41 L9.22,41 L9.22,5.36 L1,5.36 L1,8.24 L5.5,8.24 L5.5,38.12 L1,38.12 L1,41 Z M43.6,27.92 C43.6,34.7 48.22,38.36 53.32,38.36 C57.04,38.36 59.62,37.46 62.26,35.48 L62.26,39.08 C59.92,40.82 56.56,41.6 53.32,41.6 C45.76,41.6 40,36.44 40,27.92 C40,20.6 44.74,15.02 51.1,14.3 L51.1,17.6 C46.78,18.2 43.6,21.86 43.6,27.92 Z M53.5,14.3 C59.5,14.72 63.4,18.62 63.4,25.64 L63.4,28.1 L45.88,28.1 L45.88,25.1 L59.8,25.1 C59.56,20.18 57.16,18.02 53.5,17.6 L53.5,14.3 Z M67.9,2.96 L71.8,2.96 L71.8,38.24 L67.9,38.24 L67.9,41 L79.36,41 L79.36,38.24 L75.4,38.24 L75.4,0.2 L67.9,0.2 L67.9,2.96 Z M84.28,17.6 L88.18,17.6 L88.18,38.24 L84.28,38.24 L84.28,41 L95.74,41 L95.74,38.24 L91.78,38.24 L91.78,14.84 L84.28,14.84 L84.28,17.6 Z M89.62,9.38 C91.12,9.38 92.32,8.12 92.32,6.68 C92.32,5.18 91.12,3.98 89.62,3.98 C88.18,3.98 86.92,5.18 86.92,6.68 C86.92,8.12 88.18,9.38 89.62,9.38 Z M100.3,27.98 C100.3,19.16 106.54,14.24 113.62,14.24 C114.28,14.24 114.94,14.3 115.6,14.36 L115.6,17.48 C114.94,17.36 114.28,17.3 113.62,17.3 C108.4,17.3 103.96,21.14 103.96,27.98 C103.96,34.46 108.34,38.48 113.68,38.48 C116.8,38.48 119.14,37.58 121.54,36.02 L121.54,39.62 C118.96,40.94 116.44,41.6 113.68,41.6 C106.18,41.6 100.3,36.5 100.3,27.98 Z M121.42,16.22 L121.42,22.34 L118,22.34 L118,14.84 C119.2,15.14 120.34,15.62 121.42,16.22 Z M126.94,17.6 L130.84,17.6 L130.84,38.24 L126.94,38.24 L126.94,41 L138.4,41 L138.4,38.24 L134.44,38.24 L134.44,14.84 L126.94,14.84 L126.94,17.6 Z M132.28,9.38 C133.78,9.38 134.98,8.12 134.98,6.68 C134.98,5.18 133.78,3.98 132.28,3.98 C130.84,3.98 129.58,5.18 129.58,6.68 C129.58,8.12 130.84,9.38 132.28,9.38 Z M142.96,27.92 C142.96,35.6 147.76,41.06 154.9,41.6 L154.9,38.42 C149.98,37.88 146.62,33.8 146.62,27.92 C146.62,22.04 149.98,17.96 154.9,17.42 L154.9,14.24 C147.76,14.78 142.96,20.24 142.96,27.92 Z M169.48,27.92 C169.48,20.24 164.68,14.78 157.54,14.24 L157.54,17.42 C162.46,17.96 165.82,22.04 165.82,27.92 C165.82,33.8 162.46,37.88 157.54,38.42 L157.54,41.6 C164.68,41.06 169.48,35.6 169.48,27.92 Z M188.44,38.48 C189.46,38.48 190.6,38.48 191.8,38.42 L191.8,41.48 C190.66,41.54 189.64,41.6 188.68,41.6 C181.12,41.6 176.8,39.02 176.8,32.48 L176.8,17.6 L172.9,17.6 L172.9,14.84 L180.4,14.84 L180.4,32.3 C180.4,37.22 184.3,38.48 188.44,38.48 Z M201.22,36.74 L201.22,39.68 C199.12,40.46 196.6,40.94 194.2,41.24 L194.2,17.6 L190.3,17.6 L190.3,14.84 L197.8,14.84 L197.8,37.64 L201.22,36.74 Z M214.3,41.6 C213.46,41.6 212.38,41.48 211.66,41.3 L211.66,38.42 C212.44,38.6 213.46,38.72 214.3,38.72 C217.6,38.72 220,37.22 220,34.28 C220,31.22 217.42,30.38 213.22,29 C208.54,27.44 206.5,25.52 206.5,21.5 C206.5,17.24 210.04,14.24 214.96,14.24 C215.56,14.24 216.28,14.3 216.88,14.42 L216.88,17.36 C216.28,17.18 215.5,17.12 214.96,17.12 C211.96,17.12 209.92,18.8 209.92,21.38 C209.92,23.9 211.48,24.98 215.62,26.24 C220.3,27.62 223.42,29.36 223.42,34.04 C223.42,39.14 219.28,41.6 214.3,41.6 Z M222.16,21.62 L218.92,21.62 L218.92,14.78 C220.12,15.08 221.2,15.56 222.16,16.16 L222.16,21.62 Z M206.32,39.14 L206.32,33.62 L209.62,33.62 L209.62,40.88 C208.3,40.4 207.16,39.8 206.32,39.14 Z M229.96,36.2 C229.96,41 228.22,45.44 225.34,48.44 L228.22,48.44 C231.34,46.4 234.16,41.18 234.16,36.2 L229.96,36.2 Z M22.78,97.24 L22.78,83.08 C22.78,78.1 19.48,76.42 15.4,76.42 C13.84,76.42 12.22,76.54 10.78,76.72 L10.78,73.6 C12.34,73.36 13.9,73.24 15.4,73.24 C22.3,73.24 26.38,75.82 26.38,82.36 L26.38,97.24 L30.28,97.24 L30.28,100 L18.88,100 L18.88,97.24 L22.78,97.24 Z M0.88,76.42 C3.04,75.46 5.68,74.62 8.38,74.08 L8.38,97.24 L12.28,97.24 L12.28,100 L0.88,100 L0.88,97.24 L4.78,97.24 L4.78,78.16 L0.88,79.48 L0.88,76.42 Z M48.52,97.48 C49.54,97.48 50.68,97.48 51.88,97.42 L51.88,100.48 C50.74,100.54 49.72,100.6 48.76,100.6 C41.2,100.6 36.88,98.02 36.88,91.48 L36.88,76.6 L32.98,76.6 L32.98,73.84 L40.48,73.84 L40.48,91.3 C40.48,96.22 44.38,97.48 48.52,97.48 Z M61.3,95.74 L61.3,98.68 C59.2,99.46 56.68,99.94 54.28,100.24 L54.28,76.6 L50.38,76.6 L50.38,73.84 L57.88,73.84 L57.88,96.64 L61.3,95.74 Z M64.78,76.6 L64.78,73.84 L68.8,73.84 L68.8,67.48 L72.4,67.48 L72.4,92.8 C72.4,96.16 73.72,97.48 76.18,97.48 C77.86,97.48 79.24,96.94 81.04,96.04 L81.04,99.28 C79.48,100.06 77.68,100.6 75.4,100.6 C71.62,100.6 68.8,98.62 68.8,93.22 L68.8,76.6 L64.78,76.6 Z M80.38,76.6 L74.8,76.6 L74.8,73.84 L80.38,73.84 L80.38,76.6 Z M85.72,79.72 L85.72,76.66 C87.82,75.76 90.46,74.86 93.22,74.32 L93.22,97.24 L98.32,97.24 L98.32,100 L85.72,100 L85.72,97.24 L89.62,97.24 L89.62,78.4 L85.72,79.72 Z M99.04,76.84 C98.02,76.84 96.82,76.96 95.62,77.14 L95.62,73.9 C96.76,73.72 97.9,73.66 99.04,73.66 C100.66,73.66 101.92,73.78 103,74.08 L103,77.32 C101.8,76.96 100.72,76.84 99.04,76.84 Z M107.2,76.6 L111.1,76.6 L111.1,97.24 L107.2,97.24 L107.2,100 L118.66,100 L118.66,97.24 L114.7,97.24 L114.7,73.84 L107.2,73.84 L107.2,76.6 Z M112.54,68.38 C114.04,68.38 115.24,67.12 115.24,65.68 C115.24,64.18 114.04,62.98 112.54,62.98 C111.1,62.98 109.84,64.18 109.84,65.68 C109.84,67.12 111.1,68.38 112.54,68.38 Z M121.6,76.6 L121.6,73.84 L125.62,73.84 L125.62,67.48 L129.22,67.48 L129.22,92.8 C129.22,96.16 130.54,97.48 133,97.48 C134.68,97.48 136.06,96.94 137.86,96.04 L137.86,99.28 C136.3,100.06 134.5,100.6 132.22,100.6 C128.44,100.6 125.62,98.62 125.62,93.22 L125.62,76.6 L121.6,76.6 Z M137.2,76.6 L131.62,76.6 L131.62,73.84 L137.2,73.84 L137.2,76.6 Z M142.54,76.6 L146.44,76.6 L146.44,97.24 L142.54,97.24 L142.54,100 L154,100 L154,97.24 L150.04,97.24 L150.04,73.84 L142.54,73.84 L142.54,76.6 Z M147.88,68.38 C149.38,68.38 150.58,67.12 150.58,65.68 C150.58,64.18 149.38,62.98 147.88,62.98 C146.44,62.98 145.18,64.18 145.18,65.68 C145.18,67.12 146.44,68.38 147.88,68.38 Z M158.56,86.92 C158.56,94.6 163.36,100.06 170.5,100.6 L170.5,97.42 C165.58,96.88 162.22,92.8 162.22,86.92 C162.22,81.04 165.58,76.96 170.5,76.42 L170.5,73.24 C163.36,73.78 158.56,79.24 158.56,86.92 Z M185.08,86.92 C185.08,79.24 180.28,73.78 173.14,73.24 L173.14,76.42 C178.06,76.96 181.42,81.04 181.42,86.92 C181.42,92.8 178.06,96.88 173.14,97.42 L173.14,100.6 C180.28,100.06 185.08,94.6 185.08,86.92 Z M204.04,97.48 C205.06,97.48 206.2,97.48 207.4,97.42 L207.4,100.48 C206.26,100.54 205.24,100.6 204.28,100.6 C196.72,100.6 192.4,98.02 192.4,91.48 L192.4,76.6 L188.5,76.6 L188.5,73.84 L196,73.84 L196,91.3 C196,96.22 199.9,97.48 204.04,97.48 Z M216.82,95.74 L216.82,98.68 C214.72,99.46 212.2,99.94 209.8,100.24 L209.8,76.6 L205.9,76.6 L205.9,73.84 L213.4,73.84 L213.4,96.64 L216.82,95.74 Z M229.9,100.6 C229.06,100.6 227.98,100.48 227.26,100.3 L227.26,97.42 C228.04,97.6 229.06,97.72 229.9,97.72 C233.2,97.72 235.6,96.22 235.6,93.28 C235.6,90.22 233.02,89.38 228.82,88 C224.14,86.44 222.1,84.52 222.1,80.5 C222.1,76.24 225.64,73.24 230.56,73.24 C231.16,73.24 231.88,73.3 232.48,73.42 L232.48,76.36 C231.88,76.18 231.1,76.12 230.56,76.12 C227.56,76.12 225.52,77.8 225.52,80.38 C225.52,82.9 227.08,83.98 231.22,85.24 C235.9,86.62 239.02,88.36 239.02,93.04 C239.02,98.14 234.88,100.6 229.9,100.6 Z M237.76,80.62 L234.52,80.62 L234.52,73.78 C235.72,74.08 236.8,74.56 237.76,75.16 L237.76,80.62 Z M221.92,98.14 L221.92,92.62 L225.22,92.62 L225.22,99.88 C223.9,99.4 222.76,98.8 221.92,98.14 Z M9.52,136.08 L31.24,159 L26.92,159 L7.06,138.3 C5.56,136.8 3.46,134.1 3.52,130.74 C3.52,126.54 6.1,123.3 10.6,122.76 L10.6,125.88 C8.32,126.42 7.06,128.46 7.06,130.74 C7.06,132.6 7.78,134.28 9.52,136.08 Z M11.26,156.66 C14.62,156.66 16.96,155.4 18.94,153.6 L21.1,155.76 C18.58,158.1 15.4,159.6 11.26,159.6 C4.72,159.6 0.22,156.06 0.22,150.3 C0.22,146.1 2.5,143.52 6.7,140.82 L8.8,143.04 C5.56,145.02 3.7,147 3.7,150.3 C3.7,153.96 6.7,156.66 11.26,156.66 Z M20.68,130.74 C20.68,134.76 18.4,137.1 15.28,139.14 L13.24,136.98 C15.52,135.54 17.14,133.98 17.14,130.74 C17.14,128.28 15.58,126.3 13,125.88 L13,122.76 C17.98,123.18 20.68,126.42 20.68,130.74 Z M23.74,140.82 L30.58,140.82 L30.58,143.88 L26.56,143.88 C26.32,146.04 25.96,147.84 25.12,149.76 L22.84,147.3 C23.44,145.26 23.68,143.16 23.74,140.82 Z M73.48,154.98 L73.48,157.86 C71.44,158.7 68.86,159.06 66.46,159.3 L66.46,120.96 L62.56,120.96 L62.56,118.2 L70.06,118.2 L70.06,155.88 L73.48,154.98 Z M50.02,145.92 C50.02,152.58 54.64,156.48 61.54,156.48 C62.38,156.48 63.22,156.48 64.06,156.42 L64.06,159.54 C63.1,159.6 62.2,159.6 61.54,159.6 C52.48,159.6 46.36,154.68 46.36,145.92 C46.36,137.1 52.96,132.24 60.76,132.24 C61.78,132.24 62.98,132.36 64.06,132.6 L64.06,135.84 C63.1,135.6 61.96,135.48 60.76,135.48 C54.7,135.48 50.02,139.2 50.02,145.92 Z M82.18,145.92 C82.18,152.7 86.8,156.36 91.9,156.36 C95.62,156.36 98.2,155.46 100.84,153.48 L100.84,157.08 C98.5,158.82 95.14,159.6 91.9,159.6 C84.34,159.6 78.58,154.44 78.58,145.92 C78.58,138.6 83.32,133.02 89.68,132.3 L89.68,135.6 C85.36,136.2 82.18,139.86 82.18,145.92 Z M92.08,132.3 C98.08,132.72 101.98,136.62 101.98,143.64 L101.98,146.1 L84.46,146.1 L84.46,143.1 L98.38,143.1 C98.14,138.18 95.74,136.02 92.08,135.6 L92.08,132.3 Z M106.48,120.96 L110.38,120.96 L110.38,156.24 L106.48,156.24 L106.48,159 L117.94,159 L117.94,156.24 L113.98,156.24 L113.98,118.2 L106.48,118.2 L106.48,120.96 Z M122.86,135.6 L126.76,135.6 L126.76,156.24 L122.86,156.24 L122.86,159 L134.32,159 L134.32,156.24 L130.36,156.24 L130.36,132.84 L122.86,132.84 L122.86,135.6 Z M128.2,127.38 C129.7,127.38 130.9,126.12 130.9,124.68 C130.9,123.18 129.7,121.98 128.2,121.98 C126.76,121.98 125.5,123.18 125.5,124.68 C125.5,126.12 126.76,127.38 128.2,127.38 Z M152.86,159 L149.32,159 L139.24,135.6 L136.66,135.6 L136.66,132.84 L147.16,132.84 L147.16,135.6 L143.02,135.6 L152.86,159 Z M154.06,156.36 L152.5,152.4 L159.16,135.6 L154.84,135.6 L154.84,132.84 L165.34,132.84 L165.34,135.6 L162.76,135.6 L154.06,156.36 Z M171.76,145.92 C171.76,152.7 176.38,156.36 181.48,156.36 C185.2,156.36 187.78,155.46 190.42,153.48 L190.42,157.08 C188.08,158.82 184.72,159.6 181.48,159.6 C173.92,159.6 168.16,154.44 168.16,145.92 C168.16,138.6 172.9,133.02 179.26,132.3 L179.26,135.6 C174.94,136.2 171.76,139.86 171.76,145.92 Z M181.66,132.3 C187.66,132.72 191.56,136.62 191.56,143.64 L191.56,146.1 L174.04,146.1 L174.04,143.1 L187.96,143.1 C187.72,138.18 185.32,136.02 181.66,135.6 L181.66,132.3 Z M196.96,138.72 L196.96,135.66 C199.06,134.76 201.7,133.86 204.46,133.32 L204.46,156.24 L209.56,156.24 L209.56,159 L196.96,159 L196.96,156.24 L200.86,156.24 L200.86,137.4 L196.96,138.72 Z M210.28,135.84 C209.26,135.84 208.06,135.96 206.86,136.14 L206.86,132.9 C208,132.72 209.14,132.66 210.28,132.66 C211.9,132.66 213.16,132.78 214.24,133.08 L214.24,136.32 C213.04,135.96 211.96,135.84 210.28,135.84 Z M220.78,145.92 C220.78,152.7 225.4,156.36 230.5,156.36 C234.22,156.36 236.8,155.46 239.44,153.48 L239.44,157.08 C237.1,158.82 233.74,159.6 230.5,159.6 C222.94,159.6 217.18,154.44 217.18,145.92 C217.18,138.6 221.92,133.02 228.28,132.3 L228.28,135.6 C223.96,136.2 220.78,139.86 220.78,145.92 Z M230.68,132.3 C236.68,132.72 240.58,136.62 240.58,143.64 L240.58,146.1 L223.06,146.1 L223.06,143.1 L236.98,143.1 C236.74,138.18 234.34,136.02 230.68,135.6 L230.68,132.3 Z M273.04,154.98 L273.04,157.86 C271,158.7 268.42,159.06 266.02,159.3 L266.02,120.96 L262.12,120.96 L262.12,118.2 L269.62,118.2 L269.62,155.88 L273.04,154.98 Z M249.58,145.92 C249.58,152.58 254.2,156.48 261.1,156.48 C261.94,156.48 262.78,156.48 263.62,156.42 L263.62,159.54 C262.66,159.6 261.76,159.6 261.1,159.6 C252.04,159.6 245.92,154.68 245.92,145.92 C245.92,137.1 252.52,132.24 260.32,132.24 C261.34,132.24 262.54,132.36 263.62,132.6 L263.62,135.84 C262.66,135.6 261.52,135.48 260.32,135.48 C254.26,135.48 249.58,139.2 249.58,145.92 Z" id="Delicious,-nutritiou" fill="#00FF00"></path>
    </g>
</svg>