<?xml version="1.0" encoding="UTF-8" standalone="no"?>
<svg width="36px" height="25px" viewBox="0 0 36 25" version="1.1" xmlns="http://www.w3.org/2000/svg" xmlns:xlink="http://www.w3.org/1999/xlink">
    <!-- Generator: Sketch 42 (36781) - http://www.bohemiancoding.com/sketch -->
    <title>Combined Shape</title>
    <desc>Created with Sketch.</desc>
    <defs></defs>
    <g id="Page-1" stroke="none" stroke-width="1" fill="none" fill-rule="evenodd">
        <g id="Desktop-HD" transform="translate(-1109.000000, -33.000000)" fill-rule="nonzero" fill="#FFFFFF">
            <g id="menu" transform="translate(1109.000000, 33.000000)">
                <path d="M34.1911765,2.20588235 L1.10294118,2.20588235 C0.494117647,2.20588235 0,1.71176471 0,1.10294118 C0,0.494117647 0.494117647,0 1.10294118,0 L34.1911765,0 C34.8,0 35.2941176,0.494117647 35.2941176,1.10294118 C35.2941176,1.71176471 34.8,2.20588235 34.1911765,2.20588235 Z M34.1911765,13.2352941 L1.10294118,13.2352941 C0.494117647,13.2352941 0,12.7411765 0,12.1323529 C0,11.5235294 0.494117647,11.0294118 1.10294118,11.0294118 L34.1911765,11.0294118 C34.8,11.0294118 35.2941176,11.5235294 35.2941176,12.1323529 C35.2941176,12.7411765 34.8,13.2352941 34.1911765,13.2352941 Z M34.1911765,24.2647059 L1.10294118,24.2647059 C0.494117647,24.2647059 0,23.7705882 0,23.1617647 C0,22.5529412 0.494117647,22.0588235 1.10294118,22.0588235 L34.1911765,22.0588235 C34.8,22.0588235 35.2941176,22.5529412 35.2941176,23.1617647 C35.2941176,23.7705882 34.8,24.2647059 34.1911765,24.2647059 Z" id="Combined-Shape"></path>
            </g>
        </g>
    </g>
</svg>