<?xml version="1.0" encoding="UTF-8" standalone="no"?>
<svg width="102px" height="102px" viewBox="0 0 102 102" version="1.1" xmlns="http://www.w3.org/2000/svg" xmlns:xlink="http://www.w3.org/1999/xlink">
    <!-- Generator: Sketch 42 (36781) - http://www.bohemiancoding.com/sketch -->
    <title>foodslice</title>
    <desc>Created with Sketch.</desc>
    <defs></defs>
    <g id="Page-1" stroke="none" stroke-width="1" fill="none" fill-rule="evenodd">
        <g id="Artboard" transform="translate(-301.000000, -736.000000)" fill-rule="nonzero" fill="#00FF00">
            <path d="M402.742105,786.966397 C402.742105,815.008923 380.008947,837.7417 351.966397,837.7417 C323.923506,837.7417 301.190283,815.008987 301.190283,786.966397 C301.190283,758.923656 323.923656,736.190283 351.966397,736.190283 C380.008796,736.190283 402.742105,758.92372 402.742105,786.966397 Z M401.122672,786.966397 C401.122672,759.818106 379.114406,737.809717 351.966397,737.809717 C324.818044,737.809717 302.809717,759.818044 302.809717,786.966397 C302.809717,814.114591 324.817886,836.122267 351.966397,836.122267 C379.114564,836.122267 401.122672,814.114529 401.122672,786.966397 Z M392.74915,786.966397 C392.74915,809.490109 374.490271,827.748988 351.966559,827.748988 C329.442505,827.748988 311.183563,809.490173 311.183563,786.966397 C311.183563,764.442621 329.442505,746.183806 351.966559,746.183806 C374.490271,746.183806 392.74915,764.442684 392.74915,786.966397 Z M391.129717,786.966397 C391.129717,765.337073 373.595883,747.803239 351.966559,747.803239 C330.336891,747.803239 312.802996,765.337011 312.802996,786.966397 C312.802996,808.595782 330.336891,826.129555 351.966559,826.129555 C373.595883,826.129555 391.129717,808.595721 391.129717,786.966397 Z M338.595494,788.492963 C339.36964,788.028426 340.066625,787.530525 340.67371,787.033762 C340.710763,787.003443 340.746611,786.973861 340.781242,786.945055 C335.712529,782.288005 330.419642,782.406917 325.364323,785.440035 C324.590134,785.904536 323.893105,786.4024 323.285977,786.899125 C323.248937,786.92943 323.213099,786.958998 323.178478,786.987791 C328.247533,791.645248 333.540366,791.526358 338.595494,788.492963 Z M321.414176,786.393829 C321.571239,786.236772 321.856995,785.975874 322.260511,785.645736 C322.925697,785.101511 323.68604,784.558425 324.531146,784.051373 C330.372322,780.546753 336.696189,780.546177 342.543002,786.391331 C342.861713,786.710055 342.861723,787.222703 342.545546,787.538918 C342.388494,787.695989 342.102758,787.95691 341.699266,788.287077 C341.034122,788.831348 340.273819,789.374481 339.42875,789.881576 C333.586895,793.387059 327.262034,793.387059 321.414153,787.538941 C321.097945,787.222721 321.097956,786.710037 321.414176,786.393829 Z M338.195561,777.409317 C339.662726,778.142805 341.242927,778.6168 342.824497,778.880351 C343.268818,778.954392 343.68706,779.007143 344.07195,779.042018 C343.84057,773.671723 341.416161,770.231191 337.471357,768.258732 C336.004122,767.525094 334.423846,767.050997 332.842214,766.787384 C332.397952,766.713339 331.979771,766.660582 331.594938,766.625698 C331.825866,771.996359 334.250342,775.436961 338.195561,777.409317 Z M330.767085,764.958138 C330.89616,764.958138 331.122345,764.965677 331.432045,764.987799 C331.939535,765.02405 332.502847,765.089049 333.108454,765.189987 C334.839196,765.478452 336.571293,765.998096 338.195606,766.810276 C342.877028,769.151053 345.709223,773.399143 345.709595,779.899792 C345.709621,780.346995 345.347105,780.709542 344.899894,780.709555 C344.762994,780.709299 344.544483,780.702019 344.234737,780.6799 C343.727228,780.643659 343.16391,780.578674 342.558307,780.477757 C340.827642,780.189362 339.095634,779.66983 337.471403,778.857819 C332.789483,776.517161 329.957182,772.268933 329.957368,765.767831 C329.957381,765.320646 330.3199,764.958138 330.767085,764.958138 Z M361.523352,773.195557 C360.789913,774.662645 360.315953,776.242763 360.052428,777.824262 C359.978375,778.268676 359.925622,778.687005 359.890749,779.071975 C365.260947,778.840746 368.701386,776.41632 370.673772,772.471378 C371.40736,771.004139 371.881424,769.423859 372.145019,767.842223 C372.219058,767.397968 372.271811,766.979792 372.306692,766.594963 C366.936113,766.826041 363.495605,769.250487 361.523352,773.195557 Z M373.974251,765.767085 C373.974251,765.896159 373.966712,766.122343 373.944592,766.432041 C373.908344,766.939529 373.843349,767.50284 373.742419,768.108445 C373.453976,769.839182 372.93437,771.571276 372.12225,773.195586 C369.781557,777.877173 365.533548,780.709409 359.032979,780.709595 C358.585794,780.709608 358.223264,780.34711 358.223239,779.89991 C358.223494,779.762872 358.230772,779.544342 358.252891,779.234547 C358.289127,778.727016 358.354108,778.163688 358.455019,777.558086 C358.743388,775.82749 359.262884,774.095563 360.074846,772.471407 C362.415393,767.789641 366.663519,764.957368 373.164534,764.957368 C373.611729,764.957368 373.974251,765.319891 373.974251,765.767085 Z M350.439619,773.59564 C350.904201,774.369852 351.402152,775.0669 351.898964,775.674042 C351.929294,775.711107 351.958886,775.746967 351.987702,775.78161 C356.644269,770.712791 356.525207,765.419854 353.492069,760.364487 C353.027541,759.590253 352.529649,758.893183 352.032896,758.28602 C352.002583,758.248969 351.973007,758.213122 351.944207,758.178493 C347.287042,763.247482 347.406098,768.540372 350.439619,773.59564 Z M353.286286,757.260555 C353.830539,757.925776 354.373653,758.686159 354.880731,759.531312 C358.385624,765.372958 358.386104,771.697343 352.540237,777.544632 C352.222779,777.862116 351.710104,777.862141 351.393875,777.545951 C351.236792,777.388886 350.975849,777.103126 350.645653,776.699602 C350.101332,776.034402 349.55815,775.274038 349.05101,774.428904 C345.545394,768.586906 345.545202,762.261993 351.393031,756.414165 C351.709249,756.097946 352.221943,756.097951 352.538155,756.414176 C352.695219,756.571247 352.95613,756.857018 353.286286,757.260555 Z M365.336832,785.439722 C364.562592,785.904287 363.865519,786.402219 363.258353,786.899012 C363.221289,786.929338 363.185429,786.958927 363.150788,786.98774 C368.219792,791.644722 373.512821,791.52567 378.568269,788.492262 C379.342509,788.027697 380.039583,787.529765 380.646748,787.032972 C380.683812,787.002645 380.719672,786.973057 380.754314,786.944244 C375.68531,782.287262 370.392281,782.406313 365.336832,785.439722 Z M382.518641,787.538132 C382.36157,787.695209 382.075799,787.956141 381.672261,788.286323 C381.007037,788.83062 380.246649,789.373778 379.401489,789.880898 C373.559319,793.38636 367.234309,793.386552 361.386484,787.538964 C361.070263,787.222757 361.070253,786.710073 361.386461,786.393852 C361.543531,786.236775 361.829302,785.975843 362.23284,785.645661 C362.898064,785.101364 363.658452,784.558205 364.503612,784.051086 C370.345782,780.545624 376.670793,780.545431 382.518617,786.393019 C382.834838,786.709227 382.834848,787.221911 382.518641,787.538132 Z M365.736807,796.523148 C364.269645,795.789609 362.689448,795.31558 361.107883,795.052011 C360.663554,794.977964 360.245307,794.925209 359.860412,794.890331 C360.091636,800.260879 362.516074,803.701539 366.461027,805.674044 C367.928263,806.407672 369.50854,806.881762 371.090173,807.145371 C371.534426,807.219415 371.9526,807.27217 372.337427,807.307054 C372.106354,801.93628 369.681895,798.495578 365.736807,796.523148 Z M373.165304,808.974615 C373.036229,808.974615 372.810044,808.967076 372.500344,808.944954 C371.992855,808.908704 371.429543,808.843706 370.823936,808.74277 C369.093195,808.454309 367.361099,807.934673 365.736786,807.122505 C361.055204,804.78168 358.22298,800.533445 358.222794,794.032533 C358.222781,793.585339 358.585293,793.222806 359.032494,793.222794 C359.169396,793.223049 359.387909,793.23033 359.697656,793.25245 C360.205166,793.288694 360.768487,793.353684 361.374091,793.454608 C363.10476,793.743025 364.836772,794.262595 366.461007,795.074666 C371.14276,797.415409 373.97502,801.663718 373.97502,808.164899 C373.97502,808.612093 373.612498,808.974615 373.165304,808.974615 Z M353.49277,800.337154 C353.028187,799.562941 352.530237,798.865894 352.033424,798.258752 C352.003091,798.221681 351.973495,798.185816 351.944675,798.151169 C347.287898,803.219992 347.40696,808.512925 350.440223,813.568294 C350.904769,814.342528 351.402681,815.039598 351.899454,815.646761 C351.929776,815.683821 351.95936,815.719677 351.988169,815.754315 C356.645347,810.685321 356.526294,805.392426 353.49277,800.337154 Z M351.394246,817.518629 C351.237175,817.361558 350.976254,817.075788 350.646085,816.672251 C350.10181,816.00703 349.558673,815.246647 349.051575,814.401494 C345.546537,808.559842 345.546056,802.235441 351.392163,796.38815 C351.709623,796.070677 352.222289,796.070657 352.538513,796.386842 C352.695597,796.543907 352.95654,796.829667 353.286736,797.233192 C353.831056,797.898392 354.374238,798.658755 354.881379,799.50389 C358.386994,805.345887 358.387186,811.6708 352.539358,817.518629 C352.223144,817.834843 351.71046,817.834843 351.394246,817.518629 Z M342.409089,800.73701 C343.142689,799.269726 343.61676,797.689398 343.880359,796.107713 C343.9544,795.663444 344.007154,795.245255 344.042036,794.860414 C338.671506,795.09165 335.230853,797.516156 333.258349,801.461221 C332.524719,802.928503 332.050628,804.508829 331.787018,806.090511 C331.712973,806.534788 331.660216,806.952984 331.625333,807.33783 C336.995932,807.106744 340.436599,804.682216 342.409089,800.73701 Z M329.957773,808.165709 C329.957773,808.036631 329.965313,807.810441 329.987434,807.500734 C330.023684,806.993231 330.088682,806.429904 330.189618,805.824282 C330.478078,804.093495 330.997714,802.361353 331.80988,800.736997 C334.150702,796.055286 338.398938,793.22298 344.899855,793.222794 C345.347059,793.222781 345.709595,793.585307 345.709595,794.03251 C345.709595,794.161587 345.702056,794.387776 345.679935,794.697483 C345.643687,795.204984 345.578692,795.76831 345.477761,796.373932 C345.189313,798.104716 344.669701,799.836855 343.857571,801.461209 C341.516767,806.143085 337.2685,808.975425 330.76749,808.975425 C330.320296,808.975425 329.957773,808.612903 329.957773,808.165709 Z" id="foodslice"></path>
        </g>
    </g>
</svg>