<?xml version="1.0" encoding="UTF-8" standalone="no"?>
<svg width="643px" height="178px" viewBox="0 0 643 178" version="1.1" xmlns="http://www.w3.org/2000/svg" xmlns:xlink="http://www.w3.org/1999/xlink">
    <!-- Generator: Sketch 42 (36781) - http://www.bohemiancoding.com/sketch -->
    <title>From an expert, not</title>
    <desc>Created with Sketch.</desc>
    <defs></defs>
    <g id="Page-1" stroke="none" stroke-width="1" fill="none" fill-rule="evenodd">
        <path d="M24.9,55.2 L24.9,60 L1,60 L1,55.2 L8.5,55.2 L8.5,5.4 L1,5.4 L1,0.6 L14.7,0.6 L14.7,55.2 L24.9,55.2 Z M37.9,5.4 L18.7,5.4 L18.7,0.6 L43.3,0.6 L43.3,15 L37.9,15 L37.9,5.4 Z M34.5,33.1 L18.7,33.1 L18.7,28.2 L34.5,28.2 L34.5,33.1 Z M50.1,26.2 L50.1,21.1 C53.6,19.6 58,18.1 62.6,17.2 L62.6,55.4 L71.1,55.4 L71.1,60 L50.1,60 L50.1,55.4 L56.6,55.4 L56.6,24 L50.1,26.2 Z M72.3,21.4 C70.6,21.4 68.6,21.6 66.6,21.9 L66.6,16.5 C68.5,16.2 70.4,16.1 72.3,16.1 C75,16.1 77.1,16.3 78.9,16.8 L78.9,22.2 C76.9,21.6 75.1,21.4 72.3,21.4 Z M83.8,38.2 C83.8,51 91.8,60.1 103.7,61 L103.7,55.7 C95.5,54.8 89.9,48 89.9,38.2 C89.9,28.4 95.5,21.6 103.7,20.7 L103.7,15.4 C91.8,16.3 83.8,25.4 83.8,38.2 Z M128,38.2 C128,25.4 120,16.3 108.1,15.4 L108.1,20.7 C116.3,21.6 121.9,28.4 121.9,38.2 C121.9,48 116.3,54.8 108.1,55.7 L108.1,61 C120,60.1 128,51 128,38.2 Z M160.4,15.4 C168.5,15.4 177.3,17.3 177.3,30.5 L177.3,55.4 L183.8,55.4 L183.8,60 L164.8,60 L164.8,55.4 L171.3,55.4 L171.3,30.7 C171.3,23.2 166.7,20.7 160.4,20.7 C157.8,20.7 155.5,20.9 153.5,21.2 L153.5,16 C155.9,15.6 158.3,15.4 160.4,15.4 Z M180.2,22.6 L178,18.3 C181.2,16.5 185.2,15.4 189.8,15.4 C199.3,15.4 205,19.9 205,30.6 L205,55.4 L211.5,55.4 L211.5,60 L192.5,60 L192.5,55.4 L199,55.4 L199,30.7 C199,22.8 193.5,20.7 188.8,20.7 C185.6,20.7 182.6,21.3 180.2,22.6 Z M137,20.7 C140.6,19.1 145.1,17.7 149.5,16.7 L149.5,55.4 L156,55.4 L156,60 L137,60 L137,55.4 L143.5,55.4 L143.5,23.6 L137,25.8 L137,20.7 Z M263.7,60.3 L263.7,29.5 C263.7,23.9 260,21 254.4,21 C249.4,21 245.6,22.4 241.6,24.5 L241.6,18.8 C245.3,16.8 250,15.4 255.1,15.4 C263.9,15.4 269.6,19.3 269.6,29.1 L269.6,54.5 L275.3,53 L275.3,57.9 C272.4,59 267.9,59.9 263.7,60.3 Z M243.5,47.9 C243.5,53.7 249.5,55.9 257.5,55.9 L259.7,55.9 L259.7,60.7 C258.9,60.8 258.2,60.8 257.5,60.8 C245.4,60.8 237.5,57.1 237.5,47.9 C237.5,39.3 245.4,34.8 258.7,34.8 L259.7,34.8 L259.7,39.7 L259.1,39.7 C250.1,39.7 243.5,42.1 243.5,47.9 Z M319.6,55.4 L319.6,31.8 C319.6,23.5 314.1,20.7 307.3,20.7 C304.7,20.7 302,20.9 299.6,21.2 L299.6,16 C302.2,15.6 304.8,15.4 307.3,15.4 C318.8,15.4 325.6,19.7 325.6,30.6 L325.6,55.4 L332.1,55.4 L332.1,60 L313.1,60 L313.1,55.4 L319.6,55.4 Z M283.1,20.7 C286.7,19.1 291.1,17.7 295.6,16.8 L295.6,55.4 L302.1,55.4 L302.1,60 L283.1,60 L283.1,55.4 L289.6,55.4 L289.6,23.6 L283.1,25.8 L283.1,20.7 Z M368,37.4 C368,47.1 374.2,50.9 381.9,50.9 C388,50.9 392.5,49.5 397,46.9 L397,56.9 C392.8,59.8 386.7,61 380.7,61 C366.1,61 356.8,52.1 356.8,38.2 C356.8,24.8 365.2,15.4 376.9,14.4 L376.9,24.3 C371.5,25.2 368,30.1 368,37.4 Z M380.2,14.4 C392.4,14.9 398.4,23.9 398.4,35.4 L398.4,41.4 L371.5,41.4 L371.5,33.4 L387.7,33.4 C387.5,28.2 385,25 380.2,24.3 L380.2,14.4 Z M435.8,35.7 L430.3,30.3 L435,24.8 L430.7,24.8 L430.7,15.4 L449.3,15.4 L449.3,24.8 L445.1,24.8 L435.8,35.7 Z M445.6,50.6 L449.8,50.6 L449.8,60 L427.6,60 L427.6,50.6 L432.1,50.6 L407,24.8 L402.9,24.8 L402.9,15.4 L425.5,15.4 L425.5,24.8 L421.4,24.8 L445.6,50.6 Z M416.2,38.9 L422.1,44.7 L417.3,50.6 L421.7,50.6 L421.7,60 L402.4,60 L402.4,50.6 L406.6,50.6 L416.2,38.9 Z M453.3,28.7 L453.3,19 C457.6,17.4 464,15.7 470.3,15 L470.3,68.6 L475.6,68.6 L475.6,78 L453.3,78 L453.3,68.6 L458.6,68.6 L458.6,27.4 L453.3,28.7 Z M490.4,37.3 C490.4,29.4 485.3,25 477.3,25 C476.2,25 474.9,25.1 473.7,25.2 L473.7,14.6 C474.9,14.4 476.1,14.4 477.3,14.4 C492.5,14.4 502.3,22.4 502.3,36.9 C502.3,52.3 493,61 477.6,61 C476.2,61 474.8,60.9 473.7,60.8 L473.7,50.6 C474.6,50.8 475.6,50.8 476.8,50.8 C484.6,50.8 490.4,46.6 490.4,37.3 Z M519.4,37.4 C519.4,47.1 525.6,50.9 533.3,50.9 C539.4,50.9 543.9,49.5 548.4,46.9 L548.4,56.9 C544.2,59.8 538.1,61 532.1,61 C517.5,61 508.2,52.1 508.2,38.2 C508.2,24.8 516.6,15.4 528.3,14.4 L528.3,24.3 C522.9,25.2 519.4,30.1 519.4,37.4 Z M531.6,14.4 C543.8,14.9 549.8,23.9 549.8,35.4 L549.8,41.4 L522.9,41.4 L522.9,33.4 L539.1,33.4 C538.9,28.2 536.4,25 531.6,24.3 L531.6,14.4 Z M556.3,28.8 L556.3,19.1 C560.6,17.4 567.5,15.8 573.4,15.2 L573.4,50.6 L581.1,50.6 L581.1,60 L556.3,60 L556.3,50.6 L561.7,50.6 L561.7,27.5 L556.3,28.8 Z M579.7,25.2 C578.7,25.2 578,25.2 576.7,25.4 L576.7,14.9 C577.8,14.8 579.4,14.8 579.7,14.8 C582.3,14.8 585.6,15.2 588.1,15.9 L588.1,26.5 C585.5,25.5 582.7,25.2 579.7,25.2 Z M592,24.8 L592,15.4 L598.7,15.4 L598.7,4.5 L610.3,4.5 L610.3,43.5 C610.3,48.7 612.7,50.3 616.3,50.3 C619.4,50.3 621.9,49.4 624.5,47.8 L624.5,58.5 C621.4,60.2 617.6,61 613.2,61 C605.5,61 598.7,57.3 598.7,46.6 L598.7,24.8 L592,24.8 Z M624.1,24.8 L613.6,24.8 L613.6,15.4 L624.1,15.4 L624.1,24.8 Z M635.6,52 C635.6,60 632.7,67.4 627.9,72.4 L632.7,72.4 C637.9,69 642.6,60.3 642.6,52 L635.6,52 Z M37.3,154.4 L37.3,130.8 C37.3,122.5 31.8,119.7 25,119.7 C22.4,119.7 19.7,119.9 17.3,120.2 L17.3,115 C19.9,114.6 22.5,114.4 25,114.4 C36.5,114.4 43.3,118.7 43.3,129.6 L43.3,154.4 L49.8,154.4 L49.8,159 L30.8,159 L30.8,154.4 L37.3,154.4 Z M0.8,119.7 C4.4,118.1 8.8,116.7 13.3,115.8 L13.3,154.4 L19.8,154.4 L19.8,159 L0.8,159 L0.8,154.4 L7.3,154.4 L7.3,122.6 L0.8,124.8 L0.8,119.7 Z M57,137.2 C57,150 65,159.1 76.9,160 L76.9,154.7 C68.7,153.8 63.1,147 63.1,137.2 C63.1,127.4 68.7,120.6 76.9,119.7 L76.9,114.4 C65,115.3 57,124.4 57,137.2 Z M101.2,137.2 C101.2,124.4 93.2,115.3 81.3,114.4 L81.3,119.7 C89.5,120.6 95.1,127.4 95.1,137.2 C95.1,147 89.5,153.8 81.3,154.7 L81.3,160 C93.2,159.1 101.2,150 101.2,137.2 Z M106.9,120 L106.9,115.4 L113.6,115.4 L113.6,104.8 L119.6,104.8 L119.6,147 C119.6,152.6 121.8,154.8 125.9,154.8 C128.7,154.8 131,153.9 134,152.4 L134,157.8 C131.4,159.1 128.4,160 124.6,160 C118.3,160 113.6,156.7 113.6,147.7 L113.6,120 L106.9,120 Z M132.9,120 L123.6,120 L123.6,115.4 L132.9,115.4 L132.9,120 Z M160.2,129.3 C160.2,111 174.2,98.6 191.3,98.6 C193.7,98.6 196,98.8 198.3,99.4 L198.3,105.1 C196,104.5 193.6,104.2 191.2,104.2 C177.8,104.2 166.5,114 166.5,129.3 C166.5,144.9 177.5,154.6 190.8,154.6 C194.3,154.6 196.9,154.4 199.2,153.8 L199.2,159.2 C196.6,159.7 193.9,160 190.9,160 C173,160 160.2,147.8 160.2,129.3 Z M209.2,155.6 C207.4,156.7 205.4,157.6 203.2,158.3 L203.2,137 L194.7,137 L194.7,132.2 L215.9,132.2 L215.9,137 L209.2,137 L209.2,155.6 Z M202.3,115 L207.7,115 L207.7,103.1 C206,102.1 204.2,101.2 202.3,100.5 L202.3,115 Z M224.1,137.2 C224.1,150 232.1,159.1 244,160 L244,154.7 C235.8,153.8 230.2,147 230.2,137.2 C230.2,127.4 235.8,120.6 244,119.7 L244,114.4 C232.1,115.3 224.1,124.4 224.1,137.2 Z M268.3,137.2 C268.3,124.4 260.3,115.3 248.4,114.4 L248.4,119.7 C256.6,120.6 262.2,127.4 262.2,137.2 C262.2,147 256.6,153.8 248.4,154.7 L248.4,160 C260.3,159.1 268.3,150 268.3,137.2 Z M276.7,137.2 C276.7,150 284.7,159.1 296.6,160 L296.6,154.7 C288.4,153.8 282.8,147 282.8,137.2 C282.8,127.4 288.4,120.6 296.6,119.7 L296.6,114.4 C284.7,115.3 276.7,124.4 276.7,137.2 Z M320.9,137.2 C320.9,124.4 312.9,115.3 301,114.4 L301,119.7 C309.2,120.6 314.8,127.4 314.8,137.2 C314.8,147 309.2,153.8 301,154.7 L301,160 C312.9,159.1 320.9,150 320.9,137.2 Z M357.2,130 C357.2,135.7 353.8,139.5 348.3,140.1 L348.3,144.7 C357.4,144 363.1,137.8 363.1,130 C363.1,125.9 360.8,121.6 357.5,119.6 L367.7,119.6 L367.7,115 L348.3,115 L348.3,119.7 C353.8,120.3 357.2,124.1 357.2,130 Z M333.5,157.6 L337.1,160.1 C334.6,161.2 332.9,163.1 332.9,165.3 C332.9,170.2 338.2,173 345.6,173.2 L345.6,178 C334.9,177.8 327,173.6 327,165.9 C327,161.5 330.4,158.6 333.5,157.6 Z M336.5,146.1 L340.2,147.5 C338.3,149.6 339.3,151.8 341.9,152 L355.3,153.1 C364.6,153.8 369.3,157.4 369.3,164.5 C369.3,171.7 361.9,177.2 349.6,178 L349.6,173.2 C356.7,172.6 363.3,169.8 363.3,164.5 C363.3,160.6 359.8,158.8 354.6,158.4 L341.8,157.4 C337.2,157.1 333.8,154.9 333.8,150.9 C333.8,149 334.8,147.2 336.5,146.1 Z M344.3,139.9 C339.3,139 336.2,135.4 336.2,130 C336.2,124.4 339.3,120.7 344.3,119.8 L344.3,115.2 C335.7,116.1 330.3,122.2 330.3,130 C330.3,137.8 335.6,144 344.3,144.7 L344.3,139.9 Z M373.7,95.6 L380.2,95.6 L380.2,154.4 L373.7,154.4 L373.7,159 L392.8,159 L392.8,154.4 L386.2,154.4 L386.2,91 L373.7,91 L373.7,95.6 Z M406.4,137.2 C406.4,148.5 414.1,154.6 422.6,154.6 C428.8,154.6 433.1,153.1 437.5,149.8 L437.5,155.8 C433.6,158.7 428,160 422.6,160 C410,160 400.4,151.4 400.4,137.2 C400.4,125 408.3,115.7 418.9,114.5 L418.9,120 C411.7,121 406.4,127.1 406.4,137.2 Z M422.9,114.5 C432.9,115.2 439.4,121.7 439.4,133.4 L439.4,137.5 L410.2,137.5 L410.2,132.5 L433.4,132.5 C433,124.3 429,120.7 422.9,120 L422.9,114.5 Z" id="From-an-expert,-not" fill="#287572"></path>
    </g>
</svg>