<?xml version="1.0" encoding="UTF-8" standalone="no"?>
<svg width="405px" height="169px" viewBox="0 0 405 169" version="1.1" xmlns="http://www.w3.org/2000/svg" xmlns:xlink="http://www.w3.org/1999/xlink">
    <!-- Generator: Sketch 42 (36781) - http://www.bohemiancoding.com/sketch -->
    <title>Goodness - lots of i</title>
    <desc>Created with Sketch.</desc>
    <defs></defs>
    <g id="Page-1" stroke="none" stroke-width="1" fill="none" fill-rule="evenodd">
        <path d="M0.2,38.3 C0.2,20 14.2,7.6 31.3,7.6 C33.7,7.6 36,7.8 38.3,8.4 L38.3,14.1 C36,13.5 33.6,13.2 31.2,13.2 C17.8,13.2 6.5,23 6.5,38.3 C6.5,53.9 17.5,63.6 30.8,63.6 C34.3,63.6 36.9,63.4 39.2,62.8 L39.2,68.2 C36.6,68.7 33.9,69 30.9,69 C13,69 0.2,56.8 0.2,38.3 Z M49.2,64.6 C47.4,65.7 45.4,66.6 43.2,67.3 L43.2,46 L34.7,46 L34.7,41.2 L55.9,41.2 L55.9,46 L49.2,46 L49.2,64.6 Z M42.3,24 L47.7,24 L47.7,12.1 C46,11.1 44.2,10.2 42.3,9.5 L42.3,24 Z M64.1,46.2 C64.1,59 72.1,68.1 84,69 L84,63.7 C75.8,62.8 70.2,56 70.2,46.2 C70.2,36.4 75.8,29.6 84,28.7 L84,23.4 C72.1,24.3 64.1,33.4 64.1,46.2 Z M108.3,46.2 C108.3,33.4 100.3,24.3 88.4,23.4 L88.4,28.7 C96.6,29.6 102.2,36.4 102.2,46.2 C102.2,56 96.6,62.8 88.4,63.7 L88.4,69 C100.3,68.1 108.3,59 108.3,46.2 Z M116.7,46.2 C116.7,59 124.7,68.1 136.6,69 L136.6,63.7 C128.4,62.8 122.8,56 122.8,46.2 C122.8,36.4 128.4,29.6 136.6,28.7 L136.6,23.4 C124.7,24.3 116.7,33.4 116.7,46.2 Z M160.9,46.2 C160.9,33.4 152.9,24.3 141,23.4 L141,28.7 C149.2,29.6 154.8,36.4 154.8,46.2 C154.8,56 149.2,62.8 141,63.7 L141,69 C152.9,68.1 160.9,59 160.9,46.2 Z M214.5,61.3 L214.5,66.1 C211.1,67.5 206.8,68.1 202.8,68.5 L202.8,4.6 L196.3,4.6 L196.3,0 L208.8,0 L208.8,62.8 L214.5,61.3 Z M175.4,46.2 C175.4,57.3 183.1,63.8 194.6,63.8 C196,63.8 197.4,63.8 198.8,63.7 L198.8,68.9 C197.2,69 195.7,69 194.6,69 C179.5,69 169.3,60.8 169.3,46.2 C169.3,31.5 180.3,23.4 193.3,23.4 C195,23.4 197,23.6 198.8,24 L198.8,29.4 C197.2,29 195.3,28.8 193.3,28.8 C183.2,28.8 175.4,35 175.4,46.2 Z M260.1,63.4 L260.1,39.8 C260.1,31.5 254.6,28.7 247.8,28.7 C245.2,28.7 242.5,28.9 240.1,29.2 L240.1,24 C242.7,23.6 245.3,23.4 247.8,23.4 C259.3,23.4 266.1,27.7 266.1,38.6 L266.1,63.4 L272.6,63.4 L272.6,68 L253.6,68 L253.6,63.4 L260.1,63.4 Z M223.6,28.7 C227.2,27.1 231.6,25.7 236.1,24.8 L236.1,63.4 L242.6,63.4 L242.6,68 L223.6,68 L223.6,63.4 L230.1,63.4 L230.1,31.6 L223.6,33.8 L223.6,28.7 Z M285.8,46.2 C285.8,57.5 293.5,63.6 302,63.6 C308.2,63.6 312.5,62.1 316.9,58.8 L316.9,64.8 C313,67.7 307.4,69 302,69 C289.4,69 279.8,60.4 279.8,46.2 C279.8,34 287.7,24.7 298.3,23.5 L298.3,29 C291.1,30 285.8,36.1 285.8,46.2 Z M302.3,23.5 C312.3,24.2 318.8,30.7 318.8,42.4 L318.8,46.5 L289.6,46.5 L289.6,41.5 L312.8,41.5 C312.4,33.3 308.4,29.7 302.3,29 L302.3,23.5 Z M341.5,69 C340.1,69 338.3,68.8 337.1,68.5 L337.1,63.7 C338.4,64 340.1,64.2 341.5,64.2 C347,64.2 351,61.7 351,56.8 C351,51.7 346.7,50.3 339.7,48 C331.9,45.4 328.5,42.2 328.5,35.5 C328.5,28.4 334.4,23.4 342.6,23.4 C343.6,23.4 344.8,23.5 345.8,23.7 L345.8,28.6 C344.8,28.3 343.5,28.2 342.6,28.2 C337.6,28.2 334.2,31 334.2,35.3 C334.2,39.5 336.8,41.3 343.7,43.4 C351.5,45.7 356.7,48.6 356.7,56.4 C356.7,64.9 349.8,69 341.5,69 Z M354.6,35.7 L349.2,35.7 L349.2,24.3 C351.2,24.8 353,25.6 354.6,26.6 L354.6,35.7 Z M328.2,64.9 L328.2,55.7 L333.7,55.7 L333.7,67.8 C331.5,67 329.6,66 328.2,64.9 Z M378.7,69 C377.3,69 375.5,68.8 374.3,68.5 L374.3,63.7 C375.6,64 377.3,64.2 378.7,64.2 C384.2,64.2 388.2,61.7 388.2,56.8 C388.2,51.7 383.9,50.3 376.9,48 C369.1,45.4 365.7,42.2 365.7,35.5 C365.7,28.4 371.6,23.4 379.8,23.4 C380.8,23.4 382,23.5 383,23.7 L383,28.6 C382,28.3 380.7,28.2 379.8,28.2 C374.8,28.2 371.4,31 371.4,35.3 C371.4,39.5 374,41.3 380.9,43.4 C388.7,45.7 393.9,48.6 393.9,56.4 C393.9,64.9 387,69 378.7,69 Z M391.8,35.7 L386.4,35.7 L386.4,24.3 C388.4,24.8 390.2,25.6 391.8,26.6 L391.8,35.7 Z M365.4,64.9 L365.4,55.7 L370.9,55.7 L370.9,67.8 C368.7,67 366.8,66 365.4,64.9 Z M3,144.8 L24.5,144.8 L24.5,139.4 L3,139.4 L3,144.8 Z M53,109.4 L58.3,109.4 L58.3,158.6 L53,158.6 L53,168 L75.4,168 L75.4,158.6 L70.1,158.6 L70.1,100 L53,100 L53,109.4 Z M80.5,145.7 C80.5,159 89.6,168.2 102,169 L102,158.8 C96.3,158 92.3,153.2 92.3,145.7 C92.3,138.2 96.3,133.4 102,132.6 L102,122.4 C89.6,123.2 80.5,132.4 80.5,145.7 Z M115.2,145.7 C115.2,153.2 111.1,158 105.4,158.8 L105.4,169 C117.9,168.2 127,159 127,145.7 C127,132.4 117.9,123.2 105.4,122.4 L105.4,132.6 C111.1,133.4 115.2,138.2 115.2,145.7 Z M130.2,132.8 L130.2,123.4 L136.9,123.4 L136.9,112.5 L148.5,112.5 L148.5,151.5 C148.5,156.7 150.9,158.3 154.5,158.3 C157.6,158.3 160.1,157.4 162.7,155.8 L162.7,166.5 C159.6,168.2 155.8,169 151.4,169 C143.7,169 136.9,165.3 136.9,154.6 L136.9,132.8 L130.2,132.8 Z M162.3,132.8 L151.8,132.8 L151.8,123.4 L162.3,123.4 L162.3,132.8 Z M184.3,169 C183.3,169 182.3,168.9 181.3,168.8 L181.3,159.9 C182.2,160.1 183.3,160.2 184.3,160.2 C187.9,160.2 191.2,158.9 191.2,155.6 C191.2,152.5 188.6,151.5 183.3,150.4 C172.8,148.5 168.3,144.2 168.3,136.6 C168.3,127.2 176,122.4 186.1,122.4 C186.4,122.4 186.9,122.4 187.7,122.5 L187.7,131.3 C186.8,131.2 186.4,131.2 186.1,131.2 C182.2,131.2 180,133 180,135.6 C180,138.1 181.6,139.4 186.8,140.5 C198.7,142.8 202.9,147 202.9,155 C202.9,164.5 195.2,169 184.3,169 Z M200.5,137 L190.7,137 L190.7,122.8 C194.4,123.3 197.6,124.3 200.5,125.8 L200.5,137 Z M168.6,165.1 L168.6,154 L178.3,154 L178.3,168.4 C174.7,167.8 171.1,166.6 168.6,165.1 Z M229,146.2 C229,159 237,168.1 248.9,169 L248.9,163.7 C240.7,162.8 235.1,156 235.1,146.2 C235.1,136.4 240.7,129.6 248.9,128.7 L248.9,123.4 C237,124.3 229,133.4 229,146.2 Z M273.2,146.2 C273.2,133.4 265.2,124.3 253.3,123.4 L253.3,128.7 C261.5,129.6 267.1,136.4 267.1,146.2 C267.1,156 261.5,162.8 253.3,163.7 L253.3,169 C265.2,168.1 273.2,159 273.2,146.2 Z M282.2,168 L282.2,163.4 L288.7,163.4 L288.7,129 L282.2,129 L282.2,124.4 L288.7,124.4 L288.7,113.7 C288.7,104.6 293.4,99.2 302.1,99.2 C305.4,99.2 307.8,99.9 309.9,101.4 L309.9,107.1 C307.8,105.6 305.4,104.5 302.2,104.5 C297.6,104.5 294.7,106.7 294.7,113.8 L294.7,163.4 L303.2,163.4 L303.2,168 L282.2,168 Z M306.7,129 L298.7,129 L298.7,124.4 L306.7,124.4 L306.7,129 Z M332.2,129 L338.7,129 L338.7,163.4 L332.2,163.4 L332.2,168 L351.3,168 L351.3,163.4 L344.7,163.4 L344.7,124.4 L332.2,124.4 L332.2,129 Z M341.1,115.3 C343.6,115.3 345.6,113.2 345.6,110.8 C345.6,108.3 343.6,106.3 341.1,106.3 C338.7,106.3 336.6,108.3 336.6,110.8 C336.6,113.2 338.7,115.3 341.1,115.3 Z M356.2,129 L356.2,124.4 L362.9,124.4 L362.9,113.8 L368.9,113.8 L368.9,156 C368.9,161.6 371.1,163.8 375.2,163.8 C378,163.8 380.3,162.9 383.3,161.4 L383.3,166.8 C380.7,168.1 377.7,169 373.9,169 C367.6,169 362.9,165.7 362.9,156.7 L362.9,129 L356.2,129 Z M382.2,129 L372.9,129 L372.9,124.4 L382.2,124.4 L382.2,129 Z M402.7,108.5 L396.8,108.5 L396.8,151.1 L402.7,151.1 L402.7,108.5 Z M394.8,163.9 C394.8,166.6 397,168.9 399.7,168.9 C402.4,168.9 404.7,166.6 404.7,163.9 C404.7,161.2 402.4,159 399.7,159 C397,159 394.8,161.2 394.8,163.9 Z" id="Goodness---lots-of-i" fill="#FFFFFF"></path>
    </g>
</svg>