<?xml version="1.0" encoding="UTF-8" standalone="no"?>
<svg width="788px" height="169px" viewBox="0 0 788 169" version="1.1" xmlns="http://www.w3.org/2000/svg" xmlns:xlink="http://www.w3.org/1999/xlink">
    <!-- Generator: Sketch 42 (36781) - http://www.bohemiancoding.com/sketch -->
    <title>Helping Food Cycle f</title>
    <desc>Created with Sketch.</desc>
    <defs></defs>
    <g id="Page-1" stroke="none" stroke-width="1" fill="none" fill-rule="evenodd">
        <path d="M14.7,13.4 L14.7,63.2 L22.2,63.2 L22.2,68 L1,68 L1,63.2 L8.5,63.2 L8.5,13.4 L1,13.4 L1,8.6 L22.2,8.6 L22.2,13.4 L14.7,13.4 Z M51.3,63.2 L51.3,13.4 L43.8,13.4 L43.8,8.6 L65,8.6 L65,13.4 L57.5,13.4 L57.5,63.2 L65,63.2 L65,68 L43.8,68 L43.8,63.2 L51.3,63.2 Z M18.7,40.3 L18.7,35.4 L47.3,35.4 L47.3,40.3 L18.7,40.3 Z M79.7,46.2 C79.7,57.5 87.4,63.6 95.9,63.6 C102.1,63.6 106.4,62.1 110.8,58.8 L110.8,64.8 C106.9,67.7 101.3,69 95.9,69 C83.3,69 73.7,60.4 73.7,46.2 C73.7,34 81.6,24.7 92.2,23.5 L92.2,29 C85,30 79.7,36.1 79.7,46.2 Z M96.2,23.5 C106.2,24.2 112.7,30.7 112.7,42.4 L112.7,46.5 L83.5,46.5 L83.5,41.5 L106.7,41.5 C106.3,33.3 102.3,29.7 96.2,29 L96.2,23.5 Z M120.2,4.6 L126.7,4.6 L126.7,63.4 L120.2,63.4 L120.2,68 L139.3,68 L139.3,63.4 L132.7,63.4 L132.7,0 L120.2,0 L120.2,4.6 Z M146,33.8 L146,28.7 C148.8,27.2 153.5,25.5 158.5,24.5 L158.5,81.4 L165,81.4 L165,86 L146,86 L146,81.4 L152.5,81.4 L152.5,31.6 L146,33.8 Z M185.7,46.2 C185.7,35.5 179.2,28.9 167.7,28.9 C165.9,28.9 164.1,29 162.5,29.2 L162.5,23.8 C164.2,23.5 166,23.4 167.7,23.4 C182.7,23.4 191.8,31.2 191.8,46.2 C191.8,60.4 182.4,69 168.1,69 C166.2,69 164.2,68.8 162.5,68.4 L162.5,63.3 C164.2,63.6 166,63.8 168.1,63.8 C178.7,63.8 185.7,57.3 185.7,46.2 Z M200.8,29 L207.3,29 L207.3,63.4 L200.8,63.4 L200.8,68 L219.9,68 L219.9,63.4 L213.3,63.4 L213.3,24.4 L200.8,24.4 L200.8,29 Z M209.7,15.3 C212.2,15.3 214.2,13.2 214.2,10.8 C214.2,8.3 212.2,6.3 209.7,6.3 C207.3,6.3 205.2,8.3 205.2,10.8 C205.2,13.2 207.3,15.3 209.7,15.3 Z M264.6,63.4 L264.6,39.8 C264.6,31.5 259.1,28.7 252.3,28.7 C249.7,28.7 247,28.9 244.6,29.2 L244.6,24 C247.2,23.6 249.8,23.4 252.3,23.4 C263.8,23.4 270.6,27.7 270.6,38.6 L270.6,63.4 L277.1,63.4 L277.1,68 L258.1,68 L258.1,63.4 L264.6,63.4 Z M228.1,28.7 C231.7,27.1 236.1,25.7 240.6,24.8 L240.6,63.4 L247.1,63.4 L247.1,68 L228.1,68 L228.1,63.4 L234.6,63.4 L234.6,31.6 L228.1,33.8 L228.1,28.7 Z M312.2,39 C312.2,44.7 308.8,48.5 303.3,49.1 L303.3,53.7 C312.4,53 318.1,46.8 318.1,39 C318.1,34.9 315.8,30.6 312.5,28.6 L322.7,28.6 L322.7,24 L303.3,24 L303.3,28.7 C308.8,29.3 312.2,33.1 312.2,39 Z M288.5,66.6 L292.1,69.1 C289.6,70.2 287.9,72.1 287.9,74.3 C287.9,79.2 293.2,82 300.6,82.2 L300.6,87 C289.9,86.8 282,82.6 282,74.9 C282,70.5 285.4,67.6 288.5,66.6 Z M291.5,55.1 L295.2,56.5 C293.3,58.6 294.3,60.8 296.9,61 L310.3,62.1 C319.6,62.8 324.3,66.4 324.3,73.5 C324.3,80.7 316.9,86.2 304.6,87 L304.6,82.2 C311.7,81.6 318.3,78.8 318.3,73.5 C318.3,69.6 314.8,67.8 309.6,67.4 L296.8,66.4 C292.2,66.1 288.8,63.9 288.8,59.9 C288.8,58 289.8,56.2 291.5,55.1 Z M299.3,48.9 C294.3,48 291.2,44.4 291.2,39 C291.2,33.4 294.3,29.7 299.3,28.8 L299.3,24.2 C290.7,25.1 285.3,31.2 285.3,39 C285.3,46.8 290.6,53 299.3,53.7 L299.3,48.9 Z M373.3,63.2 L373.3,68 L349.4,68 L349.4,63.2 L356.9,63.2 L356.9,13.4 L349.4,13.4 L349.4,8.6 L363.1,8.6 L363.1,63.2 L373.3,63.2 Z M386.3,13.4 L367.1,13.4 L367.1,8.6 L391.7,8.6 L391.7,23 L386.3,23 L386.3,13.4 Z M382.9,41.1 L367.1,41.1 L367.1,36.2 L382.9,36.2 L382.9,41.1 Z M395.4,46.2 C395.4,59 403.4,68.1 415.3,69 L415.3,63.7 C407.1,62.8 401.5,56 401.5,46.2 C401.5,36.4 407.1,29.6 415.3,28.7 L415.3,23.4 C403.4,24.3 395.4,33.4 395.4,46.2 Z M439.6,46.2 C439.6,33.4 431.6,24.3 419.7,23.4 L419.7,28.7 C427.9,29.6 433.5,36.4 433.5,46.2 C433.5,56 427.9,62.8 419.7,63.7 L419.7,69 C431.6,68.1 439.6,59 439.6,46.2 Z M448,46.2 C448,59 456,68.1 467.9,69 L467.9,63.7 C459.7,62.8 454.1,56 454.1,46.2 C454.1,36.4 459.7,29.6 467.9,28.7 L467.9,23.4 C456,24.3 448,33.4 448,46.2 Z M492.2,46.2 C492.2,33.4 484.2,24.3 472.3,23.4 L472.3,28.7 C480.5,29.6 486.1,36.4 486.1,46.2 C486.1,56 480.5,62.8 472.3,63.7 L472.3,69 C484.2,68.1 492.2,59 492.2,46.2 Z M545.8,61.3 L545.8,66.1 C542.4,67.5 538.1,68.1 534.1,68.5 L534.1,4.6 L527.6,4.6 L527.6,0 L540.1,0 L540.1,62.8 L545.8,61.3 Z M506.7,46.2 C506.7,57.3 514.4,63.8 525.9,63.8 C527.3,63.8 528.7,63.8 530.1,63.7 L530.1,68.9 C528.5,69 527,69 525.9,69 C510.8,69 500.6,60.8 500.6,46.2 C500.6,31.5 511.6,23.4 524.6,23.4 C526.3,23.4 528.3,23.6 530.1,24 L530.1,29.4 C528.5,29 526.6,28.8 524.6,28.8 C514.5,28.8 506.7,35 506.7,46.2 Z M573.3,38.3 C573.3,20 586.9,7.6 604,7.6 C606.4,7.6 608.7,7.8 611,8.4 L611,14.1 C608.7,13.5 606.3,13.2 603.9,13.2 C590.5,13.2 579.6,23 579.6,38.3 C579.6,53.6 590.5,63.4 603.9,63.4 C610.2,63.4 616.4,61.5 620.7,57.5 L620.7,64.6 C616,67.4 610,69 604,69 C586,69 573.3,56.5 573.3,38.3 Z M615,24 L615,9.5 C616.9,10.2 618.7,11.1 620.4,12.1 L620.4,24 L615,24 Z M649.1,58.5 L646.3,65.5 L631,29 L626.7,29 L626.7,24.4 L644.3,24.4 L644.3,29 L637.4,29 L649.1,58.5 Z M646.4,74.8 L664.5,29 L657.3,29 L657.3,24.4 L674.8,24.4 L674.8,29 L670.5,29 L651.7,75.8 C648.6,83.6 645.2,87 638.6,87 C635.8,87 633.1,86.1 631.9,85 L631.9,79.7 C633.5,80.9 636.2,81.9 638.6,81.9 C642.9,81.9 644.6,79.2 646.4,74.8 Z M679,46.3 C679,31.6 689.4,23.4 701.2,23.4 C702.3,23.4 703.4,23.5 704.5,23.6 L704.5,28.8 C703.4,28.6 702.3,28.5 701.2,28.5 C692.5,28.5 685.1,34.9 685.1,46.3 C685.1,57.1 692.4,63.8 701.3,63.8 C706.5,63.8 710.4,62.3 714.4,59.7 L714.4,65.7 C710.1,67.9 705.9,69 701.3,69 C688.8,69 679,60.5 679,46.3 Z M714.2,26.7 L714.2,36.9 L708.5,36.9 L708.5,24.4 C710.5,24.9 712.4,25.7 714.2,26.7 Z M721.9,4.6 L728.4,4.6 L728.4,63.4 L721.9,63.4 L721.9,68 L741,68 L741,63.4 L734.4,63.4 L734.4,0 L721.9,0 L721.9,4.6 Z M754.6,46.2 C754.6,57.5 762.3,63.6 770.8,63.6 C777,63.6 781.3,62.1 785.7,58.8 L785.7,64.8 C781.8,67.7 776.2,69 770.8,69 C758.2,69 748.6,60.4 748.6,46.2 C748.6,34 756.5,24.7 767.1,23.5 L767.1,29 C759.9,30 754.6,36.1 754.6,46.2 Z M771.1,23.5 C781.1,24.2 787.6,30.7 787.6,42.4 L787.6,46.5 L758.4,46.5 L758.4,41.5 L781.6,41.5 C781.2,33.3 777.2,29.7 771.1,29 L771.1,23.5 Z M0.8,168 L0.8,163.4 L7.3,163.4 L7.3,129 L0.8,129 L0.8,124.4 L7.3,124.4 L7.3,113.7 C7.3,104.6 12,99.2 20.7,99.2 C24,99.2 26.4,99.9 28.5,101.4 L28.5,107.1 C26.4,105.6 24,104.5 20.8,104.5 C16.2,104.5 13.3,106.7 13.3,113.8 L13.3,163.4 L21.8,163.4 L21.8,168 L0.8,168 Z M25.3,129 L17.3,129 L17.3,124.4 L25.3,124.4 L25.3,129 Z M37.2,146.2 C37.2,157.5 44.9,163.6 53.4,163.6 C59.6,163.6 63.9,162.1 68.3,158.8 L68.3,164.8 C64.4,167.7 58.8,169 53.4,169 C40.8,169 31.2,160.4 31.2,146.2 C31.2,134 39.1,124.7 49.7,123.5 L49.7,129 C42.5,130 37.2,136.1 37.2,146.2 Z M53.7,123.5 C63.7,124.2 70.2,130.7 70.2,142.4 L70.2,146.5 L41,146.5 L41,141.5 L64.2,141.5 C63.8,133.3 59.8,129.7 53.7,129 L53.7,123.5 Z M85.1,146.2 C85.1,157.5 92.8,163.6 101.3,163.6 C107.5,163.6 111.8,162.1 116.2,158.8 L116.2,164.8 C112.3,167.7 106.7,169 101.3,169 C88.7,169 79.1,160.4 79.1,146.2 C79.1,134 87,124.7 97.6,123.5 L97.6,129 C90.4,130 85.1,136.1 85.1,146.2 Z M101.6,123.5 C111.6,124.2 118.1,130.7 118.1,142.4 L118.1,146.5 L88.9,146.5 L88.9,141.5 L112.1,141.5 C111.7,133.3 107.7,129.7 101.6,129 L101.6,123.5 Z M172.2,161.3 L172.2,166.1 C168.8,167.5 164.5,168.1 160.5,168.5 L160.5,104.6 L154,104.6 L154,100 L166.5,100 L166.5,162.8 L172.2,161.3 Z M133.1,146.2 C133.1,157.3 140.8,163.8 152.3,163.8 C153.7,163.8 155.1,163.8 156.5,163.7 L156.5,168.9 C154.9,169 153.4,169 152.3,169 C137.2,169 127,160.8 127,146.2 C127,131.5 138,123.4 151,123.4 C152.7,123.4 154.7,123.6 156.5,124 L156.5,129.4 C154.9,129 153,128.8 151,128.8 C140.9,128.8 133.1,135 133.1,146.2 Z M199,168 L199,158.6 L204.4,158.6 L204.4,132.8 L198.3,132.8 L198.3,123.4 L204.4,123.4 L204.4,116.4 C204.4,104.5 210.9,99.1 220.6,99.1 C224.2,99.1 227,99.8 229.7,101.3 L229.7,112 C227.2,110.4 225,109.7 222.1,109.7 C218.2,109.7 216.1,111.7 216.1,116.2 L216.1,158.6 L224.5,158.6 L224.5,168 L199,168 Z M228.3,132.8 L219.3,132.8 L219.3,123.4 L228.3,123.4 L228.3,132.8 Z M231.9,145.7 C231.9,159 241,168.2 253.4,169 L253.4,158.8 C247.7,158 243.7,153.2 243.7,145.7 C243.7,138.2 247.7,133.4 253.4,132.6 L253.4,122.4 C241,123.2 231.9,132.4 231.9,145.7 Z M266.6,145.7 C266.6,153.2 262.5,158 256.8,158.8 L256.8,169 C269.3,168.2 278.4,159 278.4,145.7 C278.4,132.4 269.3,123.2 256.8,122.4 L256.8,132.6 C262.5,133.4 266.6,138.2 266.6,145.7 Z M284.6,136.8 L284.6,127.1 C288.9,125.4 295.8,123.8 301.7,123.2 L301.7,158.6 L309.4,158.6 L309.4,168 L284.6,168 L284.6,158.6 L290,158.6 L290,135.5 L284.6,136.8 Z M308,133.2 C307,133.2 306.3,133.2 305,133.4 L305,122.9 C306.1,122.8 307.7,122.8 308,122.8 C310.6,122.8 313.9,123.2 316.4,123.9 L316.4,134.5 C313.8,133.5 311,133.2 308,133.2 Z M347,168 L335.3,168 L324.9,132.8 L320.3,132.8 L320.3,123.4 L342.3,123.4 L342.3,132.8 L336.7,132.8 L347,168 Z M349.8,129.5 L354.8,144 L349.1,165 L344.5,149.4 L349.8,129.5 Z M350.5,123.4 L361.5,123.4 L376.8,168 L365.8,168 L350.5,123.4 Z M378.4,164.2 L372.4,146.8 L376.2,132.8 L370.7,132.8 L370.7,123.4 L392.2,123.4 L392.2,132.8 L387.6,132.8 L378.4,164.2 Z M419.6,168.8 L419.6,139.1 C419.6,134.6 416,132.8 411.5,132.8 C406.3,132.8 402.2,134.3 398.6,136.4 L398.6,126 C402.6,123.7 407.9,122.4 413.5,122.4 C423.7,122.4 431.2,126.5 431.2,138.2 L431.2,158.4 L436.4,157.4 L436.4,166.7 C431.6,167.7 425.4,168.5 419.6,168.8 Z M406.3,154.5 C406.3,158.4 409.6,159.8 414.9,159.8 L416.3,159.8 L416.3,168.9 L415.1,168.9 C402.8,168.8 394.6,165.2 394.6,155.2 C394.6,146 402.1,141.6 414.7,141.6 L416.3,141.6 L416.3,149.3 L415.6,149.3 C410,149.3 406.3,150.7 406.3,154.5 Z M442.1,136.8 L442.1,127.1 C446.4,125.4 453.3,123.8 459.2,123.2 L459.2,158.6 L466.9,158.6 L466.9,168 L442.1,168 L442.1,158.6 L447.5,158.6 L447.5,135.5 L442.1,136.8 Z M465.5,133.2 C464.5,133.2 463.8,133.2 462.5,133.4 L462.5,122.9 C463.6,122.8 465.2,122.8 465.5,122.8 C468.1,122.8 471.4,123.2 473.9,123.9 L473.9,134.5 C471.3,133.5 468.5,133.2 465.5,133.2 Z M526.4,157.2 L526.4,166.4 C522.1,167.7 515.2,168.5 509.4,168.8 L509.4,109.4 L504,109.4 L504,100 L521.1,100 L521.1,158.2 L526.4,157.2 Z M489.4,145.4 C489.4,154.1 494.8,159.1 503.9,159.1 L506,159.1 L506,169 L504.4,169 C487.9,169 477.5,161.1 477.5,145.8 C477.5,131.6 487.1,122.4 501,122.4 C502.6,122.4 504.4,122.5 506,122.9 L506,133 C504.7,132.8 503.3,132.6 501.9,132.6 C494.4,132.6 489.4,137.4 489.4,145.4 Z" id="Helping-Food-Cycle-f" fill="#FFFFFF"></path>
    </g>
</svg>