<?xml version="1.0" encoding="UTF-8" standalone="no"?>
<svg width="411px" height="163px" viewBox="0 0 411 163" version="1.1" xmlns="http://www.w3.org/2000/svg" xmlns:xlink="http://www.w3.org/1999/xlink">
    <!-- Generator: Sketch 42 (36781) - http://www.bohemiancoding.com/sketch -->
    <title>Keeping it local</title>
    <desc>Created with Sketch.</desc>
    <defs></defs>
    <g id="Page-1" stroke="none" stroke-width="1" fill="none" fill-rule="evenodd">
        <path d="M29.2,29.3 L25.6,25.8 L39.8,7.4 L32.6,7.4 L32.6,2.6 L53.5,2.6 L53.5,7.4 L46.7,7.4 L29.2,29.3 Z M19.4,33.6 L22.9,29 L50.7,57.2 L56.8,57.2 L56.8,62 L35.1,62 L35.1,57.2 L42.8,57.2 L19.4,33.6 Z M16.7,7.4 L16.7,57.2 L24.2,57.2 L24.2,62 L3,62 L3,57.2 L10.5,57.2 L10.5,7.4 L3,7.4 L3,2.6 L24.2,2.6 L24.2,7.4 L16.7,7.4 Z M67.5,40.2 C67.5,51.5 75.2,57.6 83.7,57.6 C89.9,57.6 94.2,56.1 98.6,52.8 L98.6,58.8 C94.7,61.7 89.1,63 83.7,63 C71.1,63 61.5,54.4 61.5,40.2 C61.5,28 69.4,18.7 80,17.5 L80,23 C72.8,24 67.5,30.1 67.5,40.2 Z M84,17.5 C94,18.2 100.5,24.7 100.5,36.4 L100.5,40.5 L71.3,40.5 L71.3,35.5 L94.5,35.5 C94.1,27.3 90.1,23.7 84,23 L84,17.5 Z M115.4,40.2 C115.4,51.5 123.1,57.6 131.6,57.6 C137.8,57.6 142.1,56.1 146.5,52.8 L146.5,58.8 C142.6,61.7 137,63 131.6,63 C119,63 109.4,54.4 109.4,40.2 C109.4,28 117.3,18.7 127.9,17.5 L127.9,23 C120.7,24 115.4,30.1 115.4,40.2 Z M131.9,17.5 C141.9,18.2 148.4,24.7 148.4,36.4 L148.4,40.5 L119.2,40.5 L119.2,35.5 L142.4,35.5 C142,27.3 138,23.7 131.9,23 L131.9,17.5 Z M155.9,27.8 L155.9,22.7 C158.7,21.2 163.4,19.5 168.4,18.5 L168.4,75.4 L174.9,75.4 L174.9,80 L155.9,80 L155.9,75.4 L162.4,75.4 L162.4,25.6 L155.9,27.8 Z M195.6,40.2 C195.6,29.5 189.1,22.9 177.6,22.9 C175.8,22.9 174,23 172.4,23.2 L172.4,17.8 C174.1,17.5 175.9,17.4 177.6,17.4 C192.6,17.4 201.7,25.2 201.7,40.2 C201.7,54.4 192.3,63 178,63 C176.1,63 174.1,62.8 172.4,62.4 L172.4,57.3 C174.1,57.6 175.9,57.8 178,57.8 C188.6,57.8 195.6,51.3 195.6,40.2 Z M210.7,23 L217.2,23 L217.2,57.4 L210.7,57.4 L210.7,62 L229.8,62 L229.8,57.4 L223.2,57.4 L223.2,18.4 L210.7,18.4 L210.7,23 Z M219.6,9.3 C222.1,9.3 224.1,7.2 224.1,4.8 C224.1,2.3 222.1,0.3 219.6,0.3 C217.2,0.3 215.1,2.3 215.1,4.8 C215.1,7.2 217.2,9.3 219.6,9.3 Z M274.5,57.4 L274.5,33.8 C274.5,25.5 269,22.7 262.2,22.7 C259.6,22.7 256.9,22.9 254.5,23.2 L254.5,18 C257.1,17.6 259.7,17.4 262.2,17.4 C273.7,17.4 280.5,21.7 280.5,32.6 L280.5,57.4 L287,57.4 L287,62 L268,62 L268,57.4 L274.5,57.4 Z M238,22.7 C241.6,21.1 246,19.7 250.5,18.8 L250.5,57.4 L257,57.4 L257,62 L238,62 L238,57.4 L244.5,57.4 L244.5,25.6 L238,27.8 L238,22.7 Z M322.1,33 C322.1,38.7 318.7,42.5 313.2,43.1 L313.2,47.7 C322.3,47 328,40.8 328,33 C328,28.9 325.7,24.6 322.4,22.6 L332.6,22.6 L332.6,18 L313.2,18 L313.2,22.7 C318.7,23.3 322.1,27.1 322.1,33 Z M298.4,60.6 L302,63.1 C299.5,64.2 297.8,66.1 297.8,68.3 C297.8,73.2 303.1,76 310.5,76.2 L310.5,81 C299.8,80.8 291.9,76.6 291.9,68.9 C291.9,64.5 295.3,61.6 298.4,60.6 Z M301.4,49.1 L305.1,50.5 C303.2,52.6 304.2,54.8 306.8,55 L320.2,56.1 C329.5,56.8 334.2,60.4 334.2,67.5 C334.2,74.7 326.8,80.2 314.5,81 L314.5,76.2 C321.6,75.6 328.2,72.8 328.2,67.5 C328.2,63.6 324.7,61.8 319.5,61.4 L306.7,60.4 C302.1,60.1 298.7,57.9 298.7,53.9 C298.7,52 299.7,50.2 301.4,49.1 Z M309.2,42.9 C304.2,42 301.1,38.4 301.1,33 C301.1,27.4 304.2,23.7 309.2,22.8 L309.2,18.2 C300.6,19.1 295.2,25.2 295.2,33 C295.2,40.8 300.5,47 309.2,47.7 L309.2,42.9 Z M359.1,23 L365.6,23 L365.6,57.4 L359.1,57.4 L359.1,62 L378.2,62 L378.2,57.4 L371.6,57.4 L371.6,18.4 L359.1,18.4 L359.1,23 Z M368,9.3 C370.5,9.3 372.5,7.2 372.5,4.8 C372.5,2.3 370.5,0.3 368,0.3 C365.6,0.3 363.5,2.3 363.5,4.8 C363.5,7.2 365.6,9.3 368,9.3 Z M383.1,23 L383.1,18.4 L389.8,18.4 L389.8,7.8 L395.8,7.8 L395.8,50 C395.8,55.6 398,57.8 402.1,57.8 C404.9,57.8 407.2,56.9 410.2,55.4 L410.2,60.8 C407.6,62.1 404.6,63 400.8,63 C394.5,63 389.8,59.7 389.8,50.7 L389.8,23 L383.1,23 Z M409.1,23 L399.8,23 L399.8,18.4 L409.1,18.4 L409.1,23 Z M0.5,103.4 L5.8,103.4 L5.8,152.6 L0.5,152.6 L0.5,162 L22.9,162 L22.9,152.6 L17.6,152.6 L17.6,94 L0.5,94 L0.5,103.4 Z M28,139.7 C28,153 37.1,162.2 49.5,163 L49.5,152.8 C43.8,152 39.8,147.2 39.8,139.7 C39.8,132.2 43.8,127.4 49.5,126.6 L49.5,116.4 C37.1,117.2 28,126.4 28,139.7 Z M62.7,139.7 C62.7,147.2 58.6,152 52.9,152.8 L52.9,163 C65.4,162.2 74.5,153 74.5,139.7 C74.5,126.4 65.4,117.2 52.9,116.4 L52.9,126.6 C58.6,127.4 62.7,132.2 62.7,139.7 Z M80.4,139.8 C80.4,125.9 90.1,116.8 103.3,116.4 C103.9,116.4 104.2,116.4 104.9,116.5 L104.9,126.6 C97.4,126.6 92.3,131.6 92.3,139.5 C92.3,147.9 98.1,152.8 105.5,152.8 C110.7,152.8 114.5,151.4 117.9,148.8 L117.9,159.7 C113.9,162.1 109.4,163 104.6,163 C90,163 80.4,153.9 80.4,139.8 Z M118.1,119.7 L118.1,133.1 L108.3,133.1 L108.3,116.8 C111.9,117.1 115.3,118.1 118.1,119.7 Z M149,162.8 L149,133.1 C149,128.6 145.4,126.8 140.9,126.8 C135.7,126.8 131.6,128.3 128,130.4 L128,120 C132,117.7 137.3,116.4 142.9,116.4 C153.1,116.4 160.6,120.5 160.6,132.2 L160.6,152.4 L165.8,151.4 L165.8,160.7 C161,161.7 154.8,162.5 149,162.8 Z M135.7,148.5 C135.7,152.4 139,153.8 144.3,153.8 L145.7,153.8 L145.7,162.9 L144.5,162.9 C132.2,162.8 124,159.2 124,149.2 C124,140 131.5,135.6 144.1,135.6 L145.7,135.6 L145.7,143.3 L145,143.3 C139.4,143.3 135.7,144.7 135.7,148.5 Z M170.5,103.4 L175.8,103.4 L175.8,152.6 L170.5,152.6 L170.5,162 L192.9,162 L192.9,152.6 L187.6,152.6 L187.6,94 L170.5,94 L170.5,103.4 Z" id="Keeping-it-local" fill="#287572"></path>
    </g>
</svg>