<?xml version="1.0" encoding="UTF-8" standalone="no"?>
<svg width="200px" height="52px" viewBox="0 0 200 52" version="1.1" xmlns="http://www.w3.org/2000/svg" xmlns:xlink="http://www.w3.org/1999/xlink">
    <!-- Generator: Sketch 44.1 (41455) - http://www.bohemiancoding.com/sketch -->
    <title>logo</title>
    <desc>Created with Sketch.</desc>
    <defs></defs>
    <g id="Page-1" stroke="none" stroke-width="1" fill="none" fill-rule="evenodd">
        <g id="logo" fill="#00FF00">
            <path d="M31.7611632,19.039601 L31.7611632,20.8807737 L18.6431797,20.8807737 L18.6431797,18.6353984 L29.0656815,18.6353984 C28.8859689,14.9532592 27.0890499,13.336655 24.3486143,13.0224241 L24.3486143,10.5525835 C28.8411181,10.8668144 31.7611632,13.7856888 31.7611632,19.039601 M24.2138556,28.5593861 C26.9991421,28.5593861 28.9309229,27.8858869 30.9076576,26.4039825 L30.9076576,29.0984946 C29.1555893,30.4005587 26.6398201,30.9842924 24.2138556,30.9842924 C18.553375,30.9842924 14.2405836,27.1226221 14.2405836,20.7461769 C14.2405836,15.2675932 17.7896741,11.0914859 22.5516952,10.5525835 L22.5516952,13.0224241 C19.317179,13.471561 16.9360653,16.2106982 16.9360653,20.7461769 C16.9360653,25.8202488 20.3953511,28.5593861 24.2138556,28.5593861 Z M49.4610429,16.8393044 C49.4610429,14.3246325 47.7987793,13.0224653 45.2831132,13.0224653 C43.0367582,13.0224653 41.3297469,13.6510302 39.5327247,14.5941352 L39.5327247,12.0345291 C41.1948852,11.1363584 43.3063785,10.5076904 45.5974813,10.5076904 C49.5508476,10.5076904 52.1115707,12.2589944 52.1115707,16.6597733 L52.1115707,28.0656653 L54.6722937,27.39196 L54.6722937,29.5921948 C53.3694552,30.0861629 51.3478697,30.4903655 49.4610429,30.6701027 L49.4610429,16.8393044 Z M46.6756533,28.6942302 L47.6640207,28.6942302 L47.6640207,30.8496338 C47.3046987,30.8945681 46.9901245,30.8945681 46.6756533,30.8945681 C41.2399422,30.8945681 37.6908518,29.2331326 37.6908518,25.1018565 C37.6908518,21.2398771 41.2399422,19.2193795 47.2147909,19.2193795 L47.6640207,19.2193795 L47.6640207,21.4196143 L47.3945034,21.4196143 C43.3513324,21.4196143 40.3862304,22.4973161 40.3862304,25.1018565 C40.3862304,27.706294 43.0818152,28.6942302 46.6756533,28.6942302 Z M76.8196821,17.8721234 C76.8196821,14.1450499 74.3488669,12.8876109 71.2939601,12.8876109 C70.1259833,12.8876109 68.9129495,12.9775825 67.8347775,13.1121793 L67.8347775,10.7770385 C69.0028574,10.5975075 70.1708341,10.5077419 71.2939601,10.5077419 C76.4602571,10.5077419 79.5151639,12.438474 79.5151639,17.333221 L79.5151639,28.4696102 L82.4352089,28.4696102 L82.4352089,30.5352483 L73.8996371,30.5352483 L73.8996371,28.4696102 L76.8196821,28.4696102 L76.8196821,17.8721234 Z M66.0378584,11.1364099 L66.0378584,28.4696102 L68.9579034,28.4696102 L68.9579034,30.5352483 L60.4222286,30.5352483 L60.4222286,28.4696102 L63.3423767,28.4696102 L63.3423767,14.1898811 L60.4222286,15.1778174 L60.4222286,12.8876109 C62.0395382,12.1691774 64.0161698,11.5405094 66.0378584,11.1364099 Z M87.1515647,1.03060322e-05 L94.8336308,1.03060322e-05 L94.8336308,26.3141963 L97.2147445,26.3141963 L97.2147445,30.535238 L87.1515647,30.535238 L87.1515647,26.3141963 L89.5325752,26.3141963 L89.5325752,4.22105194 L87.1515647,4.22105194 L87.1515647,1.03060322e-05 Z M123.40516,29.9066318 C120.709678,30.4006 117.879438,30.715037 115.768047,30.8945681 L115.768047,14.7288351 L113.342083,14.7288351 L113.342083,10.5076904 L121.024149,10.5076904 L121.024149,26.2243896 L123.40516,25.7753558 L123.40516,29.9066318 Z M114.285496,26.6285922 L114.285496,30.9393993 C114.015979,30.9843336 113.431888,30.9843336 113.207324,30.9843336 C107.05266,30.9843336 103.458719,29.3228982 103.458719,23.4404211 L103.458719,14.7288351 L101.077708,14.7288351 L101.077708,10.5076904 L108.71482,10.5076904 L108.71482,22.9912842 C108.71482,25.6406559 109.927854,26.6285922 113.027715,26.6285922 L114.285496,26.6285922 Z M143.620643,18.2763157 C143.620643,15.8962406 142.272954,14.7737075 139.802036,14.7737075 C139.083289,14.7737075 138.319588,14.8185388 137.600738,14.9083043 L137.600738,10.1932946 C138.409393,10.103529 139.262898,10.0586978 139.981748,10.0586978 C145.552321,10.0586978 148.921699,11.989636 148.921699,17.9170474 L148.921699,26.3141963 L151.30271,26.3141963 L151.30271,30.535238 L141.239633,30.535238 L141.239633,26.3141963 L143.620643,26.3141963 L143.620643,18.2763157 Z M136.118187,10.4179661 L136.118187,26.3141963 L138.499197,26.3141963 L138.499197,30.535238 L128.436224,30.535238 L128.436224,26.3141963 L130.862085,26.3141963 L130.862085,15.8962406 L128.436224,16.4799742 L128.436224,12.1243358 C130.322947,11.4956679 133.422808,10.7770282 136.118187,10.4179661 Z M172.46203,17.557707 L168.059434,17.557707 L168.059434,10.2382598 C169.67664,10.3730627 171.204145,10.8219935 172.46203,11.54053 L172.46203,17.557707 Z M165.813182,10.0586256 C166.082699,10.0586256 166.217561,10.0586256 166.531929,10.1035599 L166.531929,14.6390386 C163.162654,14.6390386 160.871448,16.8842077 160.871448,20.4317502 C160.871448,24.2036549 163.477022,26.4039928 166.801549,26.4039928 C169.137606,26.4039928 170.84472,25.7753248 172.372122,24.6078575 L172.372122,29.5023983 C170.5751,30.5801001 168.553617,30.9843027 166.39717,30.9843027 C159.838127,30.9843027 155.525438,26.8979609 155.525438,20.566347 C155.525438,14.3246016 159.883184,10.2382598 165.813182,10.0586256 Z M186.342982,15.0432 L186.342982,10.5077213 C187.331246,10.2830498 188.54428,10.0586875 189.847015,10.0586875 C194.204761,10.0586875 197.618989,12.0793912 197.618989,17.9170371 L197.618989,26.314186 L200,26.314186 L200,30.5352277 L189.981877,30.5352277 L189.981877,26.314186 L192.362888,26.314186 L192.362888,18.2763054 C192.362888,15.9411646 191.014992,14.8185285 188.768843,14.8185285 C187.915338,14.8185285 187.106683,14.908294 186.342982,15.0432 Z M187.241442,26.314186 L187.241442,30.5352277 L177.178365,30.5352277 L177.178365,26.314186 L179.559375,26.314186 L179.559375,4.22104163 L177.178365,4.22104163 L177.178365,0 L184.860431,0 L184.860431,26.314186 L187.241442,26.314186 Z M0,4.12241292e-05 L5.61552675,4.12241292e-05 L5.61552675,28.4696308 L8.58042259,28.4696308 L8.58042259,30.5352689 L0,30.5352689 L0,28.4696308 L2.92004504,28.4696308 L2.92004504,2.06567927 L0,2.06567927 L0,4.12241292e-05 Z"></path>
            <path d="M7.84307013,49.9425705 L7.84307013,40.8287293 C8.51477702,40.752399 9.14068572,40.7066008 9.70553015,40.7066008 C13.8579,40.7066008 15.2623781,42.859116 15.2623781,45.179558 C15.2623781,47.728991 13.7815697,50.0799651 9.82765867,50.0799651 C9.06435539,50.0799651 8.48424489,50.0189008 7.84307013,49.9425705 Z M8.78956621,41.6072986 L8.78956621,49.1945333 C9.15595178,49.2403315 9.50707129,49.2555976 9.84292474,49.2555976 C12.4381559,49.2555976 14.2700838,47.957982 14.2700838,45.1948241 C14.2700838,43.0575749 12.9114039,41.5615004 9.67499802,41.5615004 C9.38494277,41.5615004 9.11015359,41.5767665 8.78956621,41.6072986 Z M22.5442914,46.6451003 L17.5064897,46.6451003 L17.5064897,46.6756325 C17.5064897,48.3091015 18.6819768,49.2708636 19.9795924,49.2708636 C20.9260885,49.2708636 21.5825293,49.0266066 22.2542362,48.5228264 L22.2542362,49.4387903 C21.6588596,49.8815063 20.8039599,50.0799651 19.9795924,50.0799651 C18.0560681,50.0799651 16.5905258,48.7670835 16.5905258,46.5993021 C16.5905258,44.5994475 17.9644717,43.1186391 19.7506014,43.1186391 C21.4298686,43.1186391 22.5442914,44.1261995 22.5442914,46.0191916 L22.5442914,46.6451003 Z M17.567554,45.881797 L21.6283275,45.881797 C21.5672632,44.4925851 20.819226,43.9277406 19.7048032,43.9277406 C18.6667107,43.9277406 17.8270771,44.6299796 17.567554,45.881797 Z M25.2158529,39.5463798 L24.299889,39.5463798 L24.299889,49.9273044 L25.2158529,49.9273044 L25.2158529,39.5463798 Z M28.4217267,43.2712998 L27.5057628,43.2712998 L27.5057628,49.9273044 L28.4217267,49.9273044 L28.4217267,43.2712998 Z M27.9637447,41.8820878 C28.3453964,41.8820878 28.6507177,41.5615004 28.6507177,41.1951149 C28.6507177,40.8134632 28.3453964,40.5081419 27.9637447,40.5081419 C27.5973592,40.5081419 27.2767718,40.8134632 27.2767718,41.1951149 C27.2767718,41.5615004 27.5973592,41.8820878 27.9637447,41.8820878 Z M35.5662455,43.6224193 C34.9708689,43.2865659 34.3907584,43.1186391 33.6579873,43.1186391 C31.8565915,43.1186391 30.2078564,44.3704565 30.2078564,46.5993021 C30.2078564,48.7823495 31.8107933,50.0799651 33.6732533,50.0799651 C34.3754923,50.0799651 35.0166671,49.9120384 35.6731079,49.5761849 L35.6731079,48.6144228 C35.0624653,49.0113405 34.4670887,49.2403315 33.7648497,49.2403315 C32.3145735,49.2403315 31.1390864,48.2938354 31.1390864,46.6145682 C31.1390864,44.8742367 32.3298395,43.9582728 33.7037855,43.9582728 C34.3296941,43.9582728 35.001401,44.1872637 35.5662455,44.5841814 L35.5662455,43.6224193 Z M38.3446694,43.2712998 L37.4287055,43.2712998 L37.4287055,49.9273044 L38.3446694,49.9273044 L38.3446694,43.2712998 Z M37.8866875,41.8820878 C38.2683391,41.8820878 38.5736604,41.5615004 38.5736604,41.1951149 C38.5736604,40.8134632 38.2683391,40.5081419 37.8866875,40.5081419 C37.5203019,40.5081419 37.1997145,40.8134632 37.1997145,41.1951149 C37.1997145,41.5615004 37.5203019,41.8820878 37.8866875,41.8820878 Z M40.1307991,46.5993021 C40.1307991,44.5383833 41.489479,43.1186391 43.4740675,43.1186391 C45.4586561,43.1186391 46.8173359,44.5383833 46.8173359,46.5993021 C46.8173359,48.660221 45.4586561,50.0799651 43.4740675,50.0799651 C41.489479,50.0799651 40.1307991,48.660221 40.1307991,46.5993021 Z M45.8861059,46.5993021 C45.8861059,44.9810992 44.8785456,43.9124746 43.4740675,43.9124746 C42.0695895,43.9124746 41.0620291,44.9810992 41.0620291,46.5993021 C41.0620291,48.2175051 42.0695895,49.2861297 43.4740675,49.2861297 C44.8785456,49.2861297 45.8861059,48.2175051 45.8861059,46.5993021 Z M53.7939279,43.2712998 L52.877964,43.2712998 L52.877964,49.1945333 C52.3894499,49.2555976 51.8704037,49.2861297 51.4124217,49.2861297 C50.3590632,49.2861297 49.3667689,48.9655423 49.3667689,47.7137249 L49.3667689,43.2712998 L48.4508049,43.2712998 L48.4508049,47.7595231 C48.4508049,49.4235243 49.5499617,50.0799651 51.4734859,50.0799651 C52.1604589,50.0799651 52.9848265,50.0036348 53.7939279,49.8509741 L53.7939279,43.2712998 Z M55.6869201,49.5456528 C56.0991039,49.8662402 56.816609,50.0799651 57.5646462,50.0799651 C58.8164636,50.0799651 59.83929,49.4845885 59.83929,48.1717069 C59.83929,46.9656877 59.0607206,46.5229718 57.9004996,46.1718523 C56.8776732,45.8512649 56.5112876,45.5306775 56.5112876,44.9200349 C56.5112876,44.2941262 56.9845357,43.8972085 57.7173068,43.8972085 C58.4806101,43.8972085 59.0149224,44.1872637 59.5339686,44.6147136 L59.5339686,43.6224193 C59.0149224,43.2560337 58.3737477,43.1186391 57.7173068,43.1186391 C56.5112876,43.1186391 55.6258558,43.7445478 55.6258558,44.9200349 C55.6258558,45.9886595 56.129636,46.4771736 57.3051231,46.8740913 C58.3584816,47.2252108 58.9385921,47.4389357 58.9385921,48.2327712 C58.9385921,48.9808084 58.4042798,49.3013958 57.5646462,49.3013958 C56.831875,49.3013958 56.2517645,49.0113405 55.6869201,48.5075603 L55.6869201,49.5456528 Z M61.8086124,48.7060192 C61.8086124,49.9273044 61.3658965,51.0569933 60.6331254,51.8202966 L61.3658965,51.8202966 C62.159732,51.3012504 62.877237,49.9731026 62.877237,48.7060192 L61.8086124,48.7060192 Z M68.22036,49.9273044 L69.136324,49.9273044 L69.136324,44.2177959 C69.609572,44.0956673 70.2354807,43.9735388 70.9377197,43.9735388 C71.8384176,43.9735388 72.8001798,44.2635941 72.8001798,45.6222739 L72.8001798,49.9273044 L73.7161437,49.9273044 L73.7161437,45.4390811 C73.7161437,43.77508 72.6933173,43.1186391 71.0140501,43.1186391 C70.1133522,43.1186391 69.1057919,43.3018319 68.22036,43.6224193 L68.22036,49.9273044 Z M81.1201856,43.2712998 L80.2042216,43.2712998 L80.2042216,49.1945333 C79.7157075,49.2555976 79.1966613,49.2861297 78.7386793,49.2861297 C77.6853208,49.2861297 76.6930265,48.9655423 76.6930265,47.7137249 L76.6930265,43.2712998 L75.7770626,43.2712998 L75.7770626,47.7595231 C75.7770626,49.4235243 76.8762193,50.0799651 78.7997436,50.0799651 C79.4867165,50.0799651 80.3110841,50.0036348 81.1201856,49.8509741 L81.1201856,43.2712998 Z M82.4941315,44.0498691 L83.5169579,44.0498691 L83.5169579,48.202239 C83.5169579,49.5761849 84.234463,50.0799651 85.1962251,50.0799651 C85.7763356,50.0799651 86.2343176,49.9425705 86.6312353,49.7441117 L86.6312353,48.9350102 C86.1732533,49.1640012 85.8221338,49.3013958 85.394684,49.3013958 C84.7687753,49.3013958 84.4329218,48.9655423 84.4329218,48.1106426 L84.4329218,44.0498691 L86.3106479,44.0498691 L86.3106479,43.2712998 L84.4329218,43.2712998 L84.4329218,41.6530968 L83.5169579,41.6530968 L83.5169579,43.2712998 L82.4941315,43.2712998 L82.4941315,44.0498691 Z M89.1501361,44.3704565 C89.5012557,44.1719977 89.9897698,44.0346031 90.6462106,44.0346031 C90.9515319,44.0346031 91.4247799,44.0651352 91.8216976,44.2025298 L91.8216976,43.3018319 C91.440046,43.2102355 91.0736604,43.1644373 90.7072748,43.1644373 C89.7913109,43.1644373 88.9364112,43.4392265 88.2341722,43.8819424 L88.2341722,49.9273044 L89.1501361,49.9273044 L89.1501361,44.3704565 Z M94.1879378,43.2712998 L93.2719739,43.2712998 L93.2719739,49.9273044 L94.1879378,49.9273044 L94.1879378,43.2712998 Z M93.7299559,41.8820878 C94.1116075,41.8820878 94.4169288,41.5615004 94.4169288,41.1951149 C94.4169288,40.8134632 94.1116075,40.5081419 93.7299559,40.5081419 C93.3635703,40.5081419 93.0429829,40.8134632 93.0429829,41.1951149 C93.0429829,41.5615004 93.3635703,41.8820878 93.7299559,41.8820878 Z M95.5618837,44.0498691 L96.5847101,44.0498691 L96.5847101,48.202239 C96.5847101,49.5761849 97.3022152,50.0799651 98.2639774,50.0799651 C98.8440879,50.0799651 99.3020698,49.9425705 99.6989875,49.7441117 L99.6989875,48.9350102 C99.2410056,49.1640012 98.8898861,49.3013958 98.4624362,49.3013958 C97.8365275,49.3013958 97.5006741,48.9655423 97.5006741,48.1106426 L97.5006741,44.0498691 L99.3784002,44.0498691 L99.3784002,43.2712998 L97.5006741,43.2712998 L97.5006741,41.6530968 L96.5847101,41.6530968 L96.5847101,43.2712998 L95.5618837,43.2712998 L95.5618837,44.0498691 Z M102.217888,43.2712998 L101.301924,43.2712998 L101.301924,49.9273044 L102.217888,49.9273044 L102.217888,43.2712998 Z M101.759906,41.8820878 C102.141558,41.8820878 102.446879,41.5615004 102.446879,41.1951149 C102.446879,40.8134632 102.141558,40.5081419 101.759906,40.5081419 C101.393521,40.5081419 101.072933,40.8134632 101.072933,41.1951149 C101.072933,41.5615004 101.393521,41.8820878 101.759906,41.8820878 Z M104.004018,46.5993021 C104.004018,44.5383833 105.362698,43.1186391 107.347286,43.1186391 C109.331875,43.1186391 110.690555,44.5383833 110.690555,46.5993021 C110.690555,48.660221 109.331875,50.0799651 107.347286,50.0799651 C105.362698,50.0799651 104.004018,48.660221 104.004018,46.5993021 Z M109.759325,46.5993021 C109.759325,44.9810992 108.751765,43.9124746 107.347286,43.9124746 C105.942808,43.9124746 104.935248,44.9810992 104.935248,46.5993021 C104.935248,48.2175051 105.942808,49.2861297 107.347286,49.2861297 C108.751765,49.2861297 109.759325,48.2175051 109.759325,46.5993021 Z M117.667147,43.2712998 L116.751183,43.2712998 L116.751183,49.1945333 C116.262669,49.2555976 115.743623,49.2861297 115.285641,49.2861297 C114.232282,49.2861297 113.239988,48.9655423 113.239988,47.7137249 L113.239988,43.2712998 L112.324024,43.2712998 L112.324024,47.7595231 C112.324024,49.4235243 113.423181,50.0799651 115.346705,50.0799651 C116.033678,50.0799651 116.858045,50.0036348 117.667147,49.8509741 L117.667147,43.2712998 Z M119.560139,49.5456528 C119.972323,49.8662402 120.689828,50.0799651 121.437865,50.0799651 C122.689683,50.0799651 123.712509,49.4845885 123.712509,48.1717069 C123.712509,46.9656877 122.93394,46.5229718 121.773719,46.1718523 C120.750892,45.8512649 120.384507,45.5306775 120.384507,44.9200349 C120.384507,44.2941262 120.857755,43.8972085 121.590526,43.8972085 C122.353829,43.8972085 122.888141,44.1872637 123.407188,44.6147136 L123.407188,43.6224193 C122.888141,43.2560337 122.246967,43.1186391 121.590526,43.1186391 C120.384507,43.1186391 119.499075,43.7445478 119.499075,44.9200349 C119.499075,45.9886595 120.002855,46.4771736 121.178342,46.8740913 C122.231701,47.2252108 122.811811,47.4389357 122.811811,48.2327712 C122.811811,48.9808084 122.277499,49.3013958 121.437865,49.3013958 C120.705094,49.3013958 120.124983,49.0113405 119.560139,48.5075603 L119.560139,49.5456528 Z M129.941064,45.0268974 L129.544146,44.6147136 C129.162494,44.2330619 128.612916,43.5308229 128.612916,42.6911893 C128.612916,41.5309683 129.406751,40.7066008 130.750165,40.7066008 C132.200441,40.7066008 132.994277,41.5462344 132.994277,42.7369875 C132.994277,43.9277406 132.200441,44.6147136 131.253945,45.1642919 L133.528589,47.5610643 C133.894975,46.9198895 134.078168,46.1718523 134.078168,45.4543472 L134.917801,45.4543472 C134.917801,46.4161093 134.627746,47.3778715 134.1087,48.1717069 L135.787967,49.9273044 L134.658278,49.9273044 L133.589653,48.8281477 C132.872148,49.5761849 131.879854,50.064699 130.673835,50.064699 C129.009834,50.064699 127.849613,49.1792672 127.849613,47.6526607 C127.849613,46.5229718 128.536586,45.8054667 129.941064,45.0268974 Z M130.200587,44.0498691 L130.734899,44.5994475 C131.46767,44.2025298 132.093579,43.7292818 132.093579,42.7369875 C132.063047,41.9431521 131.528735,41.5004362 130.750165,41.4851701 C129.971596,41.4851701 129.513614,42.0042163 129.513614,42.6911893 C129.513614,43.1644373 129.727339,43.546089 130.200587,44.0498691 Z M133.040075,48.2480372 L130.475376,45.5764757 C129.422017,46.1565862 128.796109,46.7519628 128.796109,47.6526607 C128.796109,48.6449549 129.635742,49.2861297 130.673835,49.2861297 C131.681395,49.2861297 132.475231,48.8739459 133.040075,48.2480372 Z M145.298726,39.5463798 L145.298726,49.8357081 C144.581221,50.0036348 143.833184,50.0799651 143.130945,50.0799651 C140.825769,50.0799651 139.26863,48.8281477 139.26863,46.5993021 C139.26863,44.3551905 140.947897,43.1186391 142.932486,43.1186391 C143.436266,43.1186391 144.046908,43.2255016 144.382762,43.4239605 L144.382762,39.5463798 L145.298726,39.5463798 Z M144.382762,49.1945333 L144.382762,44.248328 C144.046908,44.0651352 143.543128,43.9430067 142.932486,43.9430067 C141.390613,43.9430067 140.19986,44.8895028 140.19986,46.5993021 C140.19986,48.2938354 141.375347,49.2708636 143.130945,49.2708636 C143.558394,49.2708636 143.985844,49.2555976 144.382762,49.1945333 Z M153.038621,46.6451003 L148.000819,46.6451003 L148.000819,46.6756325 C148.000819,48.3091015 149.176307,49.2708636 150.473922,49.2708636 C151.420418,49.2708636 152.076859,49.0266066 152.748566,48.5228264 L152.748566,49.4387903 C152.153189,49.8815063 151.29829,50.0799651 150.473922,50.0799651 C148.550398,50.0799651 147.084856,48.7670835 147.084856,46.5993021 C147.084856,44.5994475 148.458801,43.1186391 150.244931,43.1186391 C151.924198,43.1186391 153.038621,44.1261995 153.038621,46.0191916 L153.038621,46.6451003 Z M148.061884,45.881797 L152.122657,45.881797 C152.061593,44.4925851 151.313556,43.9277406 150.199133,43.9277406 C149.16104,43.9277406 148.321407,44.6299796 148.061884,45.881797 Z M155.710183,39.5463798 L154.794219,39.5463798 L154.794219,49.9273044 L155.710183,49.9273044 L155.710183,39.5463798 Z M158.916056,43.2712998 L158.000093,43.2712998 L158.000093,49.9273044 L158.916056,49.9273044 L158.916056,43.2712998 Z M158.458074,41.8820878 C158.839726,41.8820878 159.145047,41.5615004 159.145047,41.1951149 C159.145047,40.8134632 158.839726,40.5081419 158.458074,40.5081419 C158.091689,40.5081419 157.771102,40.8134632 157.771102,41.1951149 C157.771102,41.5615004 158.091689,41.8820878 158.458074,41.8820878 Z M163.755399,49.9273044 L166.365897,43.2712998 L165.434667,43.2712998 L163.266885,49.0724048 L161.099104,43.2712998 L160.137342,43.2712998 L162.747839,49.9273044 L163.755399,49.9273044 Z M173.037167,46.6451003 L167.999366,46.6451003 L167.999366,46.6756325 C167.999366,48.3091015 169.174853,49.2708636 170.472468,49.2708636 C171.418964,49.2708636 172.075405,49.0266066 172.747112,48.5228264 L172.747112,49.4387903 C172.151735,49.8815063 171.296836,50.0799651 170.472468,50.0799651 C168.548944,50.0799651 167.083402,48.7670835 167.083402,46.5993021 C167.083402,44.5994475 168.457348,43.1186391 170.243477,43.1186391 C171.922744,43.1186391 173.037167,44.1261995 173.037167,46.0191916 L173.037167,46.6451003 Z M168.06043,45.881797 L172.121203,45.881797 C172.060139,44.4925851 171.312102,43.9277406 170.197679,43.9277406 C169.159587,43.9277406 168.319953,44.6299796 168.06043,45.881797 Z M175.708729,44.3704565 C176.059848,44.1719977 176.548362,44.0346031 177.204803,44.0346031 C177.510125,44.0346031 177.983373,44.0651352 178.38029,44.2025298 L178.38029,43.3018319 C177.998639,43.2102355 177.632253,43.1644373 177.265867,43.1644373 C176.349904,43.1644373 175.495004,43.4392265 174.792765,43.8819424 L174.792765,49.9273044 L175.708729,49.9273044 L175.708729,44.3704565 Z M185.280552,46.6451003 L180.24275,46.6451003 L180.24275,46.6756325 C180.24275,48.3091015 181.418237,49.2708636 182.715853,49.2708636 C183.662349,49.2708636 184.31879,49.0266066 184.990497,48.5228264 L184.990497,49.4387903 C184.39512,49.8815063 183.54022,50.0799651 182.715853,50.0799651 C180.792329,50.0799651 179.326786,48.7670835 179.326786,46.5993021 C179.326786,44.5994475 180.700732,43.1186391 182.486862,43.1186391 C184.166129,43.1186391 185.280552,44.1261995 185.280552,46.0191916 L185.280552,46.6451003 Z M180.303815,45.881797 L184.364588,45.881797 C184.303524,44.4925851 183.555487,43.9277406 182.441064,43.9277406 C181.402971,43.9277406 180.563338,44.6299796 180.303815,45.881797 Z M192.562465,39.5463798 L192.562465,49.8357081 C191.84496,50.0036348 191.096923,50.0799651 190.394684,50.0799651 C188.089508,50.0799651 186.532369,48.8281477 186.532369,46.5993021 C186.532369,44.3551905 188.211637,43.1186391 190.196225,43.1186391 C190.700005,43.1186391 191.310648,43.2255016 191.646501,43.4239605 L191.646501,39.5463798 L192.562465,39.5463798 Z M191.646501,49.1945333 L191.646501,44.248328 C191.310648,44.0651352 190.806868,43.9430067 190.196225,43.9430067 C188.654352,43.9430067 187.463599,44.8895028 187.463599,46.5993021 C187.463599,48.2938354 188.639086,49.2708636 190.394684,49.2708636 C190.822134,49.2708636 191.249584,49.2555976 191.646501,49.1945333 Z" id="Delicious,-nutritiou"></path>
        </g>
    </g>
</svg>