<?xml version="1.0" encoding="UTF-8" standalone="no"?>
<svg width="181px" height="47px" viewBox="0 0 181 47" version="1.1" xmlns="http://www.w3.org/2000/svg" xmlns:xlink="http://www.w3.org/1999/xlink">
    <!-- Generator: Sketch 42 (36781) - http://www.bohemiancoding.com/sketch -->
    <title>logo</title>
    <desc>Created with Sketch.</desc>
    <defs></defs>
    <g id="Page-1" stroke="none" stroke-width="1" fill="none" fill-rule="evenodd">
        <g id="Desktop-HD" transform="translate(-52.000000, -3630.000000)">
            <g id="footer" transform="translate(0.000000, 3592.000000)">
                <g id="logo" transform="translate(52.000000, 38.000000)">
                    <path d="M28.7438527,17.2308389 L28.7438527,18.8971002 L16.8720776,18.8971002 L16.8720776,16.8650356 L26.3044417,16.8650356 C26.1418019,13.5326996 24.5155901,12.0696728 22.0354959,11.7852938 L22.0354959,9.55008804 C26.1012119,9.83446702 28.7438527,12.4760484 28.7438527,17.2308389 M21.9135394,25.8462444 C24.4342236,25.8462444 26.1824852,25.2367276 27.9714301,23.8956042 L27.9714301,26.3341376 C26.3858083,27.5125057 24.1090372,28.0407846 21.9135394,28.0407846 C16.7908044,28.0407846 12.8877282,24.545973 12.8877282,18.7752901 C12.8877282,13.8171719 16.099655,10.0377947 20.4092841,9.55008804 L20.4092841,11.7852938 C17.482047,12.1917627 15.3271391,14.6706819 15.3271391,18.7752901 C15.3271391,23.3673252 18.4577927,25.8462444 21.9135394,25.8462444 Z M44.7622438,15.2395704 C44.7622438,12.9637924 43.2578953,11.7853311 40.9812175,11.7853311 C38.9482661,11.7853311 37.403421,12.3541824 35.7771159,13.2076924 L35.7771159,10.8912488 C37.2813711,10.0784043 39.1922726,9.5094598 41.2657205,9.5094598 C44.843517,9.5094598 47.1609714,11.09439 47.1609714,15.0770948 L47.1609714,25.3994271 L49.4784258,24.7897238 L49.4784258,26.7809363 C48.299357,27.2279774 46.4698221,27.5937808 44.7622438,27.756443 L44.7622438,15.2395704 Z M42.2414663,25.9682783 L43.1359387,25.9682783 L43.1359387,27.9189186 C42.8107523,27.9595841 42.5260626,27.9595841 42.2414663,27.9595841 C37.3221477,27.9595841 34.1102208,26.455985 34.1102208,22.7171802 C34.1102208,19.2220888 37.3221477,17.3935384 42.7293858,17.3935384 L43.1359387,17.3935384 L43.1359387,19.3847509 L42.8920256,19.3847509 C39.2329558,19.3847509 36.5495385,20.360071 36.5495385,22.7171802 C36.5495385,25.074196 38.9890427,25.9682783 42.2414663,25.9682783 Z M69.5218123,16.1742717 C69.5218123,12.8012701 67.2857245,11.6632879 64.5210339,11.6632879 C63.4640149,11.6632879 62.3662193,11.7447122 61.3904736,11.8665223 L61.3904736,9.75321988 C62.4475859,9.59074425 63.5046049,9.50950644 64.5210339,9.50950644 C69.1965327,9.50950644 71.9612233,11.256819 71.9612233,15.686565 L71.9612233,25.7649973 L74.603864,25.7649973 L74.603864,27.6343997 L66.8791716,27.6343997 L66.8791716,25.7649973 L69.5218123,25.7649973 L69.5218123,16.1742717 Z M59.7642619,10.0784509 L59.7642619,25.7649973 L62.4069026,25.7649973 L62.4069026,27.6343997 L54.6821168,27.6343997 L54.6821168,25.7649973 L57.3248509,25.7649973 L57.3248509,12.8418424 L54.6821168,13.7359247 L54.6821168,11.6632879 C56.1457821,11.0131055 57.9346337,10.444161 59.7642619,10.0784509 Z M78.872166,9.32695912e-06 L85.8244359,9.32695912e-06 L85.8244359,23.8143477 L87.9793438,23.8143477 L87.9793438,27.6343904 L78.872166,27.6343904 L78.872166,23.8143477 L81.0269806,23.8143477 L81.0269806,3.820052 L78.872166,3.820052 L78.872166,9.32695912e-06 Z M111.681669,27.0655018 C109.242258,27.512543 106.680891,27.7971085 104.770083,27.9595841 L104.770083,13.3295957 L102.574585,13.3295957 L102.574585,9.5094598 L109.526855,9.5094598 L109.526855,23.7330726 L111.681669,23.326697 L111.681669,27.0655018 Z M103.428374,24.0988759 L103.428374,28.0001564 C103.184461,28.0408219 102.655858,28.0408219 102.452628,28.0408219 C96.8826572,28.0408219 93.6301404,26.5372228 93.6301404,21.2135811 L93.6301404,13.3295957 L91.4753258,13.3295957 L91.4753258,9.5094598 L98.3869124,9.5094598 L98.3869124,20.8071122 C98.3869124,23.2047936 99.484708,24.0988759 102.290082,24.0988759 L103.428374,24.0988759 Z M129.976682,16.5400657 C129.976682,14.3860977 128.757024,13.3702053 126.520842,13.3702053 C125.870376,13.3702053 125.179227,13.4107776 124.528668,13.4920154 L124.528668,9.22493158 C125.2605,9.14369377 126.032923,9.1031215 126.683482,9.1031215 C131.724851,9.1031215 134.774138,10.8506206 134.774138,16.2149279 L134.774138,23.8143477 L136.928952,23.8143477 L136.928952,27.6343904 L127.821868,27.6343904 L127.821868,23.8143477 L129.976682,23.8143477 L129.976682,16.5400657 Z M123.186959,9.42825929 L123.186959,23.8143477 L125.341774,23.8143477 L125.341774,27.6343904 L116.234782,27.6343904 L116.234782,23.8143477 L118.430187,23.8143477 L118.430187,14.3860977 L116.234782,14.9143767 L116.234782,10.9725239 C117.942267,10.4035794 120.747641,9.75321055 123.186959,9.42825929 Z M156.078137,15.8897248 L152.093787,15.8897248 L152.093787,9.26562511 C153.557359,9.38762173 154.939751,9.79390408 156.078137,10.4441797 L156.078137,15.8897248 Z M150.060929,9.10305621 C150.304843,9.10305621 150.426892,9.10305621 150.711395,9.14372175 L150.711395,13.24833 C147.662202,13.24833 145.58866,15.280208 145.58866,18.4907339 C145.58866,21.9043077 147.946705,23.8956135 150.955402,23.8956135 C153.069533,23.8956135 154.614472,23.326669 155.99677,22.270111 L155.99677,26.6996705 C154.370465,27.6749906 152.541024,28.040794 150.589439,28.040794 C144.653505,28.040794 140.750522,24.3426546 140.750522,18.612544 C140.750522,12.9637644 144.694281,9.26562511 150.060929,9.10305621 Z M168.640399,13.614096 L168.640399,9.50948778 C169.534778,9.30616007 170.632573,9.10311217 171.811549,9.10311217 C175.755308,9.10311217 178.845185,10.9318491 178.845185,16.2149186 L178.845185,23.8143384 L181,23.8143384 L181,27.634381 L171.933599,27.634381 L171.933599,23.8143384 L174.088413,23.8143384 L174.088413,16.5400563 C174.088413,14.4267539 172.868568,13.4107683 170.835803,13.4107683 C170.063381,13.4107683 169.331548,13.4920061 168.640399,13.614096 Z M169.453505,23.8143384 L169.453505,27.634381 L160.34642,27.634381 L160.34642,23.8143384 L162.501235,23.8143384 L162.501235,3.82004268 L160.34642,3.82004268 L160.34642,0 L167.29869,0 L167.29869,23.8143384 L169.453505,23.8143384 Z M0,3.73078369e-05 L5.08205171,3.73078369e-05 L5.08205171,25.7650159 L7.76528245,25.7650159 L7.76528245,27.6344183 L0,27.6344183 L0,25.7650159 L2.64264076,25.7650159 L2.64264076,1.86943974 L0,1.86943974 L0,3.73078369e-05 Z" fill="#00FF00"></path>
                    <path d="M7.09797847,45.1980263 L7.09797847,36.95 C7.70587321,36.8809211 8.27232057,36.8394737 8.78350478,36.8394737 C12.5413995,36.8394737 13.8124522,38.7875 13.8124522,40.8875 C13.8124522,43.1947368 12.4723206,45.3223684 8.8940311,45.3223684 C8.20324163,45.3223684 7.67824163,45.2671053 7.09797847,45.1980263 Z M7.95455742,37.6546053 L7.95455742,44.5210526 C8.28613636,44.5625 8.60389952,44.5763158 8.90784689,44.5763158 C11.2565311,44.5763158 12.9144258,43.4019737 12.9144258,40.9013158 C12.9144258,38.9671053 11.6848206,37.6131579 8.75587321,37.6131579 C8.49337321,37.6131579 8.244689,37.6269737 7.95455742,37.6546053 Z M20.4025837,42.2138158 L15.8433732,42.2138158 L15.8433732,42.2414474 C15.8433732,43.7197368 16.907189,44.5901316 18.0815311,44.5901316 C18.93811,44.5901316 19.532189,44.3690789 20.1400837,43.9131579 L20.1400837,44.7421053 C19.6012679,45.1427632 18.8275837,45.3223684 18.0815311,45.3223684 C16.3407416,45.3223684 15.0144258,44.1342105 15.0144258,42.1723684 C15.0144258,40.3625 16.2578469,39.0223684 17.8742943,39.0223684 C19.3940311,39.0223684 20.4025837,39.9342105 20.4025837,41.6473684 L20.4025837,42.2138158 Z M15.8986364,41.5230263 L19.5736364,41.5230263 C19.5183732,40.2657895 18.8413995,39.7546053 17.8328469,39.7546053 C16.8933732,39.7546053 16.1335048,40.3901316 15.8986364,41.5230263 Z M22.8203469,35.7894737 L21.9913995,35.7894737 L21.9913995,45.1842105 L22.8203469,45.1842105 L22.8203469,35.7894737 Z M25.7216627,39.1605263 L24.8927153,39.1605263 L24.8927153,45.1842105 L25.7216627,45.1842105 L25.7216627,39.1605263 Z M25.307189,37.9032895 C25.6525837,37.9032895 25.9288995,37.6131579 25.9288995,37.2815789 C25.9288995,36.9361842 25.6525837,36.6598684 25.307189,36.6598684 C24.97561,36.6598684 24.6854785,36.9361842 24.6854785,37.2815789 C24.6854785,37.6131579 24.97561,37.9032895 25.307189,37.9032895 Z M32.1874522,39.4782895 C31.6486364,39.1743421 31.1236364,39.0223684 30.4604785,39.0223684 C28.8302153,39.0223684 27.33811,40.1552632 27.33811,42.1723684 C27.33811,44.1480263 28.7887679,45.3223684 30.4742943,45.3223684 C31.1098206,45.3223684 31.6900837,45.1703947 32.2841627,44.8664474 L32.2841627,43.9960526 C31.7315311,44.3552632 31.1927153,44.5625 30.557189,44.5625 C29.244689,44.5625 28.1808732,43.7059211 28.1808732,42.1861842 C28.1808732,40.6111842 29.2585048,39.7822368 30.5019258,39.7822368 C31.0683732,39.7822368 31.6762679,39.9894737 32.1874522,40.3486842 L32.1874522,39.4782895 Z M34.7019258,39.1605263 L33.8729785,39.1605263 L33.8729785,45.1842105 L34.7019258,45.1842105 L34.7019258,39.1605263 Z M34.2874522,37.9032895 C34.6328469,37.9032895 34.9091627,37.6131579 34.9091627,37.2815789 C34.9091627,36.9361842 34.6328469,36.6598684 34.2874522,36.6598684 C33.9558732,36.6598684 33.6657416,36.9361842 33.6657416,37.2815789 C33.6657416,37.6131579 33.9558732,37.9032895 34.2874522,37.9032895 Z M36.3183732,42.1723684 C36.3183732,40.3072368 37.5479785,39.0223684 39.3440311,39.0223684 C41.1400837,39.0223684 42.369689,40.3072368 42.369689,42.1723684 C42.369689,44.0375 41.1400837,45.3223684 39.3440311,45.3223684 C37.5479785,45.3223684 36.3183732,44.0375 36.3183732,42.1723684 Z M41.5269258,42.1723684 C41.5269258,40.7078947 40.6150837,39.7407895 39.3440311,39.7407895 C38.0729785,39.7407895 37.1611364,40.7078947 37.1611364,42.1723684 C37.1611364,43.6368421 38.0729785,44.6039474 39.3440311,44.6039474 C40.6150837,44.6039474 41.5269258,43.6368421 41.5269258,42.1723684 Z M48.6835048,39.1605263 L47.8545574,39.1605263 L47.8545574,44.5210526 C47.4124522,44.5763158 46.9427153,44.6039474 46.5282416,44.6039474 C45.5749522,44.6039474 44.6769258,44.3138158 44.6769258,43.1809211 L44.6769258,39.1605263 L43.8479785,39.1605263 L43.8479785,43.2223684 C43.8479785,44.7282895 44.8427153,45.3223684 46.5835048,45.3223684 C47.2052153,45.3223684 47.9512679,45.2532895 48.6835048,45.1151316 L48.6835048,39.1605263 Z M50.3966627,44.8388158 C50.769689,45.1289474 51.4190311,45.3223684 52.0960048,45.3223684 C53.2288995,45.3223684 54.1545574,44.7835526 54.1545574,43.5953947 C54.1545574,42.5039474 53.4499522,42.1032895 52.3999522,41.7855263 C51.4742943,41.4953947 51.1427153,41.2052632 51.1427153,40.6526316 C51.1427153,40.0861842 51.5710048,39.7269737 52.2341627,39.7269737 C52.9249522,39.7269737 53.4085048,39.9894737 53.8782416,40.3763158 L53.8782416,39.4782895 C53.4085048,39.1467105 52.8282416,39.0223684 52.2341627,39.0223684 C51.1427153,39.0223684 50.3413995,39.5888158 50.3413995,40.6526316 C50.3413995,41.6197368 50.7973206,42.0618421 51.8611364,42.4210526 C52.8144258,42.7388158 53.3394258,42.9322368 53.3394258,43.6506579 C53.3394258,44.3276316 52.8558732,44.6177632 52.0960048,44.6177632 C51.4328469,44.6177632 50.9078469,44.3552632 50.3966627,43.8993421 L50.3966627,44.8388158 Z M55.9367943,44.0789474 C55.9367943,45.1842105 55.5361364,46.2065789 54.8729785,46.8973684 L55.5361364,46.8973684 C56.2545574,46.4276316 56.9038995,45.2256579 56.9038995,44.0789474 L55.9367943,44.0789474 Z M61.7394258,45.1842105 L62.5683732,45.1842105 L62.5683732,40.0171053 C62.9966627,39.9065789 63.56311,39.7960526 64.1986364,39.7960526 C65.0137679,39.7960526 65.8841627,40.0585526 65.8841627,41.2881579 L65.8841627,45.1842105 L66.71311,45.1842105 L66.71311,41.1223684 C66.71311,39.6164474 65.7874522,39.0223684 64.2677153,39.0223684 C63.4525837,39.0223684 62.5407416,39.1881579 61.7394258,39.4782895 L61.7394258,45.1842105 Z M73.4137679,39.1605263 L72.5848206,39.1605263 L72.5848206,44.5210526 C72.1427153,44.5763158 71.6729785,44.6039474 71.2585048,44.6039474 C70.3052153,44.6039474 69.407189,44.3138158 69.407189,43.1809211 L69.407189,39.1605263 L68.5782416,39.1605263 L68.5782416,43.2223684 C68.5782416,44.7282895 69.5729785,45.3223684 71.3137679,45.3223684 C71.9354785,45.3223684 72.6815311,45.2532895 73.4137679,45.1151316 L73.4137679,39.1605263 Z M74.657189,39.8651316 L75.5828469,39.8651316 L75.5828469,43.6230263 C75.5828469,44.8664474 76.232189,45.3223684 77.1025837,45.3223684 C77.6275837,45.3223684 78.0420574,45.1980263 78.4012679,45.0184211 L78.4012679,44.2861842 C77.9867943,44.4934211 77.6690311,44.6177632 77.282189,44.6177632 C76.7157416,44.6177632 76.4117943,44.3138158 76.4117943,43.5401316 L76.4117943,39.8651316 L78.1111364,39.8651316 L78.1111364,39.1605263 L76.4117943,39.1605263 L76.4117943,37.6960526 L75.5828469,37.6960526 L75.5828469,39.1605263 L74.657189,39.1605263 L74.657189,39.8651316 Z M80.6808732,40.1552632 C80.9986364,39.9756579 81.4407416,39.8513158 82.0348206,39.8513158 C82.3111364,39.8513158 82.7394258,39.8789474 83.0986364,40.0032895 L83.0986364,39.1881579 C82.7532416,39.1052632 82.4216627,39.0638158 82.0900837,39.0638158 C81.2611364,39.0638158 80.4874522,39.3125 79.8519258,39.7131579 L79.8519258,45.1842105 L80.6808732,45.1842105 L80.6808732,40.1552632 Z M85.2400837,39.1605263 L84.4111364,39.1605263 L84.4111364,45.1842105 L85.2400837,45.1842105 L85.2400837,39.1605263 Z M84.82561,37.9032895 C85.1710048,37.9032895 85.4473206,37.6131579 85.4473206,37.2815789 C85.4473206,36.9361842 85.1710048,36.6598684 84.82561,36.6598684 C84.4940311,36.6598684 84.2038995,36.9361842 84.2038995,37.2815789 C84.2038995,37.6131579 84.4940311,37.9032895 84.82561,37.9032895 Z M86.4835048,39.8651316 L87.4091627,39.8651316 L87.4091627,43.6230263 C87.4091627,44.8664474 88.0585048,45.3223684 88.9288995,45.3223684 C89.4538995,45.3223684 89.8683732,45.1980263 90.2275837,45.0184211 L90.2275837,44.2861842 C89.81311,44.4934211 89.4953469,44.6177632 89.1085048,44.6177632 C88.5420574,44.6177632 88.23811,44.3138158 88.23811,43.5401316 L88.23811,39.8651316 L89.9374522,39.8651316 L89.9374522,39.1605263 L88.23811,39.1605263 L88.23811,37.6960526 L87.4091627,37.6960526 L87.4091627,39.1605263 L86.4835048,39.1605263 L86.4835048,39.8651316 Z M92.507189,39.1605263 L91.6782416,39.1605263 L91.6782416,45.1842105 L92.507189,45.1842105 L92.507189,39.1605263 Z M92.0927153,37.9032895 C92.43811,37.9032895 92.7144258,37.6131579 92.7144258,37.2815789 C92.7144258,36.9361842 92.43811,36.6598684 92.0927153,36.6598684 C91.7611364,36.6598684 91.4710048,36.9361842 91.4710048,37.2815789 C91.4710048,37.6131579 91.7611364,37.9032895 92.0927153,37.9032895 Z M94.1236364,42.1723684 C94.1236364,40.3072368 95.3532416,39.0223684 97.1492943,39.0223684 C98.9453469,39.0223684 100.174952,40.3072368 100.174952,42.1723684 C100.174952,44.0375 98.9453469,45.3223684 97.1492943,45.3223684 C95.3532416,45.3223684 94.1236364,44.0375 94.1236364,42.1723684 Z M99.332189,42.1723684 C99.332189,40.7078947 98.4203469,39.7407895 97.1492943,39.7407895 C95.8782416,39.7407895 94.9663995,40.7078947 94.9663995,42.1723684 C94.9663995,43.6368421 95.8782416,44.6039474 97.1492943,44.6039474 C98.4203469,44.6039474 99.332189,43.6368421 99.332189,42.1723684 Z M106.488768,39.1605263 L105.659821,39.1605263 L105.659821,44.5210526 C105.217715,44.5763158 104.747978,44.6039474 104.333505,44.6039474 C103.380215,44.6039474 102.482189,44.3138158 102.482189,43.1809211 L102.482189,39.1605263 L101.653242,39.1605263 L101.653242,43.2223684 C101.653242,44.7282895 102.647978,45.3223684 104.388768,45.3223684 C105.010478,45.3223684 105.756531,45.2532895 106.488768,45.1151316 L106.488768,39.1605263 Z M108.201926,44.8388158 C108.574952,45.1289474 109.224294,45.3223684 109.901268,45.3223684 C111.034163,45.3223684 111.959821,44.7835526 111.959821,43.5953947 C111.959821,42.5039474 111.255215,42.1032895 110.205215,41.7855263 C109.279557,41.4953947 108.947978,41.2052632 108.947978,40.6526316 C108.947978,40.0861842 109.376268,39.7269737 110.039426,39.7269737 C110.730215,39.7269737 111.213768,39.9894737 111.683505,40.3763158 L111.683505,39.4782895 C111.213768,39.1467105 110.633505,39.0223684 110.039426,39.0223684 C108.947978,39.0223684 108.146663,39.5888158 108.146663,40.6526316 C108.146663,41.6197368 108.602584,42.0618421 109.6664,42.4210526 C110.619689,42.7388158 111.144689,42.9322368 111.144689,43.6506579 C111.144689,44.3276316 110.661136,44.6177632 109.901268,44.6177632 C109.23811,44.6177632 108.71311,44.3552632 108.201926,43.8993421 L108.201926,44.8388158 Z M117.596663,40.7493421 L117.237452,40.3763158 C116.892057,40.0309211 116.394689,39.3953947 116.394689,38.6355263 C116.394689,37.5855263 117.11311,36.8394737 118.3289,36.8394737 C119.6414,36.8394737 120.359821,37.5993421 120.359821,38.6769737 C120.359821,39.7546053 119.6414,40.3763158 118.784821,40.8736842 L120.843373,43.0427632 C121.174952,42.4625 121.340742,41.7855263 121.340742,41.1361842 L122.10061,41.1361842 C122.10061,42.0065789 121.83811,42.8769737 121.368373,43.5953947 L122.88811,45.1842105 L121.865742,45.1842105 L120.898636,44.1894737 C120.249294,44.8664474 119.351268,45.3085526 118.259821,45.3085526 C116.7539,45.3085526 115.7039,44.5072368 115.7039,43.1256579 C115.7039,42.1032895 116.32561,41.4539474 117.596663,40.7493421 Z M117.831531,39.8651316 L118.315084,40.3625 C118.978242,40.0032895 119.544689,39.575 119.544689,38.6769737 C119.517057,37.9585526 119.033505,37.5578947 118.3289,37.5440789 C117.624294,37.5440789 117.209821,38.0138158 117.209821,38.6355263 C117.209821,39.0638158 117.403242,39.4092105 117.831531,39.8651316 Z M120.401268,43.6644737 L118.080215,41.2467105 C117.126926,41.7717105 116.560478,42.3105263 116.560478,43.1256579 C116.560478,44.0236842 117.320347,44.6039474 118.259821,44.6039474 C119.171663,44.6039474 119.890084,44.2309211 120.401268,43.6644737 Z M131.495347,35.7894737 L131.495347,45.1013158 C130.846005,45.2532895 130.169031,45.3223684 129.533505,45.3223684 C127.447321,45.3223684 126.03811,44.1894737 126.03811,42.1723684 C126.03811,40.1414474 127.557847,39.0223684 129.3539,39.0223684 C129.809821,39.0223684 130.362452,39.1190789 130.6664,39.2986842 L130.6664,35.7894737 L131.495347,35.7894737 Z M130.6664,44.5210526 L130.6664,40.0447368 C130.362452,39.8789474 129.906531,39.7684211 129.3539,39.7684211 C127.958505,39.7684211 126.880873,40.625 126.880873,42.1723684 C126.880873,43.7059211 127.944689,44.5901316 129.533505,44.5901316 C129.920347,44.5901316 130.307189,44.5763158 130.6664,44.5210526 Z M138.499952,42.2138158 L133.940742,42.2138158 L133.940742,42.2414474 C133.940742,43.7197368 135.004557,44.5901316 136.1789,44.5901316 C137.035478,44.5901316 137.629557,44.3690789 138.237452,43.9131579 L138.237452,44.7421053 C137.698636,45.1427632 136.924952,45.3223684 136.1789,45.3223684 C134.43811,45.3223684 133.111794,44.1342105 133.111794,42.1723684 C133.111794,40.3625 134.355215,39.0223684 135.971663,39.0223684 C137.4914,39.0223684 138.499952,39.9342105 138.499952,41.6473684 L138.499952,42.2138158 Z M133.996005,41.5230263 L137.671005,41.5230263 C137.615742,40.2657895 136.938768,39.7546053 135.930215,39.7546053 C134.990742,39.7546053 134.230873,40.3901316 133.996005,41.5230263 Z M140.917715,35.7894737 L140.088768,35.7894737 L140.088768,45.1842105 L140.917715,45.1842105 L140.917715,35.7894737 Z M143.819031,39.1605263 L142.990084,39.1605263 L142.990084,45.1842105 L143.819031,45.1842105 L143.819031,39.1605263 Z M143.404557,37.9032895 C143.749952,37.9032895 144.026268,37.6131579 144.026268,37.2815789 C144.026268,36.9361842 143.749952,36.6598684 143.404557,36.6598684 C143.072978,36.6598684 142.782847,36.9361842 142.782847,37.2815789 C142.782847,37.6131579 143.072978,37.9032895 143.404557,37.9032895 Z M148.198636,45.1842105 L150.561136,39.1605263 L149.718373,39.1605263 L147.756531,44.4105263 L145.794689,39.1605263 L144.924294,39.1605263 L147.286794,45.1842105 L148.198636,45.1842105 Z M156.598636,42.2138158 L152.039426,42.2138158 L152.039426,42.2414474 C152.039426,43.7197368 153.103242,44.5901316 154.277584,44.5901316 C155.134163,44.5901316 155.728242,44.3690789 156.336136,43.9131579 L156.336136,44.7421053 C155.797321,45.1427632 155.023636,45.3223684 154.277584,45.3223684 C152.536794,45.3223684 151.210478,44.1342105 151.210478,42.1723684 C151.210478,40.3625 152.4539,39.0223684 154.070347,39.0223684 C155.590084,39.0223684 156.598636,39.9342105 156.598636,41.6473684 L156.598636,42.2138158 Z M152.094689,41.5230263 L155.769689,41.5230263 C155.714426,40.2657895 155.037452,39.7546053 154.0289,39.7546053 C153.089426,39.7546053 152.329557,40.3901316 152.094689,41.5230263 Z M159.0164,40.1552632 C159.334163,39.9756579 159.776268,39.8513158 160.370347,39.8513158 C160.646663,39.8513158 161.074952,39.8789474 161.434163,40.0032895 L161.434163,39.1881579 C161.088768,39.1052632 160.757189,39.0638158 160.42561,39.0638158 C159.596663,39.0638158 158.822978,39.3125 158.187452,39.7131579 L158.187452,45.1842105 L159.0164,45.1842105 L159.0164,40.1552632 Z M167.6789,42.2138158 L163.119689,42.2138158 L163.119689,42.2414474 C163.119689,43.7197368 164.183505,44.5901316 165.357847,44.5901316 C166.214426,44.5901316 166.808505,44.3690789 167.4164,43.9131579 L167.4164,44.7421053 C166.877584,45.1427632 166.1039,45.3223684 165.357847,45.3223684 C163.617057,45.3223684 162.290742,44.1342105 162.290742,42.1723684 C162.290742,40.3625 163.534163,39.0223684 165.15061,39.0223684 C166.670347,39.0223684 167.6789,39.9342105 167.6789,41.6473684 L167.6789,42.2138158 Z M163.174952,41.5230263 L166.849952,41.5230263 C166.794689,40.2657895 166.117715,39.7546053 165.109163,39.7546053 C164.169689,39.7546053 163.409821,40.3901316 163.174952,41.5230263 Z M174.269031,35.7894737 L174.269031,45.1013158 C173.619689,45.2532895 172.942715,45.3223684 172.307189,45.3223684 C170.221005,45.3223684 168.811794,44.1894737 168.811794,42.1723684 C168.811794,40.1414474 170.331531,39.0223684 172.127584,39.0223684 C172.583505,39.0223684 173.136136,39.1190789 173.440084,39.2986842 L173.440084,35.7894737 L174.269031,35.7894737 Z M173.440084,44.5210526 L173.440084,40.0447368 C173.136136,39.8789474 172.680215,39.7684211 172.127584,39.7684211 C170.732189,39.7684211 169.654557,40.625 169.654557,42.1723684 C169.654557,43.7059211 170.718373,44.5901316 172.307189,44.5901316 C172.694031,44.5901316 173.080873,44.5763158 173.440084,44.5210526 Z" id="Delicious,-nutritiou" fill="#FFFFFF"></path>
                </g>
            </g>
        </g>
    </g>
</svg>