<?xml version="1.0" encoding="UTF-8" standalone="no"?>
<svg width="1940px" height="301px" viewBox="0 0 1940 301" version="1.1" xmlns="http://www.w3.org/2000/svg" xmlns:xlink="http://www.w3.org/1999/xlink">
    <!-- Generator: Sketch 42 (36781) - http://www.bohemiancoding.com/sketch -->
    <title>logo</title>
    <desc>Created with Sketch.</desc>
    <defs></defs>
    <g id="Page-1" stroke="none" stroke-width="1" fill="none" fill-rule="evenodd">
        <path d="M308.0459,184.7426 L308.0459,202.6076 L180.8169,202.6076 L180.8169,180.8206 L281.9029,180.8206 C280.1599,145.0926 262.7319,129.4066 236.1529,126.3576 L236.1529,102.3926 C279.7249,105.4416 308.0459,133.7636 308.0459,184.7426 M234.8459,277.1136 C261.8599,277.1136 280.5959,270.5786 299.7679,256.1996 L299.7679,282.3446 C282.7749,294.9786 258.3749,300.6426 234.8459,300.6426 C179.9459,300.6426 138.1169,263.1726 138.1169,201.3016 C138.1169,148.1426 172.5389,107.6216 218.7249,102.3926 L218.7249,126.3576 C187.3539,130.7156 164.2599,157.2936 164.2599,201.3016 C164.2599,250.5356 197.8109,277.1136 234.8459,277.1136 Z M479.7139,163.393 C479.7139,138.993 463.5919,126.358 439.1929,126.358 C417.4059,126.358 400.8499,132.457 383.4209,141.608 L383.4209,116.772 C399.5419,108.057 420.0209,101.957 442.2419,101.957 C480.5849,101.957 505.4209,118.95 505.4209,161.651 L505.4209,272.323 L530.2569,265.786 L530.2569,287.135 C517.6209,291.928 498.0139,295.85 479.7139,297.594 L479.7139,163.393 Z M452.6989,278.422 L462.2849,278.422 L462.2849,299.336 C458.7999,299.772 455.7489,299.772 452.6989,299.772 C399.9789,299.772 365.5569,283.651 365.5569,243.565 C365.5569,206.092 399.9789,186.487 457.9279,186.487 L462.2849,186.487 L462.2849,207.836 L459.6709,207.836 C420.4569,207.836 391.6989,218.293 391.6989,243.565 C391.6989,268.836 417.8429,278.422 452.6989,278.422 Z M745.0605,173.4145 C745.0605,137.2505 721.0965,125.0495 691.4675,125.0495 C680.1395,125.0495 668.3745,125.9225 657.9175,127.2285 L657.9175,104.5705 C669.2465,102.8285 680.5745,101.9575 691.4675,101.9575 C741.5745,101.9575 771.2035,120.6915 771.2035,168.1855 L771.2035,276.2425 L799.5245,276.2425 L799.5245,296.2855 L716.7395,296.2855 L716.7395,276.2425 L745.0605,276.2425 L745.0605,173.4145 Z M640.4895,108.0575 L640.4895,276.2425 L668.8105,276.2425 L668.8105,296.2855 L586.0245,296.2855 L586.0245,276.2425 L614.3465,276.2425 L614.3465,137.6855 L586.0245,147.2715 L586.0245,125.0495 C601.7105,118.0785 620.8815,111.9785 640.4895,108.0575 Z M845.2676,0.0004 L919.7746,0.0004 L919.7746,255.3284 L942.8686,255.3284 L942.8686,296.2854 L845.2676,296.2854 L845.2676,255.3284 L868.3606,255.3284 L868.3606,40.9574 L845.2676,40.9574 L845.2676,0.0004 Z M1196.8848,290.186 C1170.7418,294.979 1143.2918,298.03 1122.8138,299.772 L1122.8138,142.915 L1099.2848,142.915 L1099.2848,101.957 L1173.7918,101.957 L1173.7918,254.457 L1196.8848,250.1 L1196.8848,290.186 Z M1108.4348,258.379 L1108.4348,300.207 C1105.8208,300.643 1100.1558,300.643 1097.9778,300.643 C1038.2848,300.643 1003.4278,284.522 1003.4278,227.444 L1003.4278,142.915 L980.3348,142.915 L980.3348,101.957 L1054.4058,101.957 L1054.4058,223.086 C1054.4058,248.793 1066.1708,258.379 1096.2358,258.379 L1108.4348,258.379 Z M1392.9512,177.3364 C1392.9512,154.2424 1379.8802,143.3504 1355.9152,143.3504 C1348.9442,143.3504 1341.5372,143.7854 1334.5652,144.6564 L1334.5652,98.9064 C1342.4082,98.0354 1350.6862,97.6004 1357.6582,97.6004 C1411.6862,97.6004 1444.3652,116.3364 1444.3652,173.8504 L1444.3652,255.3284 L1467.4582,255.3284 L1467.4582,296.2854 L1369.8582,296.2854 L1369.8582,255.3284 L1392.9512,255.3284 L1392.9512,177.3364 Z M1320.1862,101.0864 L1320.1862,255.3284 L1343.2792,255.3284 L1343.2792,296.2854 L1245.6802,296.2854 L1245.6802,255.3284 L1269.2082,255.3284 L1269.2082,154.2424 L1245.6802,159.9064 L1245.6802,117.6434 C1263.9792,111.5434 1294.0442,104.5704 1320.1862,101.0864 Z M1672.6787,170.3637 L1629.9787,170.3637 L1629.9787,99.3427 C1645.6637,100.6507 1660.4787,105.0067 1672.6787,111.9787 L1672.6787,170.3637 Z M1608.1927,97.5997 C1610.8067,97.5997 1612.1147,97.5997 1615.1637,98.0357 L1615.1637,142.0437 C1582.4857,142.0437 1560.2637,163.8287 1560.2637,198.2507 C1560.2637,234.8497 1585.5347,256.1997 1617.7787,256.1997 C1640.4357,256.1997 1656.9927,250.0997 1671.8067,238.7717 L1671.8067,286.2637 C1654.3777,296.7207 1634.7717,300.6427 1613.8567,300.6427 C1550.2417,300.6427 1508.4137,260.9927 1508.4137,199.5567 C1508.4137,138.9927 1550.6787,99.3427 1608.1927,97.5997 Z M1807.3076,145.9653 L1807.3076,101.9573 C1816.8926,99.7773 1828.6576,97.6003 1841.2926,97.6003 C1883.5576,97.6003 1916.6716,117.2073 1916.6716,173.8503 L1916.6716,255.3283 L1939.7646,255.3283 L1939.7646,296.2853 L1842.6006,296.2853 L1842.6006,255.3283 L1865.6936,255.3283 L1865.6936,177.3363 C1865.6936,154.6783 1852.6206,143.7853 1830.8356,143.7853 C1822.5576,143.7853 1814.7146,144.6563 1807.3076,145.9653 Z M1816.0216,255.3283 L1816.0216,296.2853 L1718.4216,296.2853 L1718.4216,255.3283 L1741.5146,255.3283 L1741.5146,40.9573 L1718.4216,40.9573 L1718.4216,0.0003 L1792.9286,0.0003 L1792.9286,255.3283 L1816.0216,255.3283 Z M0,0.0007 L54.464,0.0007 L54.464,276.2427 L83.22,276.2427 L83.22,296.2857 L0,296.2857 L0,276.2427 L28.321,276.2427 L28.321,20.0437 L0,20.0437 L0,0.0007 Z" id="logo" fill="#333333"></path>
    </g>
</svg>