<?xml version="1.0" encoding="UTF-8" standalone="no"?>
<svg width="449px" height="169px" viewBox="0 0 449 169" version="1.1" xmlns="http://www.w3.org/2000/svg" xmlns:xlink="http://www.w3.org/1999/xlink">
    <!-- Generator: Sketch 42 (36781) - http://www.bohemiancoding.com/sketch -->
    <title>Love food? Us too.</title>
    <desc>Created with Sketch.</desc>
    <defs></defs>
    <g id="Page-1" stroke="none" stroke-width="1" fill="none" fill-rule="evenodd">
        <path d="M3,9.6 L24.2,9.6 L24.2,14.4 L16.7,14.4 L16.7,69 L3,69 L3,64.2 L10.5,64.2 L10.5,14.4 L3,14.4 L3,9.6 Z M46.7,69 L20.7,69 L20.7,64.2 L41.3,64.2 L41.3,53.6 L46.7,53.6 L46.7,69 Z M54.9,47.2 C54.9,60 62.9,69.1 74.8,70 L74.8,64.7 C66.6,63.8 61,57 61,47.2 C61,37.4 66.6,30.6 74.8,29.7 L74.8,24.4 C62.9,25.3 54.9,34.4 54.9,47.2 Z M99.1,47.2 C99.1,34.4 91.1,25.3 79.2,24.4 L79.2,29.7 C87.4,30.6 93,37.4 93,47.2 C93,57 87.4,63.8 79.2,64.7 L79.2,70 C91.1,69.1 99.1,60 99.1,47.2 Z M130.8,69 L124.9,69 L108.1,30 L103.8,30 L103.8,25.4 L121.3,25.4 L121.3,30 L114.4,30 L130.8,69 Z M132.8,64.6 L130.2,58 L141.3,30 L134.1,30 L134.1,25.4 L151.6,25.4 L151.6,30 L147.3,30 L132.8,64.6 Z M162.3,47.2 C162.3,58.5 170,64.6 178.5,64.6 C184.7,64.6 189,63.1 193.4,59.8 L193.4,65.8 C189.5,68.7 183.9,70 178.5,70 C165.9,70 156.3,61.4 156.3,47.2 C156.3,35 164.2,25.7 174.8,24.5 L174.8,30 C167.6,31 162.3,37.1 162.3,47.2 Z M178.8,24.5 C188.8,25.2 195.3,31.7 195.3,43.4 L195.3,47.5 L166.1,47.5 L166.1,42.5 L189.3,42.5 C188.9,34.3 184.9,30.7 178.8,30 L178.8,24.5 Z M222,69 L222,59.6 L227.4,59.6 L227.4,33.8 L221.3,33.8 L221.3,24.4 L227.4,24.4 L227.4,17.4 C227.4,5.5 233.9,0.1 243.6,0.1 C247.2,0.1 250,0.8 252.7,2.3 L252.7,13 C250.2,11.4 248,10.7 245.1,10.7 C241.2,10.7 239.1,12.7 239.1,17.2 L239.1,59.6 L247.5,59.6 L247.5,69 L222,69 Z M251.3,33.8 L242.3,33.8 L242.3,24.4 L251.3,24.4 L251.3,33.8 Z M254.9,46.7 C254.9,60 264,69.2 276.4,70 L276.4,59.8 C270.7,59 266.7,54.2 266.7,46.7 C266.7,39.2 270.7,34.4 276.4,33.6 L276.4,23.4 C264,24.2 254.9,33.4 254.9,46.7 Z M289.6,46.7 C289.6,54.2 285.5,59 279.8,59.8 L279.8,70 C292.3,69.2 301.4,60 301.4,46.7 C301.4,33.4 292.3,24.2 279.8,23.4 L279.8,33.6 C285.5,34.4 289.6,39.2 289.6,46.7 Z M307.3,46.7 C307.3,60 316.4,69.2 328.8,70 L328.8,59.8 C323.1,59 319.1,54.2 319.1,46.7 C319.1,39.2 323.1,34.4 328.8,33.6 L328.8,23.4 C316.4,24.2 307.3,33.4 307.3,46.7 Z M342,46.7 C342,54.2 337.9,59 332.2,59.8 L332.2,70 C344.7,69.2 353.8,60 353.8,46.7 C353.8,33.4 344.7,24.2 332.2,23.4 L332.2,33.6 C337.9,34.4 342,39.2 342,46.7 Z M408.6,58.2 L408.6,67.4 C404.3,68.7 397.4,69.5 391.6,69.8 L391.6,10.4 L386.2,10.4 L386.2,1 L403.3,1 L403.3,59.2 L408.6,58.2 Z M371.6,46.4 C371.6,55.1 377,60.1 386.1,60.1 L388.2,60.1 L388.2,70 L386.6,70 C370.1,70 359.7,62.1 359.7,46.8 C359.7,32.6 369.3,23.4 383.2,23.4 C384.8,23.4 386.6,23.5 388.2,23.9 L388.2,34 C386.9,33.8 385.5,33.6 384.1,33.6 C376.6,33.6 371.6,38.4 371.6,46.4 Z M428.8,19.1 C428.1,19.1 427.1,19.2 426.5,19.4 L426.5,9 C427.3,8.8 428.9,8.6 430.3,8.6 C440.4,8.6 448.2,14 448.2,25.6 C448.2,37.4 438.4,41.6 432.4,43.3 L432.4,49.5 L421.4,49.5 L421.4,37.7 C431.2,34.8 436.4,32.8 436.4,26.4 C436.4,21.7 433.2,19.1 428.8,19.1 Z M419.3,62.2 C419.3,66.3 422.7,69.8 426.8,69.8 C431.4,69.8 434.9,66.3 434.9,62.2 C434.9,57.7 431.4,54.2 426.8,54.2 C422.7,54.2 419.3,57.7 419.3,62.2 Z M412.5,14.8 C414.9,12.5 418.5,10.4 423.2,9.4 L423.2,27.4 L412.5,27.4 L412.5,14.8 Z M32.5,163.7 C36,163.7 39.2,163.6 42.2,163.3 L42.2,168.5 C38.8,168.8 35.5,169 32.5,169 C19.2,169 8,164.8 8,148.6 L8,113.4 L0.5,113.4 L0.5,108.6 L21.7,108.6 L21.7,113.4 L14.2,113.4 L14.2,148.1 C14.2,160.8 22,163.7 32.5,163.7 Z M46.2,113.4 L38.7,113.4 L38.7,108.6 L59.9,108.6 L59.9,113.4 L52.4,113.4 L52.4,161.9 L59.9,160.4 L59.9,165.6 C56.3,166.6 51.4,167.5 46.2,168.1 L46.2,113.4 Z M81.9,169 C80.5,169 78.7,168.8 77.5,168.5 L77.5,163.7 C78.8,164 80.5,164.2 81.9,164.2 C87.4,164.2 91.4,161.7 91.4,156.8 C91.4,151.7 87.1,150.3 80.1,148 C72.3,145.4 68.9,142.2 68.9,135.5 C68.9,128.4 74.8,123.4 83,123.4 C84,123.4 85.2,123.5 86.2,123.7 L86.2,128.6 C85.2,128.3 83.9,128.2 83,128.2 C78,128.2 74.6,131 74.6,135.3 C74.6,139.5 77.2,141.3 84.1,143.4 C91.9,145.7 97.1,148.6 97.1,156.4 C97.1,164.9 90.2,169 81.9,169 Z M95,135.7 L89.6,135.7 L89.6,124.3 C91.6,124.8 93.4,125.6 95,126.6 L95,135.7 Z M68.6,164.9 L68.6,155.7 L74.1,155.7 L74.1,167.8 C71.9,167 70,166 68.6,164.9 Z M122.1,129 L122.1,124.4 L128.8,124.4 L128.8,113.8 L134.8,113.8 L134.8,156 C134.8,161.6 137,163.8 141.1,163.8 C143.9,163.8 146.2,162.9 149.2,161.4 L149.2,166.8 C146.6,168.1 143.6,169 139.8,169 C133.5,169 128.8,165.7 128.8,156.7 L128.8,129 L122.1,129 Z M148.1,129 L138.8,129 L138.8,124.4 L148.1,124.4 L148.1,129 Z M155.9,146.2 C155.9,159 163.9,168.1 175.8,169 L175.8,163.7 C167.6,162.8 162,156 162,146.2 C162,136.4 167.6,129.6 175.8,128.7 L175.8,123.4 C163.9,124.3 155.9,133.4 155.9,146.2 Z M200.1,146.2 C200.1,133.4 192.1,124.3 180.2,123.4 L180.2,128.7 C188.4,129.6 194,136.4 194,146.2 C194,156 188.4,162.8 180.2,163.7 L180.2,169 C192.1,168.1 200.1,159 200.1,146.2 Z M208.5,146.2 C208.5,159 216.5,168.1 228.4,169 L228.4,163.7 C220.2,162.8 214.6,156 214.6,146.2 C214.6,136.4 220.2,129.6 228.4,128.7 L228.4,123.4 C216.5,124.3 208.5,133.4 208.5,146.2 Z M252.7,146.2 C252.7,133.4 244.7,124.3 232.8,123.4 L232.8,128.7 C241,129.6 246.6,136.4 246.6,146.2 C246.6,156 241,162.8 232.8,163.7 L232.8,169 C244.7,168.1 252.7,159 252.7,146.2 Z M261.4,163.9 C261.4,166.6 263.6,168.9 266.3,168.9 C269,168.9 271.3,166.6 271.3,163.9 C271.3,161.2 269,159 266.3,159 C263.6,159 261.4,161.2 261.4,163.9 Z" id="Love-food?-Us-too." fill="#FFFFFF"></path>
    </g>
</svg>