<?xml version="1.0" encoding="UTF-8" standalone="no"?>
<svg width="633px" height="147px" viewBox="0 0 633 147" version="1.1" xmlns="http://www.w3.org/2000/svg" xmlns:xlink="http://www.w3.org/1999/xlink">
    <!-- Generator: Sketch 42 (36781) - http://www.bohemiancoding.com/sketch -->
    <title>Practical advice (wi</title>
    <desc>Created with Sketch.</desc>
    <defs></defs>
    <g id="Page-1" stroke="none" stroke-width="1" fill="none" fill-rule="evenodd">
        <path d="M2,8.6 L15.7,8.6 L15.7,63.2 L23.2,63.2 L23.2,68 L2,68 L2,63.2 L9.5,63.2 L9.5,13.4 L2,13.4 L2,8.6 Z M20.4,13.6 L19.7,13.6 L19.7,8.6 L20.4,8.6 C35.7,8.6 43.3,14.8 43.3,26.9 C43.3,38.9 34.7,45.8 20.4,45.8 L19.7,45.8 L19.7,40.8 L20.4,40.8 C31.6,40.8 37,35.6 37,26.9 C37,18.4 31.2,13.6 20.4,13.6 Z M51.1,34.2 L51.1,29.1 C54.6,27.6 59,26.1 63.6,25.2 L63.6,63.4 L72.1,63.4 L72.1,68 L51.1,68 L51.1,63.4 L57.6,63.4 L57.6,32 L51.1,34.2 Z M73.3,29.4 C71.6,29.4 69.6,29.6 67.6,29.9 L67.6,24.5 C69.5,24.2 71.4,24.1 73.3,24.1 C76,24.1 78.1,24.3 79.9,24.8 L79.9,30.2 C77.9,29.6 76.1,29.4 73.3,29.4 Z M111.8,68.3 L111.8,37.5 C111.8,31.9 108.1,29 102.5,29 C97.5,29 93.7,30.4 89.7,32.5 L89.7,26.8 C93.4,24.8 98.1,23.4 103.2,23.4 C112,23.4 117.7,27.3 117.7,37.1 L117.7,62.5 L123.4,61 L123.4,65.9 C120.5,67 116,67.9 111.8,68.3 Z M91.6,55.9 C91.6,61.7 97.6,63.9 105.6,63.9 L107.8,63.9 L107.8,68.7 C107,68.8 106.3,68.8 105.6,68.8 C93.5,68.8 85.6,65.1 85.6,55.9 C85.6,47.3 93.5,42.8 106.8,42.8 L107.8,42.8 L107.8,47.7 L107.2,47.7 C98.2,47.7 91.6,50.1 91.6,55.9 Z M130.6,46.3 C130.6,31.6 141,23.4 152.8,23.4 C153.9,23.4 155,23.5 156.1,23.6 L156.1,28.8 C155,28.6 153.9,28.5 152.8,28.5 C144.1,28.5 136.7,34.9 136.7,46.3 C136.7,57.1 144,63.8 152.9,63.8 C158.1,63.8 162,62.3 166,59.7 L166,65.7 C161.7,67.9 157.5,69 152.9,69 C140.4,69 130.6,60.5 130.6,46.3 Z M165.8,26.7 L165.8,36.9 L160.1,36.9 L160.1,24.4 C162.1,24.9 164,25.7 165.8,26.7 Z M172.2,29 L172.2,24.4 L178.9,24.4 L178.9,13.8 L184.9,13.8 L184.9,56 C184.9,61.6 187.1,63.8 191.2,63.8 C194,63.8 196.3,62.9 199.3,61.4 L199.3,66.8 C196.7,68.1 193.7,69 189.9,69 C183.6,69 178.9,65.7 178.9,56.7 L178.9,29 L172.2,29 Z M198.2,29 L188.9,29 L188.9,24.4 L198.2,24.4 L198.2,29 Z M207.1,29 L213.6,29 L213.6,63.4 L207.1,63.4 L207.1,68 L226.2,68 L226.2,63.4 L219.6,63.4 L219.6,24.4 L207.1,24.4 L207.1,29 Z M216,15.3 C218.5,15.3 220.5,13.2 220.5,10.8 C220.5,8.3 218.5,6.3 216,6.3 C213.6,6.3 211.5,8.3 211.5,10.8 C211.5,13.2 213.6,15.3 216,15.3 Z M233.8,46.3 C233.8,31.6 244.2,23.4 256,23.4 C257.1,23.4 258.2,23.5 259.3,23.6 L259.3,28.8 C258.2,28.6 257.1,28.5 256,28.5 C247.3,28.5 239.9,34.9 239.9,46.3 C239.9,57.1 247.2,63.8 256.1,63.8 C261.3,63.8 265.2,62.3 269.2,59.7 L269.2,65.7 C264.9,67.9 260.7,69 256.1,69 C243.6,69 233.8,60.5 233.8,46.3 Z M269,26.7 L269,36.9 L263.3,36.9 L263.3,24.4 C265.3,24.9 267.2,25.7 269,26.7 Z M303.6,68.3 L303.6,37.5 C303.6,31.9 299.9,29 294.3,29 C289.3,29 285.5,30.4 281.5,32.5 L281.5,26.8 C285.2,24.8 289.9,23.4 295,23.4 C303.8,23.4 309.5,27.3 309.5,37.1 L309.5,62.5 L315.2,61 L315.2,65.9 C312.3,67 307.8,67.9 303.6,68.3 Z M283.4,55.9 C283.4,61.7 289.4,63.9 297.4,63.9 L299.6,63.9 L299.6,68.7 C298.8,68.8 298.1,68.8 297.4,68.8 C285.3,68.8 277.4,65.1 277.4,55.9 C277.4,47.3 285.3,42.8 298.6,42.8 L299.6,42.8 L299.6,47.7 L299,47.7 C290,47.7 283.4,50.1 283.4,55.9 Z M321.5,4.6 L328,4.6 L328,63.4 L321.5,63.4 L321.5,68 L340.6,68 L340.6,63.4 L334,63.4 L334,0 L321.5,0 L321.5,4.6 Z M390.9,68.8 L390.9,39.1 C390.9,34.6 387.3,32.8 382.8,32.8 C377.6,32.8 373.5,34.3 369.9,36.4 L369.9,26 C373.9,23.7 379.2,22.4 384.8,22.4 C395,22.4 402.5,26.5 402.5,38.2 L402.5,58.4 L407.7,57.4 L407.7,66.7 C402.9,67.7 396.7,68.5 390.9,68.8 Z M377.6,54.5 C377.6,58.4 380.9,59.8 386.2,59.8 L387.6,59.8 L387.6,68.9 L386.4,68.9 C374.1,68.8 365.9,65.2 365.9,55.2 C365.9,46 373.4,41.6 386,41.6 L387.6,41.6 L387.6,49.3 L386.9,49.3 C381.3,49.3 377.6,50.7 377.6,54.5 Z M461.5,57.2 L461.5,66.4 C457.2,67.7 450.3,68.5 444.5,68.8 L444.5,9.4 L439.1,9.4 L439.1,0 L456.2,0 L456.2,58.2 L461.5,57.2 Z M424.5,45.4 C424.5,54.1 429.9,59.1 439,59.1 L441.1,59.1 L441.1,69 L439.5,69 C423,69 412.6,61.1 412.6,45.8 C412.6,31.6 422.2,22.4 436.1,22.4 C437.7,22.4 439.5,22.5 441.1,22.9 L441.1,33 C439.8,32.8 438.4,32.6 437,32.6 C429.5,32.6 424.5,37.4 424.5,45.4 Z M495.3,68 L483,68 L468.5,32.8 L463.9,32.8 L463.9,23.4 L486.4,23.4 L486.4,32.8 L480.9,32.8 L495.3,68 Z M497.4,65.4 L491.9,51.7 L499,32.8 L493.2,32.8 L493.2,23.4 L515.2,23.4 L515.2,32.8 L510.6,32.8 L497.4,65.4 Z M519.7,32.8 L525.1,32.8 L525.1,58.6 L519.7,58.6 L519.7,68 L542.1,68 L542.1,58.6 L536.8,58.6 L536.8,23.4 L519.7,23.4 L519.7,32.8 Z M530.3,16.1 C534.2,16.1 537.4,12.9 537.4,9.1 C537.4,5.2 534.2,2.1 530.3,2.1 C526.5,2.1 523.3,5.2 523.3,9.1 C523.3,12.9 526.5,16.1 530.3,16.1 Z M547.3,45.8 C547.3,31.9 557,22.8 570.2,22.4 C570.8,22.4 571.1,22.4 571.8,22.5 L571.8,32.6 C564.3,32.6 559.2,37.6 559.2,45.5 C559.2,53.9 565,58.8 572.4,58.8 C577.6,58.8 581.4,57.4 584.8,54.8 L584.8,65.7 C580.8,68.1 576.3,69 571.5,69 C556.9,69 547.3,59.9 547.3,45.8 Z M585,25.7 L585,39.1 L575.2,39.1 L575.2,22.8 C578.8,23.1 582.2,24.1 585,25.7 Z M601.9,45.4 C601.9,55.1 608.1,58.9 615.8,58.9 C621.9,58.9 626.4,57.5 630.9,54.9 L630.9,64.9 C626.7,67.8 620.6,69 614.6,69 C600,69 590.7,60.1 590.7,46.2 C590.7,32.8 599.1,23.4 610.8,22.4 L610.8,32.3 C605.4,33.2 601.9,38.1 601.9,45.4 Z M614.1,22.4 C626.3,22.9 632.3,31.9 632.3,43.4 L632.3,49.4 L605.4,49.4 L605.4,41.4 L621.6,41.4 C621.4,36.2 618.9,33 614.1,32.3 L614.1,22.4 Z M0.6,118.8 C0.6,129.42 5.34,137.88 11.28,143.4 L15.3,143.4 C9.06,137.28 4.02,129.96 4.02,118.8 C4.02,107.64 9.06,100.32 15.3,94.2 L11.28,94.2 C5.34,99.72 0.6,108.18 0.6,118.8 Z M29.04,135 L22.14,111.6 L26.28,111.6 L26.28,108.84 L15.9,108.84 L15.9,111.6 L18.48,111.6 L25.56,135 L29.04,135 Z M33.18,112.5 L34.86,117.72 L30.48,132.72 L29.04,127.26 L33.18,112.5 Z M34.32,108.84 L37.92,108.84 L45.96,135 L42.42,135 L34.32,108.84 Z M47.46,132.72 L45.78,127.14 L50.4,111.6 L46.26,111.6 L46.26,108.84 L56.34,108.84 L56.34,111.6 L53.76,111.6 L47.46,132.72 Z M59.82,111.6 L63.72,111.6 L63.72,132.24 L59.82,132.24 L59.82,135 L71.28,135 L71.28,132.24 L67.32,132.24 L67.32,108.84 L59.82,108.84 L59.82,111.6 Z M65.16,103.38 C66.66,103.38 67.86,102.12 67.86,100.68 C67.86,99.18 66.66,97.98 65.16,97.98 C63.72,97.98 62.46,99.18 62.46,100.68 C62.46,102.12 63.72,103.38 65.16,103.38 Z M74.22,111.6 L74.22,108.84 L78.24,108.84 L78.24,102.48 L81.84,102.48 L81.84,127.8 C81.84,131.16 83.16,132.48 85.62,132.48 C87.3,132.48 88.68,131.94 90.48,131.04 L90.48,134.28 C88.92,135.06 87.12,135.6 84.84,135.6 C81.06,135.6 78.24,133.62 78.24,128.22 L78.24,111.6 L74.22,111.6 Z M89.82,111.6 L84.24,111.6 L84.24,108.84 L89.82,108.84 L89.82,111.6 Z M101.76,132.24 L105.66,132.24 L105.66,135 L94.26,135 L94.26,132.24 L98.16,132.24 L98.16,96.96 L94.26,96.96 L94.26,94.2 L101.76,94.2 L101.76,132.24 Z M109.08,111.54 C107.22,111.54 105.54,111.84 104.16,112.2 L104.16,109.02 C105.78,108.6 107.7,108.24 109.68,108.24 C115.74,108.24 119.76,110.82 119.76,117.36 L119.76,132.24 L123.66,132.24 L123.66,135 L112.26,135 L112.26,132.24 L116.16,132.24 L116.16,118.02 C116.16,112.68 112.38,111.54 109.08,111.54 Z M161.64,132.24 L161.64,118.08 C161.64,113.1 158.34,111.42 154.26,111.42 C152.7,111.42 151.08,111.54 149.64,111.72 L149.64,108.6 C151.2,108.36 152.76,108.24 154.26,108.24 C161.16,108.24 165.24,110.82 165.24,117.36 L165.24,132.24 L169.14,132.24 L169.14,135 L157.74,135 L157.74,132.24 L161.64,132.24 Z M139.74,111.42 C141.9,110.46 144.54,109.62 147.24,109.08 L147.24,132.24 L151.14,132.24 L151.14,135 L139.74,135 L139.74,132.24 L143.64,132.24 L143.64,113.16 L139.74,114.48 L139.74,111.42 Z M173.46,121.92 C173.46,129.6 178.26,135.06 185.4,135.6 L185.4,132.42 C180.48,131.88 177.12,127.8 177.12,121.92 C177.12,116.04 180.48,111.96 185.4,111.42 L185.4,108.24 C178.26,108.78 173.46,114.24 173.46,121.92 Z M199.98,121.92 C199.98,114.24 195.18,108.78 188.04,108.24 L188.04,111.42 C192.96,111.96 196.32,116.04 196.32,121.92 C196.32,127.8 192.96,131.88 188.04,132.42 L188.04,135.6 C195.18,135.06 199.98,129.6 199.98,121.92 Z M218.4,96.96 L218.4,134.28 C219.54,134.64 220.74,134.94 222,135.12 L222,94.2 L214.5,94.2 L214.5,96.96 L218.4,96.96 Z M238.32,121.8 C238.32,128.46 233.88,132.42 226.92,132.42 C226.08,132.42 225.24,132.42 224.4,132.3 L224.4,135.48 C225.24,135.54 226.08,135.6 226.92,135.6 C235.98,135.6 241.98,130.26 241.98,121.8 C241.98,112.8 236.1,108.24 228.24,108.24 C226.86,108.24 225.54,108.42 224.4,108.72 L224.4,111.9 C225.48,111.66 226.74,111.48 228.24,111.48 C233.7,111.48 238.32,115.08 238.32,121.8 Z M247.02,121.92 C247.02,129.6 251.82,135.06 258.96,135.6 L258.96,132.42 C254.04,131.88 250.68,127.8 250.68,121.92 C250.68,116.04 254.04,111.96 258.96,111.42 L258.96,108.24 C251.82,108.78 247.02,114.24 247.02,121.92 Z M273.54,121.92 C273.54,114.24 268.74,108.78 261.6,108.24 L261.6,111.42 C266.52,111.96 269.88,116.04 269.88,121.92 C269.88,127.8 266.52,131.88 261.6,132.42 L261.6,135.6 C268.74,135.06 273.54,129.6 273.54,121.92 Z M278.94,114.72 L278.94,111.66 C281.04,110.76 283.68,109.86 286.44,109.32 L286.44,132.24 L291.54,132.24 L291.54,135 L278.94,135 L278.94,132.24 L282.84,132.24 L282.84,113.4 L278.94,114.72 Z M292.26,111.84 C291.24,111.84 290.04,111.96 288.84,112.14 L288.84,108.9 C289.98,108.72 291.12,108.66 292.26,108.66 C293.88,108.66 295.14,108.78 296.22,109.08 L296.22,112.32 C295.02,111.96 293.94,111.84 292.26,111.84 Z M300.42,111.6 L304.32,111.6 L304.32,132.24 L300.42,132.24 L300.42,135 L311.88,135 L311.88,132.24 L307.92,132.24 L307.92,108.84 L300.42,108.84 L300.42,111.6 Z M305.76,103.38 C307.26,103.38 308.46,102.12 308.46,100.68 C308.46,99.18 307.26,97.98 305.76,97.98 C304.32,97.98 303.06,99.18 303.06,100.68 C303.06,102.12 304.32,103.38 305.76,103.38 Z M338.7,132.24 L338.7,118.08 C338.7,113.1 335.4,111.42 331.32,111.42 C329.76,111.42 328.14,111.54 326.7,111.72 L326.7,108.6 C328.26,108.36 329.82,108.24 331.32,108.24 C338.22,108.24 342.3,110.82 342.3,117.36 L342.3,132.24 L346.2,132.24 L346.2,135 L334.8,135 L334.8,132.24 L338.7,132.24 Z M316.8,111.42 C318.96,110.46 321.6,109.62 324.3,109.08 L324.3,132.24 L328.2,132.24 L328.2,135 L316.8,135 L316.8,132.24 L320.7,132.24 L320.7,113.16 L316.8,114.48 L316.8,111.42 Z M367.26,117.6 C367.26,121.02 365.22,123.3 361.92,123.66 L361.92,126.42 C367.38,126 370.8,122.28 370.8,117.6 C370.8,115.14 369.42,112.56 367.44,111.36 L373.56,111.36 L373.56,108.6 L361.92,108.6 L361.92,111.42 C365.22,111.78 367.26,114.06 367.26,117.6 Z M353.04,134.16 L355.2,135.66 C353.7,136.32 352.68,137.46 352.68,138.78 C352.68,141.72 355.86,143.4 360.3,143.52 L360.3,146.4 C353.88,146.28 349.14,143.76 349.14,139.14 C349.14,136.5 351.18,134.76 353.04,134.16 Z M354.84,127.26 L357.06,128.1 C355.92,129.36 356.52,130.68 358.08,130.8 L366.12,131.46 C371.7,131.88 374.52,134.04 374.52,138.3 C374.52,142.62 370.08,145.92 362.7,146.4 L362.7,143.52 C366.96,143.16 370.92,141.48 370.92,138.3 C370.92,135.96 368.82,134.88 365.7,134.64 L358.02,134.04 C355.26,133.86 353.22,132.54 353.22,130.14 C353.22,129 353.82,127.92 354.84,127.26 Z M359.52,123.54 C356.52,123 354.66,120.84 354.66,117.6 C354.66,114.24 356.52,112.02 359.52,111.48 L359.52,108.72 C354.36,109.26 351.12,112.92 351.12,117.6 C351.12,122.28 354.3,126 359.52,126.42 L359.52,123.54 Z M391.08,96.96 L391.08,134.28 C392.22,134.64 393.42,134.94 394.68,135.12 L394.68,94.2 L387.18,94.2 L387.18,96.96 L391.08,96.96 Z M411,121.8 C411,128.46 406.56,132.42 399.6,132.42 C398.76,132.42 397.92,132.42 397.08,132.3 L397.08,135.48 C397.92,135.54 398.76,135.6 399.6,135.6 C408.66,135.6 414.66,130.26 414.66,121.8 C414.66,112.8 408.78,108.24 400.92,108.24 C399.54,108.24 398.22,108.42 397.08,108.72 L397.08,111.9 C398.16,111.66 399.42,111.48 400.92,111.48 C406.38,111.48 411,115.08 411,121.8 Z M420.06,111.6 L423.96,111.6 L423.96,132.24 L420.06,132.24 L420.06,135 L431.52,135 L431.52,132.24 L427.56,132.24 L427.56,108.84 L420.06,108.84 L420.06,111.6 Z M425.4,103.38 C426.9,103.38 428.1,102.12 428.1,100.68 C428.1,99.18 426.9,97.98 425.4,97.98 C423.96,97.98 422.7,99.18 422.7,100.68 C422.7,102.12 423.96,103.38 425.4,103.38 Z M434.46,111.6 L434.46,108.84 L438.48,108.84 L438.48,102.48 L442.08,102.48 L442.08,127.8 C442.08,131.16 443.4,132.48 445.86,132.48 C447.54,132.48 448.92,131.94 450.72,131.04 L450.72,134.28 C449.16,135.06 447.36,135.6 445.08,135.6 C441.3,135.6 438.48,133.62 438.48,128.22 L438.48,111.6 L434.46,111.6 Z M450.06,111.6 L444.48,111.6 L444.48,108.84 L450.06,108.84 L450.06,111.6 Z M463.02,135.6 C462.18,135.6 461.1,135.48 460.38,135.3 L460.38,132.42 C461.16,132.6 462.18,132.72 463.02,132.72 C466.32,132.72 468.72,131.22 468.72,128.28 C468.72,125.22 466.14,124.38 461.94,123 C457.26,121.44 455.22,119.52 455.22,115.5 C455.22,111.24 458.76,108.24 463.68,108.24 C464.28,108.24 465,108.3 465.6,108.42 L465.6,111.36 C465,111.18 464.22,111.12 463.68,111.12 C460.68,111.12 458.64,112.8 458.64,115.38 C458.64,117.9 460.2,118.98 464.34,120.24 C469.02,121.62 472.14,123.36 472.14,128.04 C472.14,133.14 468,135.6 463.02,135.6 Z M470.88,115.62 L467.64,115.62 L467.64,108.78 C468.84,109.08 469.92,109.56 470.88,110.16 L470.88,115.62 Z M455.04,133.14 L455.04,127.62 L458.34,127.62 L458.34,134.88 C457.02,134.4 455.88,133.8 455.04,133.14 Z M490.14,118.8 C490.14,108.18 485.4,99.72 479.46,94.2 L475.44,94.2 C481.68,100.32 486.72,107.64 486.72,118.8 C486.72,129.96 481.68,137.28 475.44,143.4 L479.46,143.4 C485.4,137.88 490.14,129.42 490.14,118.8 Z" id="Practical-advice-(wi" fill="#FFFFFF"></path>
    </g>
</svg>