<?xml version="1.0" encoding="UTF-8" standalone="no"?>
<svg width="1276px" height="188px" viewBox="0 0 1276 188" version="1.1" xmlns="http://www.w3.org/2000/svg" xmlns:xlink="http://www.w3.org/1999/xlink">
    <!-- Generator: Sketch 42 (36781) - http://www.bohemiancoding.com/sketch -->
    <title>Group</title>
    <desc>Created with Sketch.</desc>
    <defs></defs>
    <g id="Page-1" stroke="none" stroke-width="1" fill="none" fill-rule="evenodd" opacity="0.427763526">
        <g id="Group-2" transform="translate(0.000000, -516.000000)" fill-rule="nonzero" fill="#00FF00">
            <g id="Group" transform="translate(632.000000, 606.000000) scale(-1, 1) translate(-632.000000, -606.000000) translate(-36.000000, 508.000000)">
                <path d="M1064.64977,124.514659 C1065.11763,124.514659 1065.49691,124.89955 1065.49691,125.374337 L1065.49691,139.014366 C1065.49691,139.489153 1065.11763,139.874044 1064.64977,139.874044 C1058.77952,139.874044 1055.0835,142.248846 1053.01548,146.235156 C1052.28595,147.641389 1051.81444,149.156163 1051.55227,150.672228 C1051.46052,151.202804 1051.40167,151.694375 1051.36914,152.133335 C1051.35005,152.390877 1051.34388,152.569274 1051.34388,152.654981 C1051.34388,153.129768 1050.96461,153.514659 1050.49675,153.514659 L1036.34404,153.514659 C1035.87618,153.514659 1035.49691,153.129768 1035.49691,152.654981 C1035.49691,152.5918 1035.4988,152.478523 1035.50434,152.318452 C1035.51336,152.057424 1035.52953,151.75627 1035.55458,151.418292 C1035.6257,150.458575 1035.75344,149.391621 1035.95193,148.243786 C1036.51904,144.96439 1037.54023,141.683704 1039.13266,138.614174 C1043.69882,129.812592 1051.94433,124.514659 1064.64977,124.514659 Z M1040.63185,139.415145 C1039.12834,142.313256 1038.15928,145.42647 1037.62069,148.540976 C1037.43219,149.631005 1037.31115,150.642069 1037.24406,151.547241 C1037.23774,151.632633 1037.23203,151.715343 1037.2269,151.795303 L1049.69371,151.795303 C1049.72965,151.394503 1049.79001,150.915768 1049.88351,150.375042 C1050.1742,148.694088 1050.69783,147.011843 1051.51629,145.434192 C1053.76742,141.094923 1057.76435,138.399436 1063.80264,138.170538 L1063.80264,126.242244 C1052.22707,126.468795 1044.81019,131.361101 1040.63185,139.415145 Z M1044.26172,145.934828 C1044.27196,145.846317 1044.29851,145.664957 1044.34584,145.404234 C1044.42628,144.961119 1044.53641,144.465177 1044.68057,143.929944 C1045.09272,142.399712 1045.69274,140.870042 1046.51238,139.448608 C1048.82709,135.43438 1052.39418,133.053942 1057.57308,133.053942 C1058.04094,133.053942 1058.42021,132.669051 1058.42021,132.194264 C1058.42021,131.719477 1058.04094,131.334586 1057.57308,131.334586 C1051.74916,131.334586 1047.65123,134.069269 1045.05008,138.580242 C1044.14916,140.142628 1043.49517,141.809909 1043.04626,143.476627 C1042.88905,144.060327 1042.76845,144.603394 1042.67962,145.092722 C1042.62539,145.391466 1042.59343,145.609725 1042.57901,145.734344 C1042.52446,146.205892 1042.85692,146.633038 1043.32159,146.6884 C1043.78625,146.743762 1044.20716,146.406376 1044.26172,145.934828 Z" id="Combined-Shape" transform="translate(1050.496905, 139.014659) scale(-1, 1) rotate(-358.000000) translate(-1050.496905, -139.014659) "></path>
                <path d="M1216.85341,132.92474 C1216.85341,160.907248 1192.91417,183.557447 1163.4226,183.557447 C1133.93058,183.557447 1109.99126,160.907327 1109.99126,132.92474 C1109.99126,104.942153 1133.93058,82.2920324 1163.4226,82.2920324 C1192.91417,82.2920324 1216.85341,104.942232 1216.85341,132.92474 Z M1213.92126,132.92474 C1213.92126,106.599013 1191.32997,85.224176 1163.4226,85.224176 C1135.51478,85.224176 1112.92341,106.598938 1112.92341,132.92474 C1112.92341,159.250541 1135.51478,180.625304 1163.4226,180.625304 C1191.32997,180.625304 1213.92126,159.250467 1213.92126,132.92474 Z M1229.84425,132.92474 C1229.84425,167.695391 1200.08845,195.848484 1163.42239,195.848484 C1126.75588,195.848484 1097,167.69547 1097,132.92474 C1097,98.1538272 1126.75608,70 1163.42239,70 C1200.08825,70 1229.84425,98.1539061 1229.84425,132.92474 Z M1226.91211,132.92474 C1226.91211,99.810683 1198.50405,72.9321437 1163.42239,72.9321437 C1128.34028,72.9321437 1099.93214,99.810608 1099.93214,132.92474 C1099.93214,166.038674 1128.34007,192.91634 1163.42239,192.91634 C1198.50426,192.91634 1226.91211,166.038599 1226.91211,132.92474 Z M1165.0712,149.643523 C1164.53165,148.792796 1163.95635,148.019047 1163.37947,147.334902 C1157.79791,153.293668 1158.00812,159.434156 1161.77385,165.372341 C1162.31334,166.223068 1162.88857,166.996822 1163.4654,167.680978 C1169.04745,161.722012 1168.83725,155.581584 1165.0712,149.643523 Z M1161.41173,169.791226 C1160.68992,168.956525 1159.97009,168.003036 1159.29763,166.942642 C1154.62512,159.574547 1154.62447,151.523059 1162.41257,144.152826 C1162.97949,143.616418 1163.86411,143.616383 1164.4294,144.151169 C1164.64393,144.354127 1164.99345,144.716272 1165.43307,145.224593 C1166.15494,146.059268 1166.87483,147.012733 1167.54734,148.073104 C1172.22062,155.441642 1172.22088,163.4938 1164.43052,170.864686 C1163.86524,171.399522 1162.98059,171.399522 1162.41531,170.864686 C1162.2008,170.66172 1161.85131,170.299562 1161.41173,169.791226 Z M1150.64318,149.623019 C1151.57052,147.868105 1152.17101,145.974124 1152.50501,144.077962 C1152.56301,143.748629 1152.61068,143.431438 1152.64904,143.128526 C1146.08503,143.521533 1141.88807,146.39187 1139.45663,150.992957 C1138.52926,152.747867 1137.92873,154.641844 1137.59473,156.538001 C1137.53671,156.867347 1137.48904,157.184548 1137.45068,157.487471 C1144.01478,157.094635 1148.21176,154.224271 1150.64318,149.623019 Z M1134.39774,158.999893 C1134.39774,158.376281 1134.47582,157.342005 1134.70704,156.029337 C1135.09073,153.851158 1135.78205,151.670799 1136.86421,149.622996 C1139.98358,143.72009 1145.64284,140.15022 1154.23587,140.149987 C1155.04558,140.149966 1155.70199,140.806355 1155.70199,141.616059 C1155.70199,142.239668 1155.62391,143.273941 1155.39269,144.586605 C1155.00903,146.764779 1154.31773,148.945134 1153.23563,150.992934 C1150.11627,156.896048 1144.45697,160.465965 1135.86381,160.465965 C1135.05412,160.465965 1134.39774,159.809582 1134.39774,158.999893 Z M1181.16773,145.113997 C1179.29609,144.228615 1177.27488,143.654941 1175.25101,143.335823 C1174.86006,143.274179 1174.48499,143.224728 1174.12889,143.186128 C1174.56319,149.28784 1177.5732,153.206994 1182.42161,155.500697 C1184.29335,156.386187 1186.31465,156.959935 1188.33861,157.279103 C1188.72947,157.340739 1189.10445,157.390186 1189.46046,157.428787 C1189.02634,151.326813 1186.01631,147.407615 1181.16773,145.113997 Z M1190.98097,160.464969 C1190.33477,160.464969 1189.25506,160.391998 1187.88187,160.175455 C1185.59975,159.815576 1183.31497,159.167041 1181.1677,158.151202 C1174.93736,155.203732 1171.14251,149.818092 1171.14226,141.616104 C1171.14224,140.806413 1171.7986,140.150009 1172.60831,140.149987 C1172.79717,140.150402 1173.08598,140.159507 1173.49688,140.187271 C1174.1668,140.232536 1174.90955,140.313613 1175.7077,140.439463 C1177.98973,140.799287 1180.2744,141.447739 1182.42157,142.463458 C1188.65213,145.410825 1192.44704,150.796567 1192.44704,158.998897 C1192.44704,159.808586 1191.79066,160.464969 1190.98097,160.464969 Z M1180.98617,131.467858 C1180.14006,131.948211 1179.36628,132.457959 1178.67546,132.970622 C1184.98227,138.173669 1191.53391,137.950833 1197.82261,134.380625 C1198.66872,133.900273 1199.4425,133.390525 1200.13332,132.877861 C1193.82651,127.674815 1187.27486,127.89765 1180.98617,131.467858 Z M1202.27089,134.936715 C1201.39112,135.617797 1200.38653,136.296758 1199.27022,136.930504 C1191.54219,141.317849 1183.15099,141.31809 1175.40523,133.989705 C1174.79392,133.411339 1174.7939,132.438207 1175.40519,131.859816 C1175.61941,131.657122 1176.00162,131.326918 1176.53788,130.911769 C1177.41765,130.230687 1178.42225,129.551726 1179.53855,128.917979 C1187.26658,124.530635 1195.65778,124.530394 1203.43264,131.887075 C1204.01485,132.437145 1204.01487,133.410277 1203.40359,133.988668 C1203.18937,134.191362 1202.80715,134.521566 1202.27089,134.936715 Z M1176.20115,116.226166 C1175.27402,117.98084 1174.67366,119.874563 1174.33976,121.770497 C1174.28173,122.100014 1174.23405,122.41738 1174.19569,122.720458 C1180.75929,122.327463 1184.95598,119.457226 1187.38727,114.856289 C1188.31459,113.101431 1188.91508,111.20751 1189.24906,109.311408 C1189.30707,108.982087 1189.35474,108.664908 1189.3931,108.362007 C1182.82903,108.75483 1178.63227,111.625088 1176.20115,116.226166 Z M1192.44604,106.849586 C1192.44604,107.473181 1192.36796,108.507427 1192.13675,109.820057 C1191.75309,111.998175 1191.0618,114.178473 1189.97971,116.22622 C1186.8605,122.128975 1181.20154,125.698761 1172.60895,125.698994 C1171.79928,125.699016 1171.14289,125.042681 1171.14284,124.232982 C1171.14282,123.60903 1171.22088,122.574612 1171.45206,121.261935 C1171.83562,119.083992 1172.52676,116.9039 1173.60865,114.856343 C1176.72767,108.953353 1182.38679,105.383515 1190.97997,105.383515 C1191.78966,105.383515 1192.44604,106.039897 1192.44604,106.849586 Z M1161.77305,116.205956 C1162.31259,117.056673 1162.88788,117.830413 1163.46476,118.514552 C1169.04605,112.555794 1168.83585,106.415296 1165.07027,100.477116 C1164.53081,99.6264081 1163.95562,98.8526702 1163.37883,98.1685266 C1157.7968,104.127485 1158.00701,110.267904 1161.77305,116.205956 Z M1165.4325,96.0582763 C1166.15428,96.8929769 1166.87409,97.8464668 1167.54651,98.9068599 C1172.21883,106.274946 1172.21948,114.326404 1164.4317,121.696633 C1163.86479,122.23306 1162.98015,122.233105 1162.41485,121.698311 C1162.20032,121.495352 1161.8508,121.133208 1161.41118,120.624886 C1160.68931,119.790212 1159.96942,118.836747 1159.29691,117.776376 C1154.62363,110.407837 1154.62337,102.35568 1162.41373,94.9847939 C1162.97902,94.4499494 1163.86369,94.4499583 1164.42896,94.9848143 C1164.64347,95.1877807 1164.99294,95.5499389 1165.4325,96.0582763 Z M1145.67648,120.735073 C1147.54813,121.620394 1149.56934,122.194029 1151.59322,122.513126 C1151.98416,122.574764 1152.35922,122.624209 1152.7153,122.662806 C1152.28081,116.561403 1149.27085,112.642405 1144.42264,110.348761 C1142.5509,109.463258 1140.52959,108.889502 1138.50563,108.570331 C1138.11476,108.508691 1137.73977,108.459242 1137.38375,108.420639 C1137.8177,114.522469 1140.82774,118.441543 1145.67648,120.735073 Z M1135.86328,105.384461 C1136.50948,105.384461 1137.5892,105.457433 1138.96238,105.673979 C1141.24451,106.033864 1143.52929,106.682409 1145.67656,107.698263 C1151.90668,110.645673 1155.70149,116.031126 1155.70199,124.232784 C1155.70203,125.042492 1155.04566,125.698923 1154.23594,125.698944 C1154.04708,125.69853 1153.75827,125.689426 1153.34738,125.661664 C1152.67746,125.616402 1151.93471,125.535331 1151.13657,125.409491 C1148.85454,125.049693 1146.56988,124.40129 1144.42272,123.385647 C1138.19193,120.438385 1134.39696,115.052736 1134.39721,106.850488 C1134.39724,106.040816 1135.05361,105.384461 1135.86328,105.384461 Z M1145.85799,134.381492 C1146.70398,133.901181 1147.47764,133.391478 1148.16836,132.878858 C1141.86191,127.675721 1135.31043,127.898381 1129.02189,131.468249 C1128.17589,131.948508 1127.4022,132.458156 1126.71145,132.97072 C1133.01832,138.174327 1139.5697,137.951681 1145.85799,134.381492 Z M1123.44123,131.859775 C1123.65544,131.657107 1124.03764,131.326945 1124.57387,130.911851 C1125.45359,130.230859 1126.45812,129.551989 1127.57436,128.918326 C1135.30108,124.532033 1143.69076,124.53131 1151.43521,131.856666 C1152.04979,132.438174 1152.0498,133.41124 1151.43858,133.989623 C1151.22438,134.192311 1150.84221,134.522502 1150.30601,134.937634 C1149.42634,135.618686 1148.42186,136.297616 1147.30567,136.931334 C1139.57804,141.318712 1131.18702,141.318712 1123.44119,133.989664 C1122.8299,133.411273 1122.82992,132.438141 1123.44123,131.859775 Z" id="Combined-Shape"></path>
                <path d="M72.1767982,123.000301 C72.1767982,139.89896 57.7603756,153.577433 40.0002853,153.577433 C22.2399283,153.577433 7.82345537,139.899008 7.82345537,123.000301 C7.82345537,106.101594 22.2399283,92.4231682 40.0002853,92.4231682 C57.7603756,92.4231682 72.1767982,106.101642 72.1767982,123.000301 Z M70.4110349,123.000301 C70.4110349,107.102173 56.8063566,94.1938921 40.0002853,94.1938921 C23.1939446,94.1938921 9.58921862,107.102128 9.58921862,123.000301 C9.58921862,138.898473 23.1939446,151.806709 40.0002853,151.806709 C56.8063566,151.806709 70.4110349,138.898428 70.4110349,123.000301 Z M80,123.000301 C80,143.998325 62.0807896,161 40.0001585,161 C17.9192604,161 0,143.998373 0,123.000301 C0,102.002119 17.9193772,85 40.0001585,85 C62.0806729,85 80,102.002166 80,123.000301 Z M78.2342368,123.000301 C78.2342368,103.002695 61.1266518,86.7707239 40.0001585,86.7707239 C18.8733961,86.7707239 1.76576325,103.00265 1.76576325,123.000301 C1.76576325,142.997832 18.8732711,159.229276 40.0001585,159.229276 C61.1267769,159.229276 78.2342368,142.997787 78.2342368,123.000301 Z M40.9930885,133.096787 C40.668167,132.583033 40.3217181,132.115765 39.9743111,131.702609 C36.6130495,135.301112 36.7396358,139.009358 39.0073918,142.595433 C39.3322792,143.109188 39.6786908,143.576459 40.026061,143.989621 C43.3876223,140.390996 43.261036,136.682787 40.9930885,133.096787 Z M38.7893204,145.264001 C38.3546416,144.759925 37.921153,144.184112 37.5161954,143.543739 C34.7023654,139.09414 34.7019762,134.231841 39.3920395,129.780951 C39.7334389,129.457014 40.2661662,129.456992 40.6065891,129.77995 C40.7357838,129.902517 40.9462642,130.121217 41.211008,130.428192 C41.6457232,130.932253 42.0792481,131.508051 42.4842399,132.14841 C45.2985353,136.598276 45.298691,141.460981 40.6072619,145.912264 C40.2668485,146.235253 39.7341023,146.235253 39.3936889,145.912264 C39.2645051,145.789693 39.0540421,145.570986 38.7893204,145.264001 Z M32.3044023,133.084405 C32.8628548,132.024611 33.2244791,130.880834 33.4256127,129.735741 C33.4605464,129.536856 33.4892536,129.345304 33.5123525,129.162375 C29.5594448,129.399713 27.0319973,131.133112 25.567766,133.911712 C25.0092905,134.971503 24.6476516,136.115277 24.4465098,137.260368 C24.4115733,137.45926 24.3828641,137.650819 24.3597637,137.833754 C28.3127241,137.59652 30.8401813,135.863104 32.3044023,133.084405 Z M22.5212531,138.747107 C22.5212531,138.370507 22.5682736,137.745907 22.7075196,136.953186 C22.938578,135.637781 23.3548991,134.321061 24.0065839,133.084391 C25.8851007,129.519621 29.2931532,127.363774 34.4679576,127.363634 C34.955569,127.36362 35.3508631,127.760014 35.3508631,128.248995 C35.3508631,128.625593 35.3038448,129.250191 35.1646051,130.04291 C34.9335572,131.358312 34.5172548,132.675029 33.865599,133.911698 C31.9870965,137.476593 28.5790153,139.632469 23.4041347,139.632469 C22.9165326,139.632469 22.5212531,139.236079 22.5212531,138.747107 Z M50.6865644,130.361403 C49.5594422,129.82672 48.3422551,129.480278 47.1234609,129.287562 C46.8880264,129.250335 46.6621565,129.220472 46.447713,129.197161 C46.7092519,132.88199 48.5219031,135.24877 51.4416585,136.633939 C52.5688378,137.168688 53.7860868,137.515175 55.0049328,137.70792 C55.2403104,137.745142 55.4661256,137.775003 55.6805175,137.798314 C55.4190875,134.113328 53.6064206,131.746521 50.6865644,130.361403 Z M56.5961823,139.631867 C56.2070378,139.631867 55.5568234,139.5878 54.7298805,139.457029 C53.3555631,139.239698 51.9796487,138.848047 50.6865423,138.234581 C46.9345794,136.454602 44.6492864,133.20221 44.6491369,128.249022 C44.6491221,127.760049 45.0443914,127.363647 45.5320024,127.363634 C45.6457352,127.363884 45.8196623,127.369382 46.0671071,127.386149 C46.4705401,127.413485 46.9178329,127.462447 47.3984838,127.538448 C48.7727441,127.755746 50.1485916,128.147347 51.4416364,128.76074 C55.1937387,130.540658 57.4790639,133.793111 57.4790639,138.746505 C57.4790639,139.235477 57.0837843,139.631867 56.5961823,139.631867 Z M50.5772241,122.120489 C50.0676889,122.410574 49.6017137,122.718411 49.1856946,123.028009 C52.9837134,126.170133 56.9291714,126.035563 60.7162804,123.879511 C61.2258156,123.589426 61.6917908,123.281589 62.1078099,122.971991 C58.3097911,119.829867 54.3643332,119.964437 50.5772241,122.120489 Z M63.3950771,124.215334 C62.8652715,124.62664 62.2602947,125.036665 61.588046,125.419385 C56.9341573,128.068906 51.8809005,128.069052 47.2163332,123.643434 C46.8481993,123.294158 46.8481875,122.706483 47.2163073,122.357192 C47.3453129,122.234785 47.5754881,122.035375 47.8984274,121.784666 C48.428233,121.37336 49.0332099,120.963335 49.7054585,120.580615 C54.3593472,117.931094 59.4126041,117.930948 64.0946894,122.373654 C64.4453052,122.705842 64.4453171,123.293517 64.0771973,123.642808 C63.9481916,123.765215 63.7180164,123.964625 63.3950771,124.215334 Z M47.6956441,112.916019 C47.1373157,113.975668 46.7757774,115.119288 46.5747006,116.264245 C46.539753,116.46324 46.5110386,116.654898 46.4879379,116.837927 C50.4405954,116.600597 52.9678815,114.867258 54.4320231,112.088749 C54.9904659,111.028989 55.352084,109.885248 55.5532141,108.740191 C55.588147,108.541313 55.6168535,108.349769 55.639952,108.166847 C51.6870153,108.404073 49.1596837,110.137424 47.6956441,112.916019 Z M57.4784617,107.253495 C57.4784617,107.630084 57.4314438,108.254666 57.2922058,109.047365 C57.0611606,110.362732 56.644863,111.679415 55.993215,112.916051 C54.1147998,116.48073 50.7069245,118.636527 45.5323911,118.636667 C45.0448006,118.63668 44.649515,118.240319 44.6494855,117.751341 C44.6494741,117.374536 44.6964812,116.74985 44.8356997,115.957123 C45.0666855,114.641862 45.4828957,113.325303 46.134418,112.088781 C48.0127196,108.523961 51.420693,106.368133 56.5955801,106.368133 C57.0831821,106.368133 57.4784617,106.764523 57.4784617,107.253495 Z M39.0069115,112.903814 C39.331829,113.417562 39.6782733,113.884825 40.025676,114.297977 C43.3867777,110.699478 43.2601912,106.991226 40.9925291,103.405155 C40.6676622,102.891412 40.3212731,102.424151 39.9739252,102.010996 C36.6123781,105.609615 36.7389672,109.317819 39.0069115,112.903814 Z M41.2106692,100.736614 C41.6453306,101.24069 42.0788017,101.816504 42.4837428,102.456876 C45.2974549,106.906469 45.2978441,111.768751 40.6079734,116.219638 C40.2665756,116.543587 39.7338388,116.543614 39.3934109,116.220651 C39.2642162,116.098085 39.0537358,115.879385 38.788992,115.572409 C38.3542768,115.068349 37.9207519,114.49255 37.5157601,113.852191 C34.7014647,109.402325 34.701309,104.539621 39.3927381,100.088337 C39.7331565,99.765344 40.2659121,99.7653494 40.606324,100.088349 C40.7355031,100.210921 40.9459579,100.429629 41.2106692,100.736614 Z M29.3134135,115.638951 C30.4405393,116.173598 31.6577307,116.520016 32.8765294,116.712719 C33.1119559,116.749942 33.3378184,116.779802 33.5522554,116.803111 C33.2906021,113.118469 31.4779756,110.751782 28.5583371,109.366649 C27.4311584,108.831893 26.2139103,108.485401 24.9950652,108.292653 C24.7596783,108.255429 24.5338545,108.225567 24.3194549,108.202255 C24.5807838,111.887154 26.3934607,114.253887 29.3134135,115.638951 Z M23.4038177,106.368704 C23.7929629,106.368704 24.4431779,106.412772 25.2701214,106.543545 C26.6444397,106.760879 28.020355,107.152536 29.3134621,107.766011 C33.0652956,109.545954 35.350564,112.798234 35.3508631,117.751222 C35.3508927,118.240205 34.955619,118.636624 34.4679976,118.636637 C34.3542667,118.636387 34.1803405,118.630889 33.9328971,118.614124 C33.5294659,118.58679 33.0821749,118.537831 32.6015258,118.461836 C31.2272701,118.244554 29.8514269,117.852982 28.5583857,117.239635 C24.8061486,115.459781 22.5207866,112.207384 22.5209361,107.254039 C22.5209509,106.765078 22.9162261,106.368704 23.4038177,106.368704 Z M29.4227211,123.880035 C29.9321822,123.589974 30.3980883,123.282164 30.8140447,122.972593 C27.0162427,119.830414 23.0708871,119.964878 19.2838725,122.120725 C18.7744002,122.410754 18.3084789,122.71853 17.8925036,123.028068 C21.6905549,126.170531 25.635858,126.036074 29.4227211,123.880035 Z M15.9231456,122.357168 C16.0521454,122.234776 16.2823088,122.035391 16.6052304,121.784716 C17.135006,121.373464 17.7399469,120.963494 18.4121532,120.580824 C23.0652536,117.931939 28.117598,117.931502 32.7813706,122.35529 C33.1514751,122.706463 33.1514869,123.294098 32.7834017,123.643385 C32.6544103,123.765788 32.4242617,123.965191 32.1013589,124.215889 C31.5716146,124.627177 30.9667045,125.037183 30.2945259,125.419886 C25.6408786,128.069427 20.5877307,128.069427 15.9231197,123.643409 C15.5549999,123.294119 15.5550117,122.706443 15.9231456,122.357168 Z" id="Combined-Shape"></path>
                <path d="M151.208942,180.787957 C151.208942,181.493001 150.637391,182.064553 149.932346,182.064553 L128.605158,182.064553 C127.900114,182.064553 127.328563,181.493001 127.328563,180.787957 C127.328563,172.444871 123.633078,167.180539 117.393292,164.217617 C115.180705,163.166984 112.796306,162.487654 110.409607,162.109884 C109.573761,161.977586 108.799024,161.89269 108.106658,161.845724 C107.699016,161.818072 107.41528,161.80909 107.276596,161.80909 C106.571551,161.80909 106,161.237538 106,160.532494 L106,140.276596 C106,139.571551 106.571551,139 107.276596,139 C107.373166,139 107.548036,139.002679 107.796034,139.01053 C108.201659,139.023371 108.66999,139.046377 109.195863,139.082051 C110.690463,139.183441 112.352629,139.365588 114.141142,139.648688 C119.252609,140.457772 124.366376,141.914778 129.152075,144.187335 C142.907381,150.719235 151.208942,162.545572 151.208942,180.787957 Z M128.056867,146.493697 C123.511621,144.335323 118.627946,142.943874 113.741972,142.170483 C112.03138,141.899717 110.444378,141.725807 109.023057,141.629388 C108.860194,141.61834 108.703509,141.608598 108.553191,141.600077 L108.553191,159.318448 C109.24599,159.372954 110.002515,159.460473 110.80876,159.588087 C113.420944,160.001546 116.035427,160.746428 118.488462,161.911237 C125.252163,165.122937 129.479131,170.848273 129.854472,179.511361 L148.64141,179.511361 C148.268425,163.038754 140.639326,152.468654 128.056867,146.493697 Z M117.806324,151.673778 C117.948641,151.688852 118.236197,151.727398 118.647919,151.795822 C119.345579,151.911767 120.125871,152.070387 120.967629,152.277928 C123.372507,152.870865 125.776055,153.7339 128.008698,154.912362 C134.286381,158.225931 137.991836,163.308569 137.991836,170.660182 C137.991836,171.365226 138.563387,171.936778 139.268432,171.936778 C139.973476,171.936778 140.545027,171.365226 140.545027,170.660182 C140.545027,162.264486 136.252615,156.376739 129.200519,152.65441 C126.76774,151.370308 124.172621,150.438487 121.578831,149.798973 C120.671056,149.575155 119.826781,149.403529 119.066496,149.277176 C118.603452,149.200222 118.266174,149.155012 118.075247,149.134789 C117.374125,149.060528 116.745552,149.568699 116.671291,150.269822 C116.59703,150.970944 117.105201,151.599517 117.806324,151.673778 Z" id="Combined-Shape" transform="translate(128.604471, 160.532276) scale(-1, 1) translate(-128.604471, -160.532276) "></path>
                <path d="M1259.20894,49.7879568 C1259.20894,50.4930011 1258.63739,51.0645525 1257.93235,51.0645525 L1236.60516,51.0645525 C1235.90011,51.0645525 1235.32856,50.4930011 1235.32856,49.7879568 C1235.32856,41.4448708 1231.63308,36.1805393 1225.39329,33.2176169 C1223.1807,32.1669838 1220.79631,31.4876538 1218.40961,31.1098843 C1217.57376,30.9775857 1216.79902,30.8926905 1216.10666,30.845724 C1215.69902,30.8180716 1215.41528,30.8090896 1215.2766,30.8090896 C1214.57155,30.8090896 1214,30.2375382 1214,29.5324939 L1214,9.27659574 C1214,8.57155138 1214.57155,8 1215.2766,8 C1215.37317,8 1215.54804,8.00267869 1215.79603,8.01052969 C1216.20166,8.02337081 1216.66999,8.04637704 1217.19586,8.08205107 C1218.69046,8.18344131 1220.35263,8.36558817 1222.14114,8.64868825 C1227.25261,9.45777217 1232.36638,10.9147784 1237.15208,13.1873349 C1250.90738,19.7192346 1259.20894,31.5455718 1259.20894,49.7879568 Z M1236.05687,15.4936969 C1231.51162,13.3353232 1226.62795,11.9438744 1221.74197,11.1704833 C1220.03138,10.8997171 1218.44438,10.7258071 1217.02306,10.6293879 C1216.86019,10.6183396 1216.70351,10.6085983 1216.55319,10.6000767 L1216.55319,28.3184481 C1217.24599,28.3729535 1218.00252,28.4604733 1218.80876,28.5880867 C1221.42094,29.0015462 1224.03543,29.7464285 1226.48846,30.9112366 C1233.25216,34.1229368 1237.47913,39.8482735 1237.85447,48.511361 L1256.64141,48.511361 C1256.26842,32.0387543 1248.63933,21.4686536 1236.05687,15.4936969 Z M1225.80632,20.6737783 C1225.94864,20.6888523 1226.2362,20.7273978 1226.64792,20.7958224 C1227.34558,20.9117674 1228.12587,21.0703872 1228.96763,21.2779279 C1231.37251,21.8708651 1233.77605,22.7338995 1236.0087,23.9123621 C1242.28638,27.2259307 1245.99184,32.3085688 1245.99184,39.6601818 C1245.99184,40.3652262 1246.56339,40.9367776 1247.26843,40.9367776 C1247.97348,40.9367776 1248.54503,40.3652262 1248.54503,39.6601818 C1248.54503,31.2644858 1244.25261,25.3767387 1237.20052,21.6544099 C1234.76774,20.3703084 1232.17262,19.4384872 1229.57883,18.7989726 C1228.67106,18.5751551 1227.82678,18.4035286 1227.0665,18.2771759 C1226.60345,18.200222 1226.26617,18.1550115 1226.07525,18.134789 C1225.37412,18.0605278 1224.74555,18.5686993 1224.67129,19.2698218 C1224.59703,19.9709444 1225.1052,20.5995171 1225.80632,20.6737783 Z" id="Combined-Shape" transform="translate(1236.604471, 29.532276) scale(-1, 1) translate(-1236.604471, -29.532276) "></path>
                <path d="M1273.4587,177.1452 C1274.41132,177.605171 1275.51646,178.066739 1276.75922,178.498367 C1281.82034,180.256157 1287.48177,180.988693 1293.47158,180.110333 C1301.47459,178.936754 1309.29101,174.969099 1316.67672,167.584717 C1316.71264,167.548804 1316.80363,167.444838 1316.93222,167.273413 C1317.16162,166.967603 1317.39461,166.594897 1317.61427,166.15566 C1318.67791,164.028769 1319.01934,161.297693 1318.17393,157.916803 C1316.99515,153.202736 1313.6197,147.803032 1307.54045,141.724838 C1301.46113,135.646914 1296.06046,132.272175 1291.34553,131.093609 C1287.96395,130.248334 1285.23231,130.589671 1283.10501,131.653084 C1282.6657,131.872689 1282.29294,132.105614 1281.98709,132.334956 C1281.81564,132.463514 1281.71166,132.554476 1281.67574,132.590393 C1274.28976,139.974723 1270.32128,147.789656 1269.14748,155.791113 C1268.26896,161.779743 1269.00167,167.440059 1270.75986,172.500194 C1271.19159,173.742734 1271.65326,174.847676 1272.11334,175.800121 C1272.27288,176.13039 1272.42021,176.417076 1272.55137,176.658323 C1272.84163,176.838405 1273.12837,176.9857 1273.4587,177.1452 Z M1270.83277,178.052002 C1270.68888,177.812242 1270.45021,177.373243 1270.14873,176.749132 C1269.65313,175.723163 1269.15913,174.540865 1268.6989,173.216289 C1266.83263,167.84509 1266.05513,161.838761 1266.98877,155.474434 C1268.23117,147.005302 1272.41752,138.761331 1280.13312,131.047451 C1280.49721,130.683435 1281.16126,130.185504 1282.12944,129.70152 C1288.58122,126.476345 1297.63902,128.740475 1309.08307,140.181905 C1320.52713,151.623985 1322.79178,160.680541 1319.56567,167.131544 C1319.08154,168.099628 1318.58346,168.763603 1318.21935,169.127642 C1310.50409,176.841521 1302.2587,181.026923 1293.78814,182.269064 C1287.42278,183.202495 1281.41547,182.425206 1276.04339,180.559415 C1274.71862,180.099302 1273.53614,179.605434 1272.51001,179.109969 C1271.88581,178.808571 1271.44674,178.569965 1271.20695,178.426112 C1271.05341,178.334004 1270.92491,178.205522 1270.83277,178.052002 Z M1283.959,144.009151 C1283.12385,144.843799 1283.12385,146.197974 1283.95916,147.032777 C1284.79461,147.868063 1286.14929,147.868167 1286.98452,147.033439 C1287.81958,146.198213 1287.81958,144.844067 1286.98483,144.009151 C1286.14931,143.17414 1284.79452,143.17414 1283.959,144.009151 Z M1282.41669,142.465908 C1284.10415,140.779464 1286.83968,140.779464 1288.52745,142.466218 C1290.21435,144.153461 1290.21435,146.888819 1288.52714,148.576373 C1286.83955,150.262948 1284.1039,150.262738 1282.41669,148.575866 C1280.72886,146.889058 1280.72886,144.152715 1282.41669,142.465908 Z M1293.09528,153.143287 C1292.26,153.978064 1292.26,155.33212 1293.09528,156.166561 C1293.93089,157.001996 1295.28556,157.002308 1296.12064,156.167731 C1296.9557,155.332505 1296.9557,153.978358 1296.1208,153.143287 C1295.28532,152.307976 1293.93076,152.307976 1293.09528,153.143287 Z M1291.55281,151.600199 C1293.24016,149.913196 1295.97593,149.913196 1297.66358,151.600509 C1299.35048,153.287752 1299.35048,156.02311 1297.66327,157.710664 C1295.97572,159.397195 1293.24007,159.396566 1291.55297,157.709805 C1289.86496,156.023495 1289.86496,153.287032 1291.55281,151.600199 Z M1302.23125,165.301204 C1303.06692,166.136365 1304.42172,166.136573 1305.25677,165.302022 C1306.09183,164.466796 1306.09183,163.112649 1305.25693,162.277578 C1304.42145,161.442267 1303.06689,161.442267 1302.23141,162.277578 C1301.39656,163.112262 1301.39656,164.466676 1302.23125,165.301204 Z M1306.7997,160.7348 C1308.48661,162.422044 1308.48661,165.157401 1306.79939,166.844955 C1305.11198,168.531355 1302.37645,168.530936 1300.68879,166.844293 C1299.00168,165.157521 1299.00168,162.421417 1300.68879,160.734645 C1302.37628,159.047487 1305.11205,159.047487 1306.7997,160.7348 Z M1279.39122,157.710252 C1278.55594,158.545035 1278.55604,159.899329 1279.39122,160.734344 C1280.22618,161.569474 1281.58113,161.569474 1282.41643,160.734344 C1283.25164,159.898968 1283.25174,158.545061 1282.41658,157.710407 C1281.58113,156.875122 1280.22618,156.875122 1279.39122,157.710252 Z M1277.8486,156.167319 C1279.53529,154.48029 1282.27168,154.48029 1283.95905,156.167319 C1285.64668,157.853926 1285.64647,160.589523 1283.95921,162.277122 C1282.27168,163.964306 1279.53529,163.964306 1277.84844,162.277122 C1276.16116,160.590176 1276.16095,157.853952 1277.8486,156.167319 Z M1288.52735,166.844594 C1287.69212,167.67966 1287.69201,169.033687 1288.52719,169.869037 C1289.36219,170.703868 1290.71738,170.703868 1291.55271,169.869037 C1292.38787,169.034049 1292.38776,167.679634 1291.55271,166.844749 C1290.71726,166.009464 1289.36231,166.009464 1288.52735,166.844594 Z M1286.98457,165.301816 C1288.67142,163.614632 1291.40781,163.614632 1293.09533,165.301816 C1294.78259,166.988736 1294.7828,169.724841 1293.09518,171.412126 C1291.40769,173.098596 1288.67153,173.098596 1286.98442,171.411816 C1285.29713,169.724188 1285.29734,166.98871 1286.98457,165.301816 Z M1309.40661,125.953216 C1309.04624,125.352776 1308.66336,124.804161 1308.27849,124.315303 C1304.41686,128.726337 1304.57797,133.288124 1307.21693,137.685661 C1307.57727,138.286127 1307.96012,138.834773 1308.34496,139.323666 C1312.20684,134.912229 1312.04575,130.350511 1309.40661,125.953216 Z M1306.83301,140.925422 C1306.32518,140.304844 1305.81889,139.596151 1305.34612,138.808335 C1302.0669,133.343874 1302.06615,127.389386 1307.5372,121.917315 C1307.9664,121.488216 1308.65696,121.488206 1309.08297,121.91408 C1309.23447,122.065539 1309.48081,122.33525 1309.79038,122.713499 C1310.29824,123.334027 1310.80456,124.04267 1311.27736,124.830441 C1314.55751,130.295772 1314.55751,136.251532 1309.08301,141.724929 C1308.65699,142.15086 1307.96637,142.150851 1307.54037,141.724907 C1307.38887,141.573435 1307.14256,141.303701 1306.83301,140.925422 Z M1311.58007,139.859071 C1310.97961,140.219289 1310.43097,140.602004 1309.94207,140.986707 C1314.35425,144.847607 1318.91723,144.686476 1323.31579,142.047845 C1323.91626,141.687629 1324.46492,141.304916 1324.95384,140.920215 C1320.54147,137.059303 1315.97851,137.220424 1311.58007,139.859071 Z M1326.55567,142.432182 C1325.93497,142.939927 1325.22614,143.446139 1324.43817,143.918832 C1318.9721,147.197848 1313.01594,147.19822 1307.54223,141.726514 C1307.11452,141.298868 1307.11452,140.608056 1307.54062,140.182017 C1307.69212,140.030543 1307.96189,139.784262 1308.34023,139.474758 C1308.96091,138.96701 1309.66971,138.460796 1310.45766,137.9881 C1315.92416,134.708718 1321.88094,134.708718 1327.35532,140.181995 C1327.78145,140.60804 1327.78145,141.298885 1327.35532,141.724929 C1327.20381,141.8764 1326.93403,142.12268 1326.55567,142.432182 Z" id="Combined-Shape" transform="translate(1297.133969, 152.129906) rotate(-17.000000) translate(-1297.133969, -152.129906) "></path>
                <path d="M125.511822,105.202384 C126.464439,105.662355 127.56958,106.123923 128.812344,106.555551 C133.87346,108.313341 139.534887,109.045877 145.524702,108.167518 C153.527715,106.993938 161.344136,103.026284 168.729839,95.6419011 C168.765758,95.6059885 168.856747,95.5020223 168.98534,95.3305977 C169.214743,95.0247873 169.447728,94.6520813 169.667388,94.2128441 C170.731032,92.085953 171.072458,89.3548773 170.227048,85.9739878 C169.04827,81.25992 165.672817,75.8602162 159.59357,69.7820226 C153.514256,63.7040986 148.113582,60.3293595 143.398647,59.1507931 C140.01707,58.3055188 137.285428,58.6468552 135.158129,59.7102687 C134.718823,59.929873 134.346061,60.1627986 134.040207,60.3921408 C133.86876,60.5206988 133.764782,60.6116609 133.728858,60.6475772 C126.342879,68.0319078 122.374399,75.8468402 121.200601,83.8482976 C120.322081,89.8369275 121.054793,95.497243 122.812977,100.557378 C123.244707,101.799918 123.706385,102.904861 124.166465,103.857306 C124.326002,104.187574 124.473332,104.47426 124.604491,104.715507 C124.894755,104.89559 125.181494,105.042885 125.511822,105.202384 Z M122.885894,106.109187 C122.742,105.869426 122.503329,105.430427 122.201851,104.806316 C121.706255,103.780347 121.212256,102.598049 120.752021,101.273474 C118.885755,95.9022745 118.108254,89.8959453 119.041887,83.5316187 C120.284292,75.0624864 124.470642,66.818515 132.186243,59.1046352 C132.550332,58.7406195 133.214381,58.2426886 134.182563,57.7587046 C140.634343,54.5335299 149.692146,56.7976591 161.136194,68.2390892 C172.580256,79.6811696 174.844897,88.7377259 171.618792,95.1887289 C171.13466,96.1568127 170.636582,96.8207878 170.272471,97.184826 C162.557212,104.898705 154.311821,109.084107 145.841263,110.326249 C139.475899,111.25968 133.468591,110.48239 128.096516,108.616599 C126.771737,108.156487 125.589258,107.662618 124.563133,107.167153 C123.938928,106.865756 123.499865,106.62715 123.260072,106.483297 C123.106536,106.391189 122.97803,106.262707 122.885894,106.109187 Z M136.012122,72.0663356 C135.176971,72.9009836 135.176971,74.2551585 136.012277,75.0899616 C136.847731,75.9252471 138.202407,75.925351 139.037638,75.0906238 C139.872696,74.2553978 139.872696,72.9012515 139.037949,72.0663356 C138.202434,71.2313244 136.847637,71.2313244 136.012122,72.0663356 Z M134.469809,70.523092 C136.157271,68.836648 138.8928,68.836648 140.580572,70.5234022 C142.267476,72.2106457 142.267476,74.9460036 140.580262,76.6335573 C138.892669,78.320132 136.15702,78.3199222 134.469809,76.6330501 C132.781984,74.9462429 132.781984,72.2098993 134.469809,70.523092 Z M145.148404,81.2004717 C144.313124,82.0352489 144.313124,83.3893041 145.148404,84.2237456 C145.984007,85.0591808 147.338684,85.0594924 148.173765,84.224915 C149.008823,83.389689 149.008823,82.0355426 148.173921,81.2004717 C147.338441,80.3651601 145.983884,80.3651601 145.148404,81.2004717 Z M143.605936,79.6573831 C145.293278,77.9703803 148.029047,77.9703803 149.716699,79.6576933 C151.403603,81.3449368 151.403603,84.0802947 149.716389,85.7678484 C148.02884,87.4543793 145.293191,87.45375 143.606091,85.7669892 C141.918085,84.0806796 141.918085,81.3442163 143.605936,79.6573831 Z M154.284376,93.3583888 C155.120041,94.1935497 156.474837,94.1937575 157.309893,93.3592061 C158.14495,92.5239801 158.14495,91.1698337 157.310048,90.3347628 C156.474568,89.4994512 155.120011,89.4994512 154.284531,90.3347628 C153.44968,91.1694462 153.44968,92.5238604 154.284376,93.3583888 Z M158.852826,88.7919845 C160.53973,90.479228 160.53973,93.2145858 158.852516,94.9021395 C157.165098,96.5885397 154.429568,96.5881202 152.741908,94.9014773 C151.054797,93.2147054 151.054797,90.4786012 152.741908,88.7918293 C154.429405,87.1046714 157.165174,87.1046714 158.852826,88.7919845 Z M131.444344,85.7674368 C130.609058,86.6022192 130.609161,87.9565137 131.444344,88.791528 C132.279306,89.6266587 133.634251,89.6266587 134.469549,88.791528 C135.304757,87.956152 135.304861,86.602245 134.469705,85.7675919 C133.634251,84.9323061 132.279306,84.9323061 131.444344,85.7674368 Z M129.90172,84.2245033 C131.588409,82.5374747 134.324805,82.5374747 136.012173,84.2245033 C137.699797,85.9111104 137.699588,88.6467073 136.012328,90.3343064 C134.324805,92.0214901 131.588409,92.0214901 129.901565,90.3343064 C128.21428,88.64736 128.21407,85.9111362 129.90172,84.2245033 Z M140.580471,94.9017786 C139.745237,95.7368446 139.745133,97.0908714 140.580315,97.9262219 C141.415314,98.7610522 142.770498,98.7610522 143.605832,97.9262219 C144.440988,97.091233 144.440885,95.7368187 143.605832,94.9019337 C142.770378,94.066648 141.415433,94.066648 140.580471,94.9017786 Z M139.037692,93.3590003 C140.724536,91.6718165 143.460932,91.6718165 145.148455,93.3590003 C146.835715,95.0459208 146.835925,97.782025 145.1483,99.4693104 C143.460813,101.15578 140.724656,101.15578 139.037537,99.4690003 C137.350248,97.7813725 137.350458,95.0458949 139.037692,93.3590003 Z M161.45973,54.0104008 C161.099361,53.4099601 160.716478,52.8613451 160.331611,52.372487 C156.469985,56.7835217 156.63109,61.3453088 159.270054,65.7428452 C159.630394,66.3433111 160.013246,66.891957 160.398082,67.3808502 C164.259961,62.9694138 164.098871,58.4076953 161.45973,54.0104008 Z M158.886127,68.982606 C158.378303,68.3620283 157.872012,67.6533358 157.399244,66.8655197 C154.120017,61.4010583 154.119273,55.44657 159.590317,49.9744996 C160.019526,49.5454 160.710082,49.5453904 161.136089,49.9712648 C161.287595,50.1227236 161.533929,50.3924347 161.843499,50.7706839 C162.351357,51.3912113 162.85768,52.0998543 163.33048,52.8876254 C166.610629,58.3529563 166.610629,64.3087168 161.136132,69.7821133 C160.710115,70.2080448 160.019493,70.2080353 159.593487,69.7820919 C159.441993,69.6306198 159.195677,69.3608852 158.886127,68.982606 Z M163.633192,67.9162559 C163.032735,68.2764733 162.484094,68.6591888 161.995194,69.0438911 C166.407367,72.904791 170.970354,72.7436606 175.368909,70.105029 C175.969382,69.7448134 176.518043,69.3621 177.006963,68.9773994 C172.594589,65.1164874 168.031627,65.2776081 163.633192,67.9162559 Z M178.608792,70.4893663 C177.988093,70.9971119 177.27926,71.5033232 176.491288,71.9760167 C171.025225,75.2550321 165.069065,75.255404 159.595348,69.7836987 C159.16764,69.3560526 159.16764,68.6652406 159.593741,68.2392013 C159.745236,68.0877278 160.015013,67.8414465 160.393353,67.5319423 C161.014027,67.0241941 161.722835,66.5179804 162.510785,66.0452847 C167.977278,62.7659025 173.93406,62.7659025 179.408437,68.2391799 C179.834567,68.6652241 179.834567,69.3560691 179.408437,69.7821133 C179.256935,69.9335847 178.987147,70.1798641 178.608792,70.4893663 Z" id="Combined-Shape" transform="translate(149.187090, 80.187090) rotate(-45.000000) translate(-149.187090, -80.187090) "></path>
                <path d="M1253.58524,97.5017761 C1254.05311,97.7277334 1254.59589,97.9544752 1255.20627,98.1665091 C1257.69201,99.0300102 1260.47258,99.3898628 1263.41444,98.9583754 C1267.34508,98.3818635 1271.18406,96.4327833 1274.81151,92.8052616 C1274.82915,92.7876199 1274.87384,92.7365472 1274.93699,92.6523362 C1275.04966,92.5021092 1275.16409,92.3190202 1275.27198,92.1032483 C1275.79438,91.0584292 1275.96207,89.7168091 1275.54685,88.0559728 C1274.9679,85.740223 1273.31007,83.0876595 1270.32428,80.1017932 C1267.33846,77.1160593 1264.68596,75.4582444 1262.37024,74.8792827 C1260.7094,74.4640481 1259.36777,74.631727 1258.32296,75.1541208 C1258.1072,75.2619997 1257.92412,75.3764227 1257.7739,75.4890853 C1257.6897,75.5522384 1257.63863,75.5969229 1257.62099,75.6145665 C1253.99341,79.2420627 1252.04431,83.0810887 1251.46781,87.0117437 C1251.03633,89.9536126 1251.3962,92.7341995 1252.25972,95.2199523 C1252.47176,95.8303405 1252.69851,96.3731354 1252.92447,96.8410165 C1253.00283,97.0032585 1253.07519,97.1440908 1253.13961,97.2626016 C1253.28217,97.3510657 1253.423,97.4234232 1253.58524,97.5017761 Z M1252.29553,97.9472359 C1252.22486,97.8294555 1252.10764,97.6138005 1251.95957,97.3072109 C1251.71616,96.8032114 1251.47353,96.2224166 1251.24749,95.5717287 C1250.33089,92.9331681 1249.94902,89.9826046 1250.40757,86.8561776 C1251.01777,82.6957809 1253.07387,78.6459927 1256.86334,74.8566079 C1257.04216,74.677788 1257.3683,74.4331832 1257.84382,74.1954298 C1261.01257,72.6110873 1265.46126,73.7233235 1271.08193,79.3438389 C1276.70262,84.9646738 1277.81488,89.4136382 1276.2304,92.5826443 C1275.99262,93.0582081 1275.74799,93.3843808 1275.56916,93.5632118 C1271.77986,97.3525963 1267.73018,99.4086432 1263.56992,100.018836 C1260.44361,100.477376 1257.49316,100.095539 1254.8547,99.1789834 C1254.20404,98.9529566 1253.62327,98.7103475 1253.1193,98.466954 C1252.81272,98.3188949 1252.59708,98.2016814 1252.47931,98.1310147 C1252.4039,98.0857675 1252.34078,98.0226515 1252.29553,97.9472359 Z M1258.7424,81.2239446 C1258.33222,81.6339591 1258.33222,82.2991872 1258.74247,82.7092778 C1259.1528,83.1196055 1259.81814,83.1196565 1260.22836,82.7096032 C1260.6385,82.2993047 1260.6385,81.6340906 1260.22851,81.2239446 C1259.81816,80.8137517 1259.15276,80.8137517 1258.7424,81.2239446 Z M1257.9849,80.4658379 C1258.81369,79.6373852 1260.15723,79.6373852 1260.98616,80.4659903 C1261.81468,81.2948358 1261.81468,82.6385596 1260.98601,83.4675575 C1260.15716,84.2960745 1258.81356,84.2959714 1257.9849,83.4673083 C1257.15593,82.6386771 1257.15593,81.2944692 1257.9849,80.4658379 Z M1263.22963,85.7110194 C1262.81938,86.1210973 1262.81938,86.7862667 1263.22963,87.1961797 C1263.64003,87.6065809 1264.30537,87.606734 1264.71552,87.1967541 C1265.12565,86.7864557 1265.12565,86.1212416 1264.71559,85.7110194 C1264.30525,85.3006789 1263.63997,85.3006789 1263.22963,85.7110194 Z M1262.47205,84.9529889 C1263.30078,84.1242616 1264.64444,84.1242616 1265.47332,84.9531413 C1266.30183,85.7819868 1266.30183,87.1257105 1265.47317,87.9547084 C1264.64434,88.7832039 1263.30074,88.7828948 1262.47213,87.9542864 C1261.64308,87.1258996 1261.64308,85.7816328 1262.47205,84.9529889 Z M1267.7167,91.6835036 C1268.12714,92.09377 1268.79254,92.0938721 1269.20267,91.6839051 C1269.6128,91.2736067 1269.6128,90.6083926 1269.20274,90.1981704 C1268.7924,89.7878299 1268.12712,89.7878299 1267.71678,90.1981704 C1267.30675,90.6082022 1267.30675,91.2735479 1267.7167,91.6835036 Z M1269.96047,89.4402923 C1270.78898,90.2691378 1270.78898,91.6128615 1269.96032,92.4418594 C1269.13155,93.2702907 1267.78801,93.2700846 1266.95913,92.4415341 C1266.13052,91.6129203 1266.13052,90.2688299 1266.95913,89.4402161 C1267.78793,88.6114126 1269.13159,88.6114126 1269.96047,89.4402923 Z M1256.49896,87.9545062 C1256.08872,88.3645868 1256.08877,89.0298736 1256.49896,89.440068 C1256.90905,89.8503196 1257.57452,89.8503196 1257.98477,89.440068 C1258.39498,89.0296959 1258.39503,88.3645994 1257.98485,87.9545824 C1257.57452,87.5442547 1256.90905,87.5442547 1256.49896,87.9545062 Z M1255.74131,87.1965519 C1256.56972,86.3678119 1257.91368,86.3678119 1258.74242,87.1965519 C1259.57129,88.0250848 1259.57119,89.368926 1258.7425,90.1979462 C1257.91368,91.0267623 1256.56972,91.0267623 1255.74123,90.1979462 C1254.91253,89.3692466 1254.91243,88.0250975 1255.74131,87.1965519 Z M1260.98611,92.4416821 C1260.57589,92.8519019 1260.57584,93.5170573 1260.98604,93.9274168 C1261.39614,94.3375209 1262.06173,94.3375209 1262.472,93.9274168 C1262.88218,93.5172349 1262.88213,92.8518892 1262.472,92.4417583 C1262.06167,92.0314305 1261.3962,92.0314305 1260.98611,92.4416821 Z M1260.22839,91.683804 C1261.05687,90.8549878 1262.40084,90.8549878 1263.22965,91.683804 C1264.05834,92.5124909 1264.05844,93.8565812 1263.22958,94.6854473 C1262.40078,95.5139128 1261.05693,95.5139128 1260.22831,94.685295 C1259.39961,93.8562607 1259.39971,92.5124782 1260.22839,91.683804 Z M1271.24084,72.3541041 C1271.06384,72.0591422 1270.87579,71.7896392 1270.68677,71.5494914 C1268.79015,73.7163786 1268.86928,75.9573218 1270.16539,78.1175781 C1270.34237,78.4125524 1270.5304,78.6820705 1270.71941,78.9222356 C1272.61615,76.755151 1272.53703,74.5142415 1271.24084,72.3541041 Z M1269.97683,79.7090859 C1269.72741,79.4042318 1269.47875,79.056092 1269.24655,78.6690834 C1267.63598,75.9847083 1267.63562,73.0596113 1270.32269,70.3714984 C1270.53349,70.1607064 1270.87265,70.1607017 1271.08188,70.3699093 C1271.15629,70.4443123 1271.27728,70.5768058 1271.42932,70.7626178 C1271.67875,71.0674472 1271.92743,71.4155627 1272.15964,71.8025492 C1273.77067,74.4873514 1273.77067,77.4130734 1271.0819,80.1018378 C1270.87267,80.3110734 1270.53347,80.3110687 1270.32424,80.1018273 C1270.24984,80.0274177 1270.12886,79.8949127 1269.97683,79.7090859 Z M1272.30832,79.1852495 C1272.01341,79.3622036 1271.74395,79.5502097 1271.50383,79.7391918 C1273.67084,81.6358294 1275.91192,81.5566753 1278.07225,80.2604677 C1278.36716,80.0835145 1278.63664,79.8955094 1278.87677,79.7065282 C1276.70965,77.8098846 1274.46858,77.8890339 1272.30832,79.1852495 Z M1279.66349,80.4492704 C1279.35864,80.6986966 1279.0105,80.9473691 1278.6235,81.1795761 C1275.93887,82.7903675 1273.01354,82.7905502 1270.32516,80.1026166 C1270.11509,79.8925387 1270.11509,79.5531826 1270.32437,79.343894 C1270.39877,79.2694838 1270.53127,79.1485 1270.71709,78.9964584 C1271.02193,78.747031 1271.37006,78.4983573 1271.75706,78.2661492 C1274.44189,76.6551776 1277.36753,76.6551776 1280.05624,79.3438835 C1280.26553,79.5531745 1280.26553,79.8925468 1280.05624,80.1018378 C1279.98183,80.176247 1279.84932,80.2972298 1279.66349,80.4492704 Z" id="Combined-Shape" transform="translate(1265.213203, 85.213203) rotate(-45.000000) translate(-1265.213203, -85.213203) "></path>
            </g>
        </g>
    </g>
</svg>