<?xml version="1.0" encoding="UTF-8" standalone="no"?>
<svg width="1407px" height="169px" viewBox="0 0 1407 169" version="1.1" xmlns="http://www.w3.org/2000/svg" xmlns:xlink="http://www.w3.org/1999/xlink">
    <!-- Generator: Sketch 42 (36781) - http://www.bohemiancoding.com/sketch -->
    <title>Group 3</title>
    <desc>Created with Sketch.</desc>
    <defs></defs>
    <g id="Page-1" stroke="none" stroke-width="1" fill="none" fill-rule="evenodd" stroke-linecap="round" opacity="0.2" stroke-linejoin="round">
        <g id="Group-3" transform="translate(-9.000000, -148.000000)" stroke="#00FF00">
            <path d="M287.042107,277.202889 C287.005374,277.272556 246.029399,354.935204 123.212139,354.935204 C0.339274069,354.935204 0.339274069,277.202842 0.339274069,277.202842 C0.339274069,277.202842 0.339274069,199.468606 123.212139,199.468606 C245.974459,199.468606 286.968698,277.06366 287.042033,277.202655 C287.042164,277.063752 287.11548,238.334974 327.99916,238.334974 L328.000148,240.540839 L327.99916,316.068742 C287.042032,316.068742 287.042032,277.20303 287.042032,277.20303 C287.042032,277.20303 287.042032,277.203014 287.042032,277.202983 Z M102.733229,316.068507 C102.733229,316.068507 143.691345,277.202796 102.733229,218.902118 M164.169563,277.202842 C164.169563,277.202842 180.823313,261.39977 164.169563,237.694691 M143.691246,277.202842 C143.691246,277.202842 160.343514,261.39977 143.691246,237.694691 M143.691246,316.709634 C143.691246,316.709634 160.343514,300.906092 143.691246,277.202889 M164.169563,316.709634 C164.169563,316.709634 180.823313,300.906092 164.169563,277.202889 M184.648324,316.709634 C184.648324,316.709634 201.301087,300.906092 184.648324,277.202889 M184.648324,277.202842 C184.648324,277.202842 201.301087,261.39977 184.648324,237.694691 M51.5363258,257.768674 C51.5363258,252.402663 56.1206659,248.052832 61.7758548,248.052832 C67.4305495,248.052832 72.0148895,252.402663 72.0148895,257.768674 C72.0148895,263.134684 67.4305495,267.484515 61.7758548,267.484515 C56.1206659,267.484515 51.5363258,263.134684 51.5363258,257.768674 Z" id="Combined-Shape" stroke-width="4" transform="translate(164.169711, 277.201905) scale(-1, 1) translate(-164.169711, -277.201905) "></path>
            <path d="M438.999856,150 C372.172514,150 372.172514,213.467117 372.172514,213.467117 L405.585826,213.467117 C405.585826,213.467117 405.585826,181.732877 438.999856,181.732877 L438.999856,150 Z M388.879098,197.599792 C388.879098,197.599792 392.604772,165.866234 422.29241,165.866234" id="Combined-Shape" stroke-width="4" transform="translate(405.586185, 181.733559) scale(-1, 1) translate(-405.586185, -181.733559) "></path>
            <path d="M1283.92126,294.458668 C1283.92126,267.304551 1260.656,245.292032 1231.95653,245.292032 C1203.25653,245.292032 1179.99126,267.304551 1179.99126,294.458668 C1179.99126,321.612785 1203.25653,343.625304 1231.95653,343.625304 C1260.656,343.625304 1283.92126,321.612785 1283.92126,294.458668 Z M1296.91211,294.458668 C1296.91211,260.516146 1267.83,233 1231.95632,233 C1196.08211,233 1167,260.516146 1167,294.458668 C1167,328.40119 1196.08211,355.91634 1231.95632,355.91634 C1267.83,355.91634 1296.91211,328.40119 1296.91211,294.458668 Z M1192.98274,294.458668 C1192.98274,294.458668 1205.97432,282.167134 1218.96484,294.458668 C1218.96484,294.458668 1205.97432,306.751198 1192.98274,294.458668 Z M1204.39721,268.384461 C1204.39721,268.384461 1222.76879,268.384461 1222.76984,285.766801 C1222.76984,285.766801 1204.39668,285.767299 1204.39721,268.384461 Z M1231.95526,257.583666 C1231.95526,257.583666 1244.94632,269.875699 1231.95632,282.167233 C1231.95632,282.167233 1218.96368,269.875699 1231.95526,257.583666 Z M1259.51389,268.383515 C1259.51389,268.383515 1259.51389,285.766353 1241.14284,285.766851 C1241.14284,285.766851 1241.14179,268.383515 1259.51389,268.383515 Z M1270.92989,294.457672 C1270.92989,294.457672 1257.93832,306.750202 1244.94674,294.458668 C1244.94674,294.458668 1257.93832,282.166138 1270.92989,294.457672 Z M1259.51489,320.532826 C1259.51489,320.532826 1241.14279,320.532826 1241.14226,303.149987 C1241.14226,303.149987 1259.51489,303.149489 1259.51489,320.532826 Z M1231.95684,331.33367 C1231.95684,331.33367 1218.96526,319.041637 1231.95579,306.750103 C1231.95579,306.750103 1244.94842,319.041637 1231.95684,331.33367 Z M1204.39774,320.533821 C1204.39774,320.533821 1204.39774,303.150485 1222.76984,303.149987 C1222.76984,303.149987 1222.76984,320.533821 1204.39774,320.533821 Z" id="Combined-Shape" stroke-width="2.93214365"></path>
            <path d="M1049.70445,233.300852 C1049.70445,192.789491 1007.0487,192.789491 1007.0487,192.789491 L1007.0487,213.045389 C1007.0487,213.045389 1028.37726,213.045389 1028.37726,233.300852 L1049.70445,233.300852 Z M1017.71289,202.917179 C1017.71289,202.917179 1039.04054,205.176153 1039.04054,223.173077" id="Combined-Shape" stroke-width="2.55319149" transform="translate(1028.376577, 213.045172) scale(-1, 1) translate(-1028.376577, -213.045172) "></path>
            <path d="M1397.21814,261.625648 C1397.21814,261.625648 1388.63994,261.625648 1388.63994,253.478688 C1388.63994,253.478688 1397.21814,253.478406 1397.21814,261.625648 Z M1405.79635,253.478406 C1405.79635,253.478406 1405.79664,261.625648 1397.21814,261.625648 C1397.21814,261.625648 1397.21814,253.478406 1405.79635,253.478406 Z M1397.21814,294.213824 C1397.21814,294.213824 1380.06174,290.139921 1380.06174,269.772663 C1380.06174,269.772663 1380.06174,261.625704 1397.21814,261.625704 C1414.37485,261.625422 1414.37485,269.772663 1414.37485,269.772663 C1414.37485,290.139921 1397.21814,294.213824 1397.21814,294.213824 Z M1386.49523,273.846115 C1386.49523,272.721404 1387.45546,271.809446 1388.64,271.809446 C1389.82425,271.809446 1390.78477,272.721404 1390.78477,273.846115 C1390.78477,274.970826 1389.82425,275.882784 1388.64,275.882784 C1387.45546,275.882784 1386.49523,274.970826 1386.49523,273.846115 Z M1395.07373,273.846115 C1395.07373,272.721404 1396.03366,271.809446 1397.2182,271.809446 C1398.40275,271.809446 1399.36298,272.721404 1399.36298,273.846115 C1399.36298,274.970826 1398.40275,275.882784 1397.2182,275.882784 C1396.03366,275.882784 1395.07373,274.970826 1395.07373,273.846115 Z M1403.65196,273.846115 C1403.65196,272.721404 1404.61189,271.809446 1405.79673,271.809446 C1406.98098,271.809446 1407.94121,272.721404 1407.94121,273.846115 C1407.94121,274.970826 1406.98098,275.882784 1405.79673,275.882784 C1404.61189,275.882784 1403.65196,274.970826 1403.65196,273.846115 Z M1390.78463,281.993102 C1390.78463,280.868391 1391.74456,279.956433 1392.9291,279.956433 C1394.11365,279.956433 1395.07358,280.868391 1395.07358,281.993102 C1395.07358,283.118096 1394.11365,284.030054 1392.9291,284.030054 C1391.74456,284.030054 1390.78463,283.118096 1390.78463,281.993102 Z M1399.36283,281.993102 C1399.36283,280.868391 1400.32276,279.956433 1401.5076,279.956433 C1402.69185,279.956433 1403.65208,280.868391 1403.65208,281.993102 C1403.65208,283.118096 1402.69185,284.030054 1401.5076,284.030054 C1400.32276,284.030054 1399.36283,283.118096 1399.36283,281.993102 Z" id="Combined-Shape" stroke-width="1.65517241"></path>
        </g>
    </g>
</svg>