<?xml version="1.0" encoding="UTF-8" standalone="no"?>
<svg width="466px" height="253px" viewBox="0 0 466 253" version="1.1" xmlns="http://www.w3.org/2000/svg" xmlns:xlink="http://www.w3.org/1999/xlink">
    <!-- Generator: Sketch 42 (36781) - http://www.bohemiancoding.com/sketch -->
    <title>Group</title>
    <desc>Created with Sketch.</desc>
    <defs></defs>
    <g id="Page-1" stroke="none" stroke-width="1" fill="none" fill-rule="evenodd">
        <g id="Group" transform="translate(-15.000000, 0.000000)" fill-rule="nonzero" fill="#00FF00">
            <path d="M290.811547,227.27055 C291.118996,227.854064 291.118993,228.551642 290.811537,229.135153 C290.719134,229.310522 290.543643,229.62821 290.282526,230.078726 C289.855525,230.815447 289.337842,231.665967 288.726934,232.620789 C286.991934,235.332516 284.853657,238.347166 282.291713,241.588667 C274.9911,250.825769 265.752481,260.054063 254.413583,268.661999 C222.071826,293.214276 179.410996,307.935204 125.212139,307.935204 C70.8771654,307.935204 35.7335181,293.113386 16.1292921,268.309167 C9.22969815,259.579465 4.79194946,250.221373 2.32515397,240.858044 C1.45970514,237.57302 0.902411025,234.517519 0.591887822,231.767296 C0.403202714,230.096161 0.339274069,228.882876 0.339274069,228.202842 C0.339274069,227.522796 0.403202525,226.309486 0.591887218,224.638314 C0.902409931,221.888028 1.45970325,218.832458 2.32515094,215.547359 C4.79194387,206.183814 9.22968843,196.825505 16.1292775,188.095599 C35.7335012,163.290783 70.8771558,148.468606 125.212139,148.468606 C179.411005,148.468606 222.071842,163.189891 254.413602,187.742762 C265.752499,196.350905 274.991116,205.57942 282.291728,214.816744 C284.853671,218.058322 286.991947,221.073042 288.726946,223.784833 C289.337854,224.739678 289.855536,225.590217 290.282536,226.326956 C290.543653,226.777483 290.719144,227.095177 290.811547,227.27055 Z M285.357551,225.940566 C283.69275,223.338493 281.631274,220.432051 279.153517,217.296992 C272.054983,208.315354 263.054695,199.324907 251.994947,190.928686 C220.340577,166.897659 178.526597,152.468606 125.212139,152.468606 C72.0333653,152.468606 38.0610334,166.796767 19.2674868,190.575849 C12.7278563,198.850307 8.52610258,207.71096 6.19317423,216.566377 C5.37871946,219.657914 4.8560755,222.523507 4.56663305,225.087085 C4.46618525,225.976747 4.40193483,226.762595 4.36650193,227.435083 C4.3458799,227.826473 4.33927407,228.085577 4.33927407,228.202842 C4.33927407,228.320103 4.34587986,228.5792 4.3665018,228.970578 C4.4019346,229.643048 4.46618487,230.428876 4.56663244,231.318514 C4.8560744,233.882026 5.37871757,236.747545 6.1931712,239.839004 C8.52609699,248.694197 12.7278466,257.554627 19.2674723,265.828879 C38.0610165,289.607385 72.0333557,303.935204 125.212139,303.935204 C178.526607,303.935204 220.340593,289.506496 251.994965,265.476047 C263.054712,257.080029 272.054999,248.089801 279.153531,239.108381 C281.631288,235.973399 283.692763,233.067029 285.357563,230.46502 C285.900434,229.616537 286.362643,228.859868 286.746213,228.20283 C286.362641,227.545772 285.900428,226.789078 285.357551,225.940566 Z M332.000148,191.540865 L331.99916,267.068768 C331.999145,268.173327 331.103719,269.068742 329.99916,269.068742 C311.321351,269.068742 299.130506,261.356517 292.392267,248.568196 C290.047316,244.117776 288.545793,239.368276 287.712139,234.621772 C287.42034,232.960378 287.232441,231.415077 287.127669,230.023161 C287.063783,229.174427 287.042032,228.555239 287.042032,228.20303 C287.042032,227.850805 287.063782,227.231586 287.127668,226.382807 C287.23244,224.990815 287.420338,223.445428 287.712136,221.783942 C288.545786,217.037172 290.047302,212.287406 292.392244,207.836736 C299.13047,195.047668 311.321321,187.334974 329.99916,187.334974 C331.103729,187.334974 331.99916,188.230404 331.99916,189.334974 C331.99916,189.742276 331.877407,190.121141 331.668311,190.43716 C331.878016,190.753485 332.000154,191.132912 332.000148,191.540865 Z M295.931103,209.701268 C293.796359,213.752985 292.418077,218.11292 291.651839,222.475851 C291.383676,224.00276 291.211599,225.418026 291.116386,226.683029 C291.083425,227.120942 291.062377,227.507114 291.050799,227.83673 C291.044135,228.02646 291.042032,228.150162 291.042032,228.20303 C291.042032,228.255892 291.044135,228.379584 291.050799,228.569299 C291.062377,228.898892 291.083424,229.285038 291.116385,229.722921 C291.211598,230.987841 291.383674,232.403014 291.651836,233.929823 C292.41807,238.29247 293.796345,242.652121 295.931079,246.703576 C301.753024,257.752886 311.991699,264.520497 327.999187,265.036886 L328.000148,191.540813 C311.995331,191.88087 301.754083,198.649325 295.931103,209.701268 Z M55.5363258,208.768674 C55.5363258,213.005933 59.2024174,216.484515 63.7758548,216.484515 C68.3488603,216.484515 72.0148895,213.005877 72.0148895,208.768674 C72.0148895,204.531471 68.3488603,201.052832 63.7758548,201.052832 C59.2024174,201.052832 55.5363258,204.531414 55.5363258,208.768674 Z M51.5363258,208.768674 C51.5363258,202.273946 57.0388786,197.052832 63.7758548,197.052832 C70.5124272,197.052832 76.0148895,202.274034 76.0148895,208.768674 C76.0148895,215.263313 70.5124272,220.484515 63.7758548,220.484515 C57.0388786,220.484515 51.5363258,215.263402 51.5363258,208.768674 Z M106.1099,268.519293 C106.278797,268.359024 106.571895,268.065447 106.971417,267.641202 C107.623092,266.9492 108.345388,266.131994 109.120488,265.19218 C111.322376,262.522377 113.519709,259.394735 115.568984,255.829628 C121.42252,245.646279 124.936836,233.974359 124.936836,221.004816 C124.936836,204.387931 119.11554,186.895058 106.369744,168.752413 C105.73478,167.848592 104.487347,167.630639 103.583525,168.265603 C102.679703,168.900568 102.461751,170.148 103.096715,171.051822 C115.380878,188.53737 120.936836,205.232905 120.936836,221.004816 C120.936836,233.22656 117.6248,244.226657 112.101081,253.836227 C110.168317,257.198641 108.09918,260.14381 106.034598,262.64713 C105.316434,263.517908 104.652126,264.269507 104.059414,264.898897 C103.712304,265.267487 103.472093,265.50809 103.356559,265.617721 C102.555312,266.378035 102.52213,267.643931 103.282444,268.445177 C104.042758,269.246424 105.308653,269.279607 106.1099,268.519293 Z M167.546238,229.653624 C167.834422,229.38016 168.294669,228.891429 168.869021,228.195021 C169.805056,227.060067 170.736537,225.734212 171.604349,224.224482 C177.52657,213.921621 177.52657,201.381211 167.806072,187.544979 C167.171104,186.64116 165.92367,186.423214 165.019851,187.058182 C164.116032,187.693151 163.898085,188.940584 164.533054,189.844403 C173.316723,202.347147 173.316723,213.218975 168.136444,222.231085 C167.385142,223.538122 166.581856,224.681506 165.783126,225.649977 C165.508009,225.983558 165.255103,226.269698 165.031598,226.507036 C164.906011,226.640394 164.824032,226.722508 164.792888,226.752061 C163.991644,227.512378 163.958465,228.778273 164.718782,229.579517 C165.479098,230.380762 166.744994,230.41394 167.546238,229.653624 Z M147.067986,229.653562 C147.356147,229.380097 147.816355,228.891364 148.390657,228.194953 C149.326609,227.059999 150.258007,225.734144 151.125741,224.224416 C157.047415,213.921589 157.047415,201.38125 147.327804,187.545048 C146.692873,186.641202 145.445448,186.423204 144.541603,187.058134 C143.637757,187.693065 143.419758,188.940489 144.054689,189.844335 C152.837598,202.347109 152.837598,213.219007 147.657759,222.231152 C146.906523,223.53819 146.103309,224.681574 145.30465,225.650044 C145.029559,225.983625 144.776677,226.269764 144.553192,226.507101 C144.427618,226.640458 144.345647,226.72257 144.314507,226.752122 C143.513296,227.512475 143.480174,228.778371 144.240526,229.579582 C145.000878,230.380792 146.266775,230.413915 147.067986,229.653562 Z M147.068007,269.160333 C147.356164,268.886863 147.816368,268.398123 148.390667,267.701707 C149.326615,266.56674 150.258009,265.240879 151.125741,263.731155 C157.047422,253.428315 157.047422,240.888363 147.327761,227.053185 C146.692796,226.149363 145.445364,225.931411 144.541542,226.566375 C143.63772,227.201339 143.419768,228.448772 144.054732,229.352594 C152.837591,241.854307 152.837591,252.725759 147.657759,261.737891 C146.906521,263.044933 146.103304,264.188332 145.304641,265.156821 C145.029548,265.490409 144.776663,265.776556 144.553176,266.0139 C144.4276,266.147262 144.345627,266.229379 144.314485,266.258934 C143.513286,267.019298 143.480183,268.285195 144.240547,269.086395 C145.000911,269.887594 146.266808,269.920697 147.068007,269.160333 Z M167.546259,269.160394 C167.834439,268.886927 168.294682,268.398189 168.869031,267.701774 C169.805062,266.566808 170.736539,265.240947 171.604349,263.731222 C177.526577,253.428348 177.526577,240.888325 167.806029,227.053116 C167.171027,226.149321 165.923585,225.931421 165.01979,226.566423 C164.115995,227.201425 163.898094,228.448867 164.533097,229.352662 C173.316716,241.854346 173.316716,252.725727 168.136444,261.737824 C167.385139,263.044865 166.581851,264.188264 165.783116,265.156754 C165.507998,265.490343 165.25509,265.77649 165.031582,266.013835 C164.905994,266.147199 164.824013,266.229317 164.792866,266.258873 C163.991633,267.019201 163.958474,268.285097 164.718802,269.08633 C165.479131,269.887563 166.745026,269.920723 167.546259,269.160394 Z M188.025064,269.160354 C188.313228,268.886884 188.773445,268.398145 189.347761,267.701729 C190.283737,266.566763 191.215158,265.240901 192.082916,263.731177 C198.004779,253.428326 198.004779,240.88835 188.284823,227.053162 C187.649846,226.149349 186.40241,225.931414 185.498597,226.566391 C184.594784,227.201368 184.376849,228.448804 185.011826,229.352617 C193.794938,241.85432 193.794938,252.725748 188.61496,261.737868 C187.863699,263.044911 187.060458,264.188309 186.261772,265.156799 C185.98667,265.490387 185.733778,265.776534 185.510284,266.013878 C185.384704,266.147241 185.302728,266.229358 185.271585,266.258914 C184.470374,267.019266 184.437252,268.285162 185.197604,269.086373 C185.957956,269.887584 187.223853,269.920706 188.025064,269.160354 Z M188.025042,229.653583 C188.313211,229.380118 188.773432,228.891385 189.347751,228.194976 C190.283731,227.060022 191.215156,225.734166 192.082916,224.224438 C198.004772,213.9216 198.004772,201.381237 188.284866,187.545025 C187.649922,186.641188 186.402495,186.423207 185.498658,187.05815 C184.594821,187.693093 184.37684,188.940521 185.011783,189.844358 C193.794945,202.347121 193.794945,213.218997 188.61496,222.231129 C187.863702,223.538167 187.060464,224.681552 186.261781,225.650022 C185.986682,225.983603 185.733791,226.269742 185.5103,226.507079 C185.384722,226.640437 185.302748,226.72255 185.271606,226.752102 C184.470385,227.512442 184.437244,228.778339 185.197584,229.57956 C185.957924,230.380782 187.22382,230.413923 188.025042,229.653583 Z" id="Combined-Shape" transform="translate(166.169711, 228.201905) scale(-1, 1) translate(-166.169711, -228.201905) "></path>
            <path d="M174.999856,0 C176.104426,0 176.999856,0.8954305 176.999856,2 L176.999856,33.7328766 C176.999856,34.8374461 176.104426,35.7328766 174.999856,35.7328766 C161.1407,35.7328766 152.414736,41.2577386 147.532306,50.5316986 C145.809953,53.8032338 144.696776,57.327284 144.077818,60.854337 C143.861201,62.0886964 143.722261,63.2323126 143.645455,64.2535318 C143.600393,64.852691 143.585826,65.2677238 143.585826,65.467117 C143.585826,66.5716865 142.690396,67.467117 141.585826,67.467117 L108.172514,67.467117 C107.067944,67.467117 106.172514,66.5716865 106.172514,65.467117 C106.172514,65.3201295 106.176989,65.0565942 106.19006,64.6841985 C106.211374,64.0769278 106.249531,63.3763083 106.308669,62.5900174 C106.476593,60.3572832 106.778167,57.8750658 107.246794,55.2046814 C108.585676,47.5753237 110.996611,39.9429633 114.756209,32.8018489 C125.536497,12.3253873 145.003417,0 174.999856,0 Z M118.295654,34.6652681 C114.746011,41.4075856 112.458149,48.6503307 111.186588,55.8960786 C110.74156,58.4319812 110.455784,60.7841731 110.297403,62.8900113 C110.282462,63.0886723 110.268979,63.2810929 110.256873,63.467117 L139.689913,63.467117 C139.774759,62.5346738 139.917263,61.4209195 140.138023,60.162947 C140.8243,56.2522874 142.060548,52.338625 143.992853,48.6682951 C149.307586,38.5731935 158.743981,32.3022699 172.999856,31.7697506 L172.999856,4.01914408 C145.670956,4.54620236 128.160346,15.9279202 118.295654,34.6652681 Z M126.865455,49.8330002 C126.889631,49.6270836 126.952324,49.2051579 127.06407,48.5985996 C127.253988,47.567712 127.513994,46.413928 127.854338,45.168734 C128.827383,41.6087209 130.243972,38.0500175 132.179067,34.7431182 C137.643907,25.4042087 146.065489,19.8662337 158.29241,19.8662337 C159.39698,19.8662337 160.29241,18.9708032 160.29241,17.8662337 C160.29241,16.7616642 159.39698,15.8662337 158.29241,15.8662337 C144.542648,15.8662337 134.867806,22.2283432 128.726713,32.7229078 C126.599731,36.3577245 125.055703,40.2365739 123.99587,44.1141135 C123.624707,45.4720629 123.339994,46.7354836 123.130269,47.8738823 C123.002228,48.5688957 122.926779,49.0766641 122.892741,49.3665843 C122.763944,50.463619 123.548856,51.4573521 124.64589,51.5861492 C125.742925,51.7149464 126.736658,50.9300349 126.865455,49.8330002 Z" id="Combined-Shape" transform="translate(141.586185, 33.733559) scale(-1, 1) translate(-141.586185, -33.733559) "></path>
            <path d="M467.387335,145.458668 C467.387335,173.441176 443.4481,196.091375 413.956526,196.091375 C384.46451,196.091375 360.525191,173.441255 360.525191,145.458668 C360.525191,117.476081 384.46451,94.8259606 413.956526,94.8259606 C443.4481,94.8259606 467.387335,117.47616 467.387335,145.458668 Z M464.455191,145.458668 C464.455191,119.132941 441.8639,97.7581042 413.956526,97.7581042 C386.048705,97.7581042 363.457335,119.132866 363.457335,145.458668 C363.457335,171.78447 386.048705,193.159232 413.956526,193.159232 C441.8639,193.159232 464.455191,171.784395 464.455191,145.458668 Z M480.378177,145.458668 C480.378177,180.22932 450.622377,208.382412 413.956316,208.382412 C377.289812,208.382412 347.533928,180.229398 347.533928,145.458668 C347.533928,110.687755 377.290006,82.5339282 413.956316,82.5339282 C450.622183,82.5339282 480.378177,110.687834 480.378177,145.458668 Z M477.446033,145.458668 C477.446033,112.344611 449.03798,85.4660718 413.956316,85.4660718 C378.874205,85.4660718 350.466072,112.344536 350.466072,145.458668 C350.466072,178.572602 378.873997,205.450268 413.956316,205.450268 C449.038188,205.450268 477.446033,178.572527 477.446033,145.458668 Z M415.605129,162.177451 C415.065579,161.326724 414.490283,160.552976 413.913395,159.86883 C408.331841,165.827596 408.542045,171.968084 412.307774,177.906269 C412.847267,178.756996 413.422502,179.53075 413.999328,180.214906 C419.581379,174.25594 419.371176,168.115512 415.605129,162.177451 Z M411.945655,182.325154 C411.223848,181.490454 410.504017,180.536964 409.831563,179.476571 C405.159049,172.108475 405.158403,164.056987 412.946502,156.686754 C413.513414,156.150347 414.398036,156.150311 414.963326,156.685097 C415.177861,156.888055 415.527375,157.2502 415.966996,157.758521 C416.688863,158.593196 417.408755,159.546661 418.081265,160.607032 C422.754552,167.975571 422.754811,176.027728 414.964443,183.398614 C414.399169,183.933451 413.514515,183.933451 412.949241,183.398614 C412.734724,183.195648 412.385239,182.833491 411.945655,182.325154 Z M401.177104,162.156947 C402.104444,160.402033 402.70494,158.508052 403.038933,156.61189 C403.096943,156.282557 403.144612,155.965366 403.182969,155.662454 C396.618956,156.055461 392.421995,158.925798 389.990562,163.526885 C389.063183,165.281795 388.462663,167.175772 388.128656,169.071929 C388.070642,169.401275 388.022969,169.718477 387.98461,170.021399 C394.54871,169.628563 398.745687,166.758199 401.177104,162.156947 Z M384.931665,171.533821 C384.931665,170.910209 385.009745,169.875933 385.240971,168.563266 C385.624655,166.385086 386.315979,164.204727 387.398136,162.156924 C390.517513,156.254018 396.176765,152.684149 404.769802,152.683916 C405.579507,152.683894 406.235914,153.340283 406.235914,154.149987 C406.235914,154.773596 406.157837,155.807869 405.926623,157.120533 C405.542955,159.298707 404.851663,161.479062 403.769554,163.526862 C400.650201,169.429977 394.990901,172.999893 386.397737,172.999893 C385.588048,172.999893 384.931665,172.343511 384.931665,171.533821 Z M431.70166,157.647925 C429.830014,156.762543 427.80881,156.18887 425.784938,155.869751 C425.393986,155.808107 425.018917,155.758656 424.662823,155.720056 C425.097122,161.821768 428.107125,165.740922 432.955534,168.034625 C434.827275,168.920115 436.848582,169.493864 438.872541,169.813031 C439.263397,169.874667 439.638376,169.924114 439.994385,169.962715 C439.560266,163.860742 436.550237,159.941543 431.70166,157.647925 Z M441.514895,172.998897 C440.8687,172.998897 439.788984,172.925927 438.415802,172.709383 C436.133675,172.349504 433.848896,171.700969 431.701624,170.68513 C425.47129,167.73766 421.67644,162.352021 421.676191,154.150032 C421.676167,153.340341 422.332532,152.683938 423.142236,152.683916 C423.331096,152.68433 423.619911,152.693435 424.030806,152.721199 C424.700728,152.766464 425.443482,152.847541 426.241628,152.973391 C428.52366,153.333216 430.808328,153.981668 432.955498,154.997386 C439.186063,157.944754 442.980967,163.330495 442.980967,171.532826 C442.980967,172.342515 442.324584,172.998897 441.514895,172.998897 Z M431.520095,144.001787 C430.673985,144.482139 429.900208,144.991887 429.209386,145.504551 C435.516198,150.707597 442.067841,150.484762 448.356537,146.914554 C449.202647,146.434201 449.976423,145.924453 450.667245,145.41179 C444.360433,140.208743 437.808791,140.431578 431.520095,144.001787 Z M452.804821,147.470643 C451.92505,148.151725 450.920454,148.830686 449.80415,149.464433 C442.07612,153.851777 433.684919,153.852018 425.939157,146.523633 C425.327851,145.945267 425.327832,144.972135 425.939114,144.393744 C426.153335,144.19105 426.535553,143.860846 427.071811,143.445697 C427.951581,142.764615 428.956177,142.085654 430.072482,141.451908 C437.800511,137.064563 446.191713,137.064322 453.966564,144.421003 C454.54878,144.971073 454.5488,145.944205 453.937517,146.522596 C453.723297,146.72529 453.341079,147.055494 452.804821,147.470643 Z M426.735078,128.760094 C425.807944,130.514768 425.207591,132.408491 424.873692,134.304425 C424.81566,134.633942 424.767978,134.951308 424.729618,135.254386 C431.293216,134.861391 435.489909,131.991154 437.921193,127.390217 C438.848517,125.635359 439.449003,123.741438 439.782991,121.845336 C439.840999,121.516015 439.888667,121.198837 439.927024,120.895935 C433.362962,121.288758 429.166194,124.159017 426.735078,128.760094 Z M442.979967,119.383515 C442.979967,120.007109 442.901891,121.041355 442.670679,122.353986 C442.287016,124.532103 441.595732,126.712401 440.513636,128.760148 C437.394427,134.662903 431.735469,138.23269 423.142882,138.232922 C422.333212,138.232944 421.676819,137.576609 421.67677,136.76691 C421.676751,136.142958 421.754809,135.10854 421.985989,133.795863 C422.369553,131.61792 423.060692,129.437828 424.14258,127.390271 C427.261599,121.487281 432.92072,117.917443 441.513895,117.917443 C442.323584,117.917443 442.979967,118.573825 442.979967,119.383515 Z M412.306976,128.739885 C412.846519,129.590601 413.421808,130.364341 413.998689,131.04848 C419.579977,125.089723 419.369773,118.949224 415.6042,113.011044 C415.064741,112.160336 414.489544,111.386598 413.912754,110.702455 C408.330727,116.661413 408.540934,122.801832 412.306976,128.739885 Z M415.966433,108.592204 C416.688211,109.426905 417.408013,110.380395 418.08044,111.440788 C422.752758,118.808874 422.753404,126.860333 414.965625,134.230561 C414.398716,134.766988 413.514078,134.767033 412.948779,134.232239 C412.734245,134.029281 412.384731,133.667136 411.94511,133.158815 C411.223242,132.32414 410.503351,131.370675 409.83084,130.310304 C405.157553,122.941765 405.157295,114.889608 412.947662,107.518722 C413.512945,106.983878 414.397614,106.983886 414.962886,107.518742 C415.177395,107.721709 415.526866,108.083867 415.966433,108.592204 Z M396.210408,133.269001 C398.08206,134.154323 400.103271,134.727957 402.127151,135.047054 C402.51809,135.108692 402.893146,135.158138 403.24923,135.196735 C402.814741,129.095331 399.804779,125.176333 394.956564,122.882689 C393.084824,121.997186 391.063519,121.42343 389.039562,121.104259 C388.648689,121.042619 388.273697,120.99317 387.917675,120.954568 C388.351625,127.056397 391.361671,130.975472 396.210408,133.269001 Z M386.397211,117.918389 C387.043407,117.918389 388.123123,117.991361 389.496307,118.207908 C391.778435,118.567792 394.063216,119.216337 396.210489,120.232191 C402.440608,123.179601 406.235417,128.565054 406.235914,136.766712 C406.235963,137.57642 405.57959,138.232851 404.769869,138.232873 C404.581013,138.232458 404.292199,138.223354 403.881306,138.195592 C403.211387,138.15033 402.468637,138.069259 401.670493,137.943419 C399.388469,137.583622 397.103808,136.935218 394.956644,135.919575 C388.725855,132.972313 384.93089,127.586665 384.931139,119.384416 C384.931163,118.574745 385.587539,117.918389 386.397211,117.918389 Z M396.391919,146.91542 C397.237906,146.435109 398.011568,145.925406 398.702286,145.412786 C392.395834,140.209649 385.844362,140.432309 379.555823,144.002177 C378.709817,144.482437 377.93613,144.992084 377.245381,145.504648 C383.552247,150.708255 390.103632,150.485609 396.391919,146.91542 Z M373.975157,144.393703 C374.189368,144.191035 374.571567,143.860874 375.107795,143.445779 C375.987516,142.764787 376.992052,142.085917 378.108286,141.452255 C385.835007,137.065962 394.224693,137.065238 401.969135,144.390594 C402.583713,144.972103 402.583733,145.945168 401.972508,146.523551 C401.758311,146.726239 401.376137,147.056431 400.83994,147.471562 C399.960271,148.152614 398.955786,148.831544 397.839597,149.465262 C390.111969,153.85264 381.720948,153.85264 373.975114,146.523592 C373.363832,145.945201 373.363851,144.972069 373.975157,144.393703 Z" id="Combined-Shape"></path>
            <path d="M109.276504,124.511448 C109.276504,125.216492 108.704953,125.788044 107.999908,125.788044 L86.6727205,125.788044 C85.9676761,125.788044 85.3961247,125.216492 85.3961247,124.511448 C85.3961247,116.168362 81.7006402,110.904031 75.4608542,107.941108 C73.2482665,106.890475 70.8638676,106.211145 68.4771691,105.833376 C67.6413235,105.701077 66.8665859,105.616182 66.1742204,105.569215 C65.7665776,105.541563 65.4828416,105.532581 65.3441578,105.532581 C64.6391134,105.532581 64.067562,104.96103 64.067562,104.255985 L64.067562,84.0000871 C64.067562,83.2950427 64.6391134,82.7234913 65.3441578,82.7234913 C65.4407284,82.7234913 65.615598,82.72617 65.8635956,82.734021 C66.2692206,82.7468621 66.7375517,82.7698683 67.2634248,82.8055424 C68.7580247,82.9069326 70.4201912,83.0890795 72.2087037,83.3721796 C77.3201709,84.1812635 82.4339375,85.6382697 87.2196372,87.9108262 C100.974943,94.4427259 109.276504,106.269063 109.276504,124.511448 Z M86.1244289,90.2171882 C81.5791831,88.0588146 76.6955082,86.6673657 71.8095338,85.8939746 C70.0989419,85.6232084 68.5119399,85.4492984 67.0906193,85.3528792 C66.9277557,85.3418309 66.7710714,85.3320896 66.6207535,85.323568 L66.6207535,103.041939 C67.3135518,103.096445 68.0700775,103.183965 68.8763223,103.311578 C71.4885057,103.725037 74.1029886,104.46992 76.5560241,105.634728 C83.3197251,108.846428 87.5466931,114.571765 87.9220338,123.234852 L106.708972,123.234852 C106.335987,106.762246 98.7068877,96.1921449 86.1244289,90.2171882 Z M75.8738856,95.3972696 C76.0162033,95.4123436 76.3037589,95.4508891 76.7154813,95.5193137 C77.4131412,95.6352587 78.193433,95.7938785 79.0351914,96.0014192 C81.4400689,96.5943564 83.843617,97.4573908 86.0762597,98.6358534 C92.3539431,101.949422 96.0593979,107.03206 96.0593979,114.383673 C96.0593979,115.088717 96.6309492,115.660269 97.3359936,115.660269 C98.041038,115.660269 98.6125894,115.088717 98.6125894,114.383673 C98.6125894,105.987977 94.3201768,100.10023 87.2680814,96.3779013 C84.8353015,95.0937997 82.2401825,94.1619785 79.6463929,93.5224639 C78.7386179,93.2986464 77.8943429,93.1270199 77.1340583,93.0006672 C76.6710139,92.9237133 76.3337361,92.8785028 76.1428093,92.8582803 C75.4416868,92.7840191 74.813114,93.2921906 74.7388528,93.9933131 C74.6645916,94.6944357 75.1727631,95.3230084 75.8738856,95.3972696 Z" id="Combined-Shape" transform="translate(86.672033, 104.255768) scale(-1, 1) translate(-86.672033, -104.255768) "></path>
            <path d="M243.576506,92.299611 C244.529122,92.7595822 245.634264,93.2211503 246.877028,93.6527782 C251.938143,95.4105683 257.59957,96.1431042 263.589385,95.2647447 C271.592398,94.0911653 279.408819,90.1235107 286.794522,82.7391281 C286.830442,82.7032156 286.92143,82.5992493 287.050024,82.4278248 C287.279426,82.1220144 287.512412,81.7493083 287.732071,81.3100711 C288.795716,79.1831801 289.137142,76.4521044 288.291732,73.0712148 C287.112953,68.3571471 283.7375,62.9574432 277.658253,56.8792497 C271.578939,50.8013257 266.178266,47.4265866 261.463331,46.2480201 C258.081753,45.4027459 255.350111,45.7440823 253.222812,46.8074958 C252.783506,47.0271001 252.410744,47.2600257 252.10489,47.4893679 C251.933443,47.6179258 251.829465,47.708888 251.793542,47.7448043 C244.407563,55.1291349 240.439082,62.9440673 239.265284,70.9455247 C238.386765,76.9341546 239.119476,82.5944701 240.87766,87.6546051 C241.309391,88.897145 241.771068,90.0020879 242.231149,90.9545326 C242.390686,91.2848013 242.538015,91.5714872 242.669174,91.8127342 C242.959439,91.9928166 243.246177,92.1401117 243.576506,92.299611 Z M240.950577,93.2064136 C240.806683,92.9666532 240.568012,92.5276541 240.266534,91.9035434 C239.770938,90.8775743 239.276939,89.6952765 238.816705,88.3707006 C236.950439,82.9995016 236.172937,76.9931724 237.106571,70.6288457 C238.348975,62.1597134 242.535325,53.9157421 250.250927,46.2018622 C250.615016,45.8378466 251.279064,45.3399156 252.247246,44.8559317 C258.699027,41.630757 267.75683,43.8948862 279.200877,55.3363162 C290.644939,66.7783967 292.909581,75.834953 289.683476,82.2859559 C289.199343,83.2540398 288.701265,83.9180149 288.337154,84.282053 C280.621896,91.9959324 272.376504,96.1813345 263.905946,97.4234757 C257.540582,98.3569066 251.533274,97.5796171 246.161199,95.7138265 C244.83642,95.2537138 243.653941,94.7598455 242.627816,94.2643803 C242.003612,93.962983 241.564548,93.7243767 241.324756,93.5805237 C241.171219,93.488416 241.042713,93.3599336 240.950577,93.2064136 Z M254.076805,59.1635627 C253.241654,59.9982107 253.241654,61.3523856 254.076961,62.1871887 C254.912414,63.0224742 256.267091,63.022578 257.102322,62.1878509 C257.93738,61.3526249 257.93738,59.9984785 257.102632,59.1635627 C256.267117,58.3285514 254.91232,58.3285514 254.076805,59.1635627 Z M252.534492,57.6203191 C254.221954,55.9338751 256.957484,55.9338751 258.645255,57.6206293 C260.332159,59.3078728 260.332159,62.0432306 258.644945,63.7307843 C256.957353,65.417359 254.221703,65.4171493 252.534492,63.7302772 C250.846667,62.0434699 250.846667,59.3071264 252.534492,57.6203191 Z M263.213088,68.2976987 C262.377807,69.1324759 262.377807,70.4865311 263.213088,71.3209726 C264.048691,72.1564078 265.403368,72.1567195 266.238449,71.322142 C267.073507,70.486916 267.073507,69.1327696 266.238604,68.2976987 C265.403124,67.4623871 264.048567,67.4623871 263.213088,68.2976987 Z M261.670619,66.7546102 C263.357961,65.0676074 266.09373,65.0676074 267.781382,66.7549204 C269.468286,68.4421639 269.468286,71.1775217 267.781072,72.8650754 C266.093524,74.5516064 263.357874,74.5509771 261.670775,72.8642163 C259.982769,71.1779066 259.982769,68.4414433 261.670619,66.7546102 Z M272.34906,80.4556158 C273.184724,81.2907767 274.539521,81.2909845 275.374576,80.4564331 C276.209634,79.6212071 276.209634,78.2670607 275.374731,77.4319898 C274.539251,76.5966782 273.184694,76.5966782 272.349215,77.4319898 C271.514364,78.2666732 271.514364,79.6210875 272.34906,80.4556158 Z M276.917509,75.8892115 C278.604413,77.576455 278.604413,80.3118129 276.917199,81.9993666 C275.229782,83.6857668 272.494252,83.6853472 270.806591,81.9987043 C269.11948,80.3119325 269.11948,77.5758282 270.806591,75.8890564 C272.494088,74.2018985 275.229857,74.2018985 276.917509,75.8892115 Z M249.509027,72.8646638 C248.673741,73.6994463 248.673845,75.0537408 249.509027,75.8887551 C250.343989,76.7238857 251.698934,76.7238857 252.534233,75.8887551 C253.369441,75.0533791 253.369545,73.6994721 252.534388,72.8648189 C251.698934,72.0295332 250.343989,72.0295332 249.509027,72.8646638 Z M247.966403,71.3217304 C249.653093,69.6347017 252.389488,69.6347017 254.076856,71.3217304 C255.764481,73.0083374 255.764271,75.7439344 254.077011,77.4315334 C252.389488,79.1187172 249.653093,79.1187172 247.966248,77.4315334 C246.278963,75.7445871 246.278753,73.0083633 247.966403,71.3217304 Z M258.645154,81.9990056 C257.80992,82.8340717 257.809816,84.1880984 258.644999,85.0234489 C259.479997,85.8582793 260.835181,85.8582793 261.670515,85.0234489 C262.505672,84.18846 262.505568,82.8340458 261.670515,81.9991608 C260.835061,81.163875 259.480116,81.163875 258.645154,81.9990056 Z M257.102375,80.4562273 C258.78922,78.7690436 261.525615,78.7690436 263.213138,80.4562273 C264.900398,82.1431478 264.900608,84.879252 263.212983,86.5665375 C261.525496,88.2530073 258.789339,88.2530073 257.10222,86.5662273 C255.414932,84.8785996 255.415142,82.143122 257.102375,80.4562273 Z M279.524413,41.1076278 C279.164044,40.5071872 278.781161,39.9585722 278.396294,39.4697141 C274.534668,43.8807487 274.695773,48.4425358 277.334738,52.8400722 C277.695078,53.4405382 278.077929,53.9891841 278.462765,54.4780773 C282.324645,50.0666409 282.163554,45.5049223 279.524413,41.1076278 Z M276.950811,56.0798331 C276.442986,55.4592554 275.936696,54.7505628 275.463927,53.9627468 C272.1847,48.4982854 272.183956,42.5437971 277.655,37.0717267 C278.084209,36.642627 278.774765,36.6426174 279.200773,37.0684918 C279.352279,37.2199507 279.598612,37.4896618 279.908182,37.867911 C280.41604,38.4884383 280.922363,39.1970814 281.395163,39.9848524 C284.675312,45.4501833 284.675312,51.4059439 279.200815,56.8793404 C278.774798,57.3052719 278.084176,57.3052623 277.658171,56.879319 C277.506676,56.7278468 277.26036,56.4581123 276.950811,56.0798331 Z M281.697875,55.013483 C281.097419,55.3737004 280.548777,55.7564159 280.059877,56.1411182 C284.47205,60.0020181 289.035038,59.8408876 293.433592,57.2022561 C294.034065,56.8420404 294.582726,56.459327 295.071646,56.0746265 C290.659272,52.2137145 286.09631,52.3748351 281.697875,55.013483 Z M296.673476,57.5865934 C296.052776,58.0943389 295.343943,58.6005503 294.555971,59.0732438 C289.089908,62.3522592 283.133748,62.3526311 277.660031,56.8809257 C277.232323,56.4532796 277.232323,55.7624677 277.658424,55.3364283 C277.80992,55.1849549 278.079696,54.9386735 278.458036,54.6291693 C279.078711,54.1214212 279.787519,53.6152074 280.575468,53.1425118 C286.041961,49.8631296 291.998743,49.8631296 297.47312,55.3364069 C297.89925,55.7624512 297.89925,56.4532962 297.47312,56.8793404 C297.321618,57.0308118 297.05183,57.2770911 296.673476,57.5865934 Z" id="Combined-Shape" transform="translate(267.251773, 67.284117) rotate(-17.000000) translate(-267.251773, -67.284117) "></path>
        </g>
    </g>
</svg>