<?xml version="1.0" encoding="UTF-8" standalone="no"?>
<svg width="32px" height="40px" viewBox="0 0 32 40" version="1.1" xmlns="http://www.w3.org/2000/svg" xmlns:xlink="http://www.w3.org/1999/xlink">
    <!-- Generator: Sketch 42 (36781) - http://www.bohemiancoding.com/sketch -->
    <title>Combined Shape</title>
    <desc>Created with Sketch.</desc>
    <defs></defs>
    <g id="Page-1" stroke="none" stroke-width="1" fill="none" fill-rule="evenodd">
        <g id="Menu-index" transform="translate(-1307.000000, -18.000000)" fill-rule="nonzero" fill="#00FF00">
            <g id="bag" transform="translate(1299.000000, 18.000000)">
                <g id="Group-10" transform="translate(8.000000, 0.000000)">
                    <path d="M16.5454983,38.1792106 C17.1314637,37.973195 17.7813629,37.7040656 18.475932,37.364867 C21.3046247,35.9834515 23.957048,33.9222518 26.0774506,31.0500799 C28.9105369,27.2125491 30.5071403,22.284622 30.507688,16.1079912 C30.5076918,16.0779488 30.5023101,15.9964164 30.4845447,15.8709468 C30.4528525,15.6471185 30.3948959,15.3938171 30.3038109,15.1182667 C29.862768,13.7840236 28.8714885,12.4991634 27.1183014,11.4389033 C24.6737852,9.96055384 21.033573,9.11413666 15.9902375,9.11471811 C10.946979,9.11529954 7.30659934,9.96253105 4.8617204,11.4414169 C3.10823493,12.5020848 2.11660832,13.7871913 1.67523048,15.1215346 C1.58408182,15.397089 1.5260652,15.6503859 1.49431873,15.8742038 C1.47652314,15.9996657 1.47112126,16.0811902 1.47111744,16.1112098 C1.47050174,22.2877877 3.06618727,27.2153292 5.89856342,31.0522111 C8.01843811,33.9239021 10.6705043,35.9845255 13.4989946,37.3653412 C14.1935558,37.704413 14.8434595,37.9734196 15.4294377,38.1793213 C15.6645297,38.2619282 15.8525557,38.3219906 15.9874738,38.3617211 C16.1223885,38.3219634 16.3104102,38.2618636 16.5454983,38.1792106 Z M20.3863378,8.05789601 C26.97097,8.81439893 30.4057874,11.3451854 31.5181659,14.7103531 C31.7189175,15.317667 31.7877267,15.8036374 31.787688,16.1081317 C31.7871159,22.5603448 30.1028916,27.7587142 27.1042967,31.8204332 C24.8509511,34.8726817 22.0364818,37.0598075 19.0339917,38.5260984 C18.2935847,38.8876823 17.5982053,39.1756455 16.9670227,39.3975587 C16.5830666,39.5325512 16.3019574,39.6163797 16.1428145,39.6565008 C16.0409093,39.6821919 15.9342975,39.6822027 15.8323872,39.6565322 C15.6732309,39.6164418 15.3921038,39.5326667 15.0081292,39.3977453 C14.3769171,39.1759493 13.681516,38.8881104 12.9410988,38.5266527 C9.93873448,37.0609549 7.12455079,34.8743681 4.87168745,31.822524 C1.8737631,27.761382 0.190474263,22.5633179 0.191117445,16.1110622 C0.191156182,15.806578 0.260080377,15.3206509 0.460958513,14.7133698 C1.5844123,11.317021 5.0732595,8.76996356 11.7779775,8.03825737 C9.32588118,6.77891381 7.77223142,4.4620037 7.77199353,0.832901354 C7.77204878,0.473979523 8.05850954,0.185208594 8.4118938,0.185153018 C8.53757455,0.185133253 8.75164846,0.19490928 9.03698065,0.223629618 C9.50507529,0.270746055 10.0090871,0.355352316 10.5320172,0.48706752 C13.1226094,1.13958377 15.1231162,2.59609017 16.0551709,5.0425788 C17.1942799,2.10164436 19.5852297,0.183623672 23.5702811,0.183108485 C23.9238074,0.183062781 24.2104085,0.471975145 24.2103631,0.828352509 C24.210347,0.955052634 24.2005889,1.17086717 24.1720186,1.45852277 C24.1251484,1.9304287 24.0410802,2.43854965 23.9102773,2.965749 C23.3564564,5.19791732 22.2202023,6.99566027 20.3863378,8.05789601 Z M10.2217304,1.7389043 C9.8231443,1.63850876 9.43671813,1.56920195 9.07425949,1.52571485 C9.3020717,4.98529755 11.261294,6.82557766 14.1803523,7.56091958 C14.5789511,7.66133086 14.9653914,7.73065541 15.3278655,7.77416103 C15.0998964,4.31439989 13.1407032,2.47413278 10.2217304,1.7389043 Z M16.8919957,6.64518962 C16.7923336,7.04692665 16.7234997,7.4364031 16.6802736,7.80172701 C20.1122576,7.57117165 21.9383705,5.5955571 22.668527,2.65267043 C22.7682047,2.25092063 22.8370561,1.8614299 22.8803006,1.49609044 C19.4481396,1.72680397 17.6220396,3.70238913 16.8919957,6.64518962 Z" id="Combined-Shape"></path>
                </g>
            </g>
        </g>
    </g>
</svg>