<?xml version="1.0" encoding="UTF-8" standalone="no"?>
<svg width="66px" height="68px" viewBox="0 0 66 68" version="1.1" xmlns="http://www.w3.org/2000/svg" xmlns:xlink="http://www.w3.org/1999/xlink">
    <!-- Generator: Sketch 42 (36781) - http://www.bohemiancoding.com/sketch -->
    <title>Group 2</title>
    <desc>Created with Sketch.</desc>
    <defs></defs>
    <g id="Page-1" stroke="none" stroke-width="1" fill="none" fill-rule="evenodd">
        <g id="Group-2" transform="translate(-2.000000, -13.500000) rotate(180.000000) translate(2.000000, 13.500000) translate(-84.000000, -95.000000)">
            <rect id="Rectangle-8" fill="#287572" transform="translate(81.894395, 81.350568) rotate(314.000000) translate(-81.894395, -81.350568) " x="24.3943952" y="23.8505682" width="115" height="115"></rect>
            <path d="M69.96,56.36 L63.12,56.36 C62.7599982,56.36 62.58,56.1800018 62.58,55.82 C62.58,55.4599982 62.7599982,55.28 63.12,55.28 L65.352,55.28 C65.7840022,55.28 65.904001,55.1000018 65.712,54.74 L59.448,40.088 C59.3999998,39.9439993 59.3280005,39.872 59.232,39.872 C59.1359995,39.872 59.0640002,39.9439993 59.016,40.088 L52.752,54.74 C52.559999,55.1000018 52.6799978,55.28 53.112,55.28 L55.344,55.28 C55.7040018,55.28 55.884,55.4599982 55.884,55.82 C55.884,56.1800018 55.7040018,56.36 55.344,56.36 L48.504,56.36 C48.1439982,56.36 47.964,56.1800018 47.964,55.82 C47.964,55.4599982 48.1439982,55.28 48.504,55.28 L50.844,55.28 C51.1560016,55.28 51.3959992,55.1000018 51.564,54.74 L58.512,38.54 C58.704001,38.1799982 58.9439986,38 59.232,38 C59.5200014,38 59.759999,38.1799982 59.952,38.54 L66.9,54.74 C67.0680008,55.1000018 67.3079984,55.28 67.62,55.28 L69.96,55.28 C70.3200018,55.28 70.5,55.4599982 70.5,55.82 C70.5,56.1800018 70.3200018,56.36 69.96,56.36 Z" id="v" fill="#00FF00"></path>
        </g>
    </g>
</svg>